<?xml version="1.0" encoding="UTF-8" standalone="no"?>
<svg
   xmlns:dc="http://purl.org/dc/elements/1.1/"
   xmlns:cc="http://creativecommons.org/ns#"
   xmlns:rdf="http://www.w3.org/1999/02/22-rdf-syntax-ns#"
   xmlns:svg="http://www.w3.org/2000/svg"
   xmlns="http://www.w3.org/2000/svg"
   xmlns:sodipodi="http://sodipodi.sourceforge.net/DTD/sodipodi-0.dtd"
   xmlns:inkscape="http://www.inkscape.org/namespaces/inkscape"
   width="21.695831mm"
   height="21.822687mm"
   version="1.1"
   viewBox="0 0 21.69513 21.82321"
   id="svg4546"
   sodipodi:docname="flame.svg"
   inkscape:version="0.92.1 r15371">
  <metadata
     id="metadata4552">
    <rdf:RDF>
      <cc:Work
         rdf:about="">
        <dc:format>image/svg+xml</dc:format>
        <dc:type
           rdf:resource="http://purl.org/dc/dcmitype/StillImage" />
        <dc:title></dc:title>
      </cc:Work>
    </rdf:RDF>
  </metadata>
  <defs
     id="defs4550" />
  <sodipodi:namedview
     pagecolor="#ffffff"
     bordercolor="#666666"
     borderopacity="1"
     objecttolerance="10"
     gridtolerance="10"
     guidetolerance="10"
     inkscape:pageopacity="0"
     inkscape:pageshadow="2"
     inkscape:window-width="1280"
     inkscape:window-height="744"
     id="namedview4548"
     showgrid="false"
     fit-margin-top="0"
     fit-margin-left="0"
     fit-margin-right="0"
     fit-margin-bottom="0"
     inkscape:pagecheckerboard="true"
     inkscape:zoom="1.8403085"
     inkscape:cx="-29.817559"
     inkscape:cy="31.934427"
     inkscape:window-x="82"
     inkscape:window-y="-4"
     inkscape:window-maximized="1"
     inkscape:current-layer="g4544" />
  <g
     transform="translate(-38.1715,-141.21354)"
     id="g4544"
     style="stroke-width:0.26458001">
    <path
       d="m 56.016674,162.94229 c -0.05934,-0.0847 -0.06622,-0.88548 -0.06622,-7.7017 0,-8.3011 0.01272,-7.84753 -0.239793,-8.54759 -0.450934,-1.25009 -1.546852,-2.00416 -3.234326,-2.2254 -0.4136,-0.0542 -1.460109,-0.064 -6.982355,-0.0651 -5.334001,-0.001 -6.50917,-0.0115 -6.570428,-0.0579 -0.0671,-0.0509 -0.07445,-0.15292 -0.07445,-1.03331 0,-1.09391 0.02652,-1.24139 0.275583,-1.53238 0.167167,-0.1953 0.540458,-0.40312 0.873007,-0.48603 0.19389,-0.0483 1.552866,-0.0583 7.933875,-0.0583 7.29299,0 7.723408,0.004 8.146591,0.0785 0.904681,0.15889 1.630829,0.45629 2.246309,0.92005 0.74922,0.56456 1.213628,1.30163 1.455334,2.30982 0.08221,0.3429 0.08396,0.53777 0.08425,9.37096 1.61e-4,6.95969 -0.01137,9.03235 -0.05075,9.07174 -0.03813,0.0381 -0.516566,0.0511 -1.890656,0.0511 h -1.839527 z m -16.806725,-0.0566 c -0.671755,-0.10995 -1.042249,-0.19968 -1.042249,-0.25242 0,-0.11374 0.338032,-0.4305 0.585783,-0.54891 0.202701,-0.0969 0.261644,-0.14727 0.28007,-0.23938 0.02633,-0.13166 0.971133,-1.04992 1.166582,-1.1338 0.137422,-0.059 0.112065,-0.0708 -0.309541,-0.14444 -0.508189,-0.0887 -0.508703,-0.0814 0.02643,-0.37623 0.266226,-0.14669 0.497401,-0.27935 0.51372,-0.29482 0.01632,-0.0155 -0.200047,-0.16213 -0.480792,-0.3259 l -0.510456,-0.29779 0.02889,-0.31906 c 0.01837,-0.20288 0.06565,-0.39212 0.129833,-0.51972 0.07019,-0.13952 0.100946,-0.27296 0.100946,-0.43797 0,-0.19417 0.01867,-0.256 0.102688,-0.34001 0.05648,-0.0565 0.152194,-0.11512 0.212701,-0.1303 0.105503,-0.0265 0.155711,-0.10347 0.06747,-0.10347 -0.0234,0 -0.04254,-0.0365 -0.04254,-0.0811 0,-0.0596 -0.0221,-0.0753 -0.08339,-0.0593 -0.122909,0.0322 -0.397843,-0.14906 -0.359464,-0.23691 0.01666,-0.0382 0.04597,-0.38492 0.06511,-0.77059 0.02732,-0.55022 0.0223,-0.74337 -0.0233,-0.89691 -0.04933,-0.16611 -0.04913,-0.23033 0.0013,-0.42475 0.03268,-0.12598 0.05942,-0.26317 0.05942,-0.30486 0,-0.0467 0.03173,-0.0758 0.08257,-0.0758 0.113446,0 0.149421,-0.0732 0.05128,-0.10437 -0.04405,-0.014 -0.111544,-0.0602 -0.149989,-0.10266 -0.06151,-0.068 -0.06559,-0.14564 -0.03399,-0.64719 0.02263,-0.35917 0.02036,-0.63122 -0.0061,-0.73563 -0.03307,-0.13027 -0.02758,-0.194 0.02566,-0.29826 0.03724,-0.0729 0.08013,-0.19525 0.0953,-0.27185 0.01518,-0.0766 0.07605,-0.19686 0.135273,-0.26725 l 0.10768,-0.12798 -0.09652,-0.0837 c -0.05309,-0.046 -0.119341,-0.0837 -0.147231,-0.0837 -0.02789,0 -0.08469,-0.0376 -0.126231,-0.0835 -0.06744,-0.0745 -0.07718,-0.20412 -0.09104,-1.21132 -0.0092,-0.66958 0.0013,-1.17213 0.02591,-1.23683 0.03218,-0.0846 0.0273,-0.11439 -0.02191,-0.13327 -0.05137,-0.0197 -0.06334,-0.12389 -0.06334,-0.5515 0,-0.29126 0.01746,-0.52721 0.03901,-0.52721 0.03331,0 -0.04874,-0.20037 -0.174209,-0.4254 -0.09522,-0.17079 -0.117362,-0.25872 -0.142953,-0.56767 -0.03033,-0.36615 -0.106988,-0.49584 -0.293092,-0.49584 -0.08632,0 -0.117781,-0.0387 -0.19143,-0.23556 -0.04848,-0.12957 -0.08814,-0.2538 -0.08814,-0.2761 0,-0.1028 0.632539,-0.32355 1.153832,-0.40267 0.08477,-0.0129 0.247479,-0.0726 0.361603,-0.13285 0.11411,-0.0602 0.274474,-0.12502 0.356361,-0.14404 0.08189,-0.019 0.282835,-0.0746 0.446545,-0.12361 0.32787,-0.0981 0.844243,-0.11932 1.014417,-0.0418 0.124075,0.0565 0.201285,0.208 0.168983,0.33152 -0.01288,0.0492 -0.0017,0.1759 0.02491,0.28147 0.04244,0.16855 0.03839,0.20609 -0.03325,0.30825 -0.06666,0.095 -0.07754,0.16497 -0.05948,0.3822 0.01216,0.14624 0.03895,0.26587 0.05953,0.26587 0.02059,0 0.03743,0.0939 0.03743,0.20872 v 0.20871 l -0.223344,0.0296 c -0.24608,0.0326 -0.499861,0.1345 -0.499861,0.20064 0,0.0256 0.06007,0.0312 0.151219,0.0141 0.129559,-0.0243 0.172424,-0.01 0.299267,0.10161 0.08143,0.0715 0.161732,0.1306 0.178469,0.13134 0.01674,7.4e-4 0.06614,0.0284 0.109793,0.0615 0.07706,0.0584 0.07668,0.0645 -0.01296,0.2095 -0.05078,0.0822 -0.183631,0.23158 -0.295231,0.33203 -0.17244,0.15524 -0.214501,0.22561 -0.280262,0.46894 -0.07305,0.2703 -0.09228,0.29762 -0.344415,0.48922 l -0.267045,0.20294 0.07923,0.12866 c 0.05701,0.0926 0.09366,0.28666 0.1307,0.69209 0.0506,0.55387 0.05335,0.5639 0.161989,0.59022 0.233362,0.0565 0.553016,0.22344 0.618053,0.32271 0.06145,0.0938 0.06171,0.11857 0.0027,0.25972 -0.05837,0.13969 -0.05843,0.16911 -5.78e-4,0.28098 0.03554,0.0687 0.06462,0.22433 0.06462,0.34578 0,0.19481 -0.01648,0.23623 -0.139896,0.35154 l -0.139896,0.13071 0.143453,0.21316 c 0.125586,0.18663 0.139771,0.23451 0.113899,0.38441 -0.01626,0.0942 -0.04178,0.66881 -0.05673,1.27697 l -0.02718,1.10573 -0.163227,0.10556 -0.163228,0.10557 0.166958,0.15574 0.166958,0.15573 0.02803,0.86904 c 0.02716,0.84204 0.02475,0.88019 -0.07728,1.22795 -0.05792,0.1974 -0.105714,0.46296 -0.106204,0.59014 -6.44e-4,0.16502 -0.02362,0.25639 -0.08026,0.31906 -0.04365,0.0483 -0.09103,0.15004 -0.105288,0.22608 -0.02143,0.11432 -0.01268,0.13826 0.05054,0.13826 0.04286,0 0.127784,0.0784 0.193262,0.17841 l 0.116803,0.1784 -0.02964,0.76813 -0.02964,0.76813 0.228812,0.0583 c 0.125845,0.032 0.343675,0.0736 0.484055,0.0925 0.140384,0.0188 0.551971,0.0739 0.914619,0.12249 0.362663,0.0486 0.859357,0.0883 1.103748,0.0883 l 0.444374,4e-5 0.172457,0.19546 0.172456,0.19547 0.45214,-0.17009 0.45214,-0.1701 0.526294,0.0619 c 0.289459,0.0341 0.631574,0.0573 0.760266,0.0516 0.28597,-0.0126 0.368548,-0.0119 1.59528,0.0141 0.538143,0.0114 1.102864,0.005 1.254949,-0.0139 0.152084,-0.019 0.621092,-0.0634 1.042249,-0.0987 0.421157,-0.0353 0.880596,-0.0748 1.020977,-0.0878 0.844259,-0.078 0.746406,-0.087 0.948559,0.0872 0.100558,0.0867 0.194259,0.14617 0.208215,0.1322 0.01397,-0.014 0.03458,-0.12099 0.04581,-0.23784 0.02235,-0.23261 0.0072,-0.22145 0.408632,-0.3011 0.137456,-0.0273 0.354689,-0.0856 0.482737,-0.12969 0.390399,-0.13432 0.858457,-0.21529 1.065241,-0.18428 l 0.190062,0.0285 -0.02121,0.18818 c -0.01167,0.1035 -0.04872,0.21108 -0.08233,0.23904 -0.03361,0.028 -0.09661,0.10828 -0.139986,0.17848 -0.265245,0.4292 -0.974366,1.04225 -1.205589,1.04225 -0.06777,0 -0.173743,0.0397 -0.235468,0.0883 l -0.112241,0.0883 -0.446995,-0.21352 -0.446995,-0.21352 -0.754639,0.20705 -0.754622,0.20708 -0.53176,-0.0287 c -0.292466,-0.0157 -0.818904,-0.0155 -1.169863,6.5e-4 -0.857845,0.0393 -1.527413,0.0505 -2.318501,0.0388 -0.711517,-0.0105 -0.869696,-0.049 -1.181857,-0.28706 l -0.144299,-0.11006 -0.597344,0.15982 c -0.554511,0.14836 -0.625175,0.15787 -0.985379,0.13259 -1.653982,-0.11606 -1.777786,-0.1187 -1.83615,-0.0392 -0.05302,0.0723 -0.07304,0.0711 -0.431078,-0.025 -0.448522,-0.12046 -0.441512,-0.12036 -0.737081,-0.0103 -0.190207,0.0708 -0.337404,0.0875 -0.787004,0.089 -0.362985,0.001 -0.62479,0.0236 -0.761858,0.0652 -0.245758,0.0745 -0.514733,0.0738 -0.982308,-0.003 z m 8.508193,-2.74105 c -1.174654,-0.26712 -2.286988,-0.97484 -3.13062,-1.99195 -0.736631,-0.888 -1.033872,-1.84499 -1.033116,-3.32629 7.07e-4,-1.39583 0.272464,-2.19116 1.150954,-3.36842 1.3679,-1.8331 3.396557,-3.64738 5.299915,-4.74023 0.559881,-0.32143 0.731148,-0.38684 0.819981,-0.31311 0.102963,0.0855 0.07229,0.22576 -0.145353,0.6648 -0.316101,0.63765 -0.406011,0.94569 -0.407812,1.39706 -0.0014,0.36548 0.0059,0.39625 0.161411,0.67767 0.256112,0.46341 0.501918,0.75697 1.302766,1.55588 0.904585,0.90238 1.298731,1.37679 1.839045,2.21351 0.505648,0.78306 0.663425,1.16738 0.712738,1.73614 0.04024,0.46402 -0.0034,1.06575 -0.106124,1.46207 -0.09926,0.38308 -0.424469,1.1378 -0.623953,1.44802 -0.218216,0.33933 -1.007343,1.12648 -1.495209,1.49148 -0.684585,0.51214 -1.559458,0.89312 -2.515301,1.09535 -0.507289,0.10732 -1.35203,0.10629 -1.829237,-0.002 z m 0.828969,-3.26182 c -0.364625,-0.24353 -0.768257,-0.67874 -0.920664,-0.99271 -0.219003,-0.45116 -0.289427,-0.85463 -0.289603,-1.65912 -1.28e-4,-0.57548 0.01781,-0.78622 0.09963,-1.16987 0.117821,-0.55251 0.298013,-1.12156 0.450323,-1.42213 0.09393,-0.18537 0.126839,-0.21569 0.234085,-0.21569 0.177554,0 0.210852,0.0926 0.183744,0.51094 -0.02581,0.3984 0.009,0.50775 0.279924,0.87942 0.213039,0.29226 0.454391,0.40513 0.947997,0.44336 0.568467,0.044 0.830256,0.12633 1.068232,0.3358 0.261659,0.23032 0.343643,0.45135 0.322516,0.86952 -0.01161,0.22979 -0.0018,0.32166 0.03449,0.32166 0.10373,0 0.305425,-0.26002 0.419131,-0.54031 0.165768,-0.40868 0.195642,-1.1347 0.06998,-1.70142 -0.141456,-0.63802 -0.312371,-0.9383 -1.082348,-1.90159 -0.408086,-0.51053 -0.824918,-1.19094 -0.924105,-1.50839 -0.04774,-0.15281 -0.08447,-0.39017 -0.08447,-0.54594 0,-0.15429 -0.01765,-0.26934 -0.04012,-0.2614 -0.08981,0.0317 -0.767212,0.65067 -1.024466,0.93603 -1.114955,1.23677 -1.589428,2.01961 -1.81348,2.99187 -0.106092,0.46039 -0.117567,0.58774 -0.116895,1.29749 7.08e-4,0.75184 0.0069,0.80982 0.138081,1.29749 0.07554,0.28076 0.221078,0.68316 0.323449,0.8942 0.316053,0.65166 0.85061,1.09495 1.487427,1.23352 0.460082,0.1001 0.501629,0.0839 0.237188,-0.0928 z"
       id="path4530"
       inkscape:connector-curvature="0"
       style="fill:#fdfd64;stroke-width:0.04254017" />
    <path
       d="m 56.016674,162.94229 c -0.05934,-0.0847 -0.06622,-0.88548 -0.06622,-7.7017 0,-8.3011 0.01272,-7.84753 -0.239793,-8.54759 -0.450934,-1.25009 -1.546852,-2.00416 -3.234326,-2.2254 -0.4136,-0.0542 -1.460109,-0.064 -6.982355,-0.0651 -5.334001,-0.001 -6.50917,-0.0115 -6.570428,-0.0579 -0.0671,-0.0509 -0.07445,-0.15292 -0.07445,-1.03331 0,-1.09391 0.02652,-1.24139 0.275583,-1.53238 0.167167,-0.1953 0.540458,-0.40312 0.873007,-0.48603 0.19389,-0.0483 1.552866,-0.0583 7.933875,-0.0583 7.29299,0 7.723408,0.004 8.146591,0.0785 0.904681,0.15889 1.630829,0.45629 2.246309,0.92005 0.74922,0.56456 1.213628,1.30163 1.455334,2.30982 0.08221,0.3429 0.08396,0.53777 0.08425,9.37096 1.61e-4,6.95969 -0.01137,9.03235 -0.05075,9.07174 -0.03813,0.0381 -0.516566,0.0511 -1.890656,0.0511 h -1.839527 z m 3.464729,-9.03444 c 0,-8.61977 -8.04e-4,-8.70772 -0.08763,-9.13557 -0.353773,-1.74434 -1.537945,-2.76998 -3.541906,-3.06743 -0.388132,-0.0576 -1.388544,-0.0659 -7.938697,-0.0659 -6.651463,0 -7.527574,0.007 -7.787722,0.0667 -0.340813,0.0775 -0.58461,0.23695 -0.754478,0.4934 -0.116774,0.17628 -0.117922,0.18487 -0.131021,0.97877 l -0.01321,0.80091 6.330539,7.4e-4 c 3.845464,4.5e-4 6.489071,0.0172 6.734588,0.0426 2.03311,0.21066 3.325008,1.09647 3.851735,2.64104 0.24079,0.70603 0.232204,0.39231 0.232204,8.48809 v 7.46037 h 3.105538 z m -20.270007,8.97785 c -0.671755,-0.10995 -1.042249,-0.19968 -1.042249,-0.25242 0,-0.11374 0.338032,-0.4305 0.585783,-0.54891 0.202701,-0.0969 0.261644,-0.14727 0.28007,-0.23938 0.02633,-0.13166 0.971134,-1.04992 1.166582,-1.1338 0.137422,-0.059 0.112065,-0.0708 -0.309541,-0.14444 -0.508189,-0.0887 -0.508703,-0.0814 0.02643,-0.37623 0.266226,-0.14668 0.497401,-0.27935 0.51372,-0.29481 0.01632,-0.0155 -0.200047,-0.16214 -0.480791,-0.32591 l -0.510457,-0.29779 0.02889,-0.31906 c 0.01837,-0.20288 0.06565,-0.39212 0.129833,-0.51972 0.07019,-0.13952 0.100946,-0.27296 0.100946,-0.43797 0,-0.19416 0.01867,-0.256 0.102688,-0.34001 0.05648,-0.0565 0.152194,-0.11511 0.212701,-0.1303 0.105503,-0.0265 0.155711,-0.10347 0.06747,-0.10347 -0.0234,0 -0.04254,-0.0365 -0.04254,-0.0811 0,-0.0596 -0.0221,-0.0753 -0.08339,-0.0593 -0.122909,0.0321 -0.397843,-0.14906 -0.359464,-0.23692 0.01666,-0.0382 0.04597,-0.38492 0.06511,-0.77059 0.02732,-0.55022 0.0223,-0.74337 -0.0233,-0.89691 -0.04933,-0.16611 -0.04913,-0.23033 0.0013,-0.42475 0.03268,-0.12597 0.05942,-0.26317 0.05942,-0.30486 0,-0.0467 0.03173,-0.0758 0.08257,-0.0758 0.113446,0 0.149422,-0.0732 0.05128,-0.10437 -0.04405,-0.014 -0.111544,-0.0602 -0.149989,-0.10266 -0.06151,-0.068 -0.06559,-0.14564 -0.03398,-0.64719 0.02263,-0.35917 0.02036,-0.63122 -0.0061,-0.73563 -0.03307,-0.13027 -0.02758,-0.194 0.02566,-0.29826 0.03724,-0.0729 0.08013,-0.19525 0.0953,-0.27185 0.01518,-0.0766 0.07605,-0.19686 0.135273,-0.26725 l 0.10768,-0.12797 -0.09652,-0.0837 c -0.05309,-0.046 -0.119341,-0.0837 -0.147231,-0.0837 -0.02789,0 -0.08469,-0.0375 -0.126231,-0.0834 -0.06744,-0.0745 -0.07718,-0.20412 -0.09104,-1.21132 -0.0092,-0.66958 0.0013,-1.17213 0.02591,-1.23682 0.03218,-0.0847 0.0273,-0.1144 -0.02191,-0.13328 -0.05137,-0.0197 -0.06334,-0.12388 -0.06334,-0.5515 0,-0.29126 0.01746,-0.52721 0.03901,-0.52721 0.03331,0 -0.04874,-0.20037 -0.174209,-0.4254 -0.09522,-0.17079 -0.117362,-0.25872 -0.142953,-0.56767 -0.03033,-0.36615 -0.106988,-0.49584 -0.293092,-0.49584 -0.08632,0 -0.117781,-0.0387 -0.191429,-0.23556 -0.04848,-0.12956 -0.08814,-0.2538 -0.08814,-0.2761 0,-0.1028 0.632539,-0.32354 1.153833,-0.40267 0.08477,-0.0129 0.247478,-0.0727 0.361602,-0.13285 0.11411,-0.0602 0.274474,-0.12502 0.356361,-0.14404 0.08189,-0.019 0.282835,-0.0746 0.446545,-0.12361 0.32787,-0.0981 0.844243,-0.11932 1.014417,-0.0418 0.124075,0.0565 0.201285,0.20801 0.168984,0.33152 -0.01288,0.0493 -0.0017,0.1759 0.02491,0.28147 0.04244,0.16855 0.03839,0.20609 -0.03325,0.30825 -0.06666,0.095 -0.07754,0.16497 -0.05948,0.3822 0.01216,0.14624 0.03894,0.26587 0.05953,0.26587 0.02059,0 0.03743,0.0939 0.03743,0.20872 v 0.20871 l -0.223344,0.0296 c -0.24608,0.0326 -0.499861,0.13451 -0.499861,0.20064 0,0.0256 0.06007,0.0312 0.151219,0.0141 0.129559,-0.0243 0.172424,-0.01 0.299267,0.10161 0.08143,0.0715 0.161732,0.1306 0.17847,0.13134 0.01673,7.4e-4 0.06614,0.0284 0.109792,0.0615 0.07706,0.0584 0.07668,0.0645 -0.01296,0.2095 -0.05078,0.0822 -0.183632,0.23158 -0.295232,0.33203 -0.17244,0.15524 -0.214501,0.22562 -0.280262,0.46895 -0.07305,0.27029 -0.09228,0.29761 -0.344415,0.48921 l -0.267045,0.20294 0.07923,0.12866 c 0.05701,0.0926 0.09366,0.28666 0.1307,0.69209 0.05059,0.55387 0.05335,0.5639 0.161989,0.59022 0.233362,0.0566 0.553016,0.22345 0.618053,0.32271 0.06145,0.0938 0.06171,0.11857 0.0027,0.25972 -0.05837,0.13969 -0.05843,0.16911 -5.78e-4,0.28098 0.03554,0.0687 0.06462,0.22433 0.06462,0.34578 0,0.19481 -0.01648,0.23623 -0.139896,0.35154 l -0.139896,0.13071 0.143453,0.21317 c 0.125586,0.18662 0.139771,0.2345 0.113899,0.3844 -0.01626,0.0942 -0.04178,0.66881 -0.05673,1.27697 l -0.02718,1.10573 -0.163227,0.10557 -0.163228,0.10556 0.166958,0.15574 0.166958,0.15574 0.02803,0.86903 c 0.02716,0.84204 0.02475,0.8802 -0.07728,1.22795 -0.05792,0.1974 -0.105714,0.46297 -0.106204,0.59015 -6.44e-4,0.16501 -0.02362,0.25638 -0.08026,0.31905 -0.04365,0.0483 -0.09103,0.15004 -0.105288,0.22608 -0.02143,0.11432 -0.01268,0.13826 0.05054,0.13826 0.04286,0 0.127784,0.0784 0.193262,0.17841 l 0.116803,0.1784 -0.02964,0.76813 -0.02964,0.76813 0.228812,0.0583 c 0.125845,0.032 0.343675,0.0736 0.484055,0.0925 0.140384,0.0188 0.551971,0.0739 0.914619,0.12249 0.362663,0.0486 0.859357,0.0883 1.103748,0.0883 l 0.444374,4e-5 0.172457,0.19546 0.172456,0.19547 0.45214,-0.17009 0.45214,-0.1701 0.526294,0.0619 c 0.289459,0.0341 0.631574,0.0573 0.760266,0.0516 0.28597,-0.0126 0.368548,-0.0119 1.59528,0.014 0.538143,0.0114 1.102864,0.005 1.254949,-0.0139 0.152084,-0.019 0.621092,-0.0634 1.042249,-0.0987 0.421157,-0.0353 0.880596,-0.0748 1.020977,-0.0878 0.844259,-0.078 0.746406,-0.087 0.948559,0.0872 0.100558,0.0867 0.194259,0.14617 0.208215,0.13221 0.01397,-0.014 0.03458,-0.121 0.04581,-0.23785 0.02235,-0.23261 0.0072,-0.22145 0.408632,-0.3011 0.137456,-0.0273 0.354689,-0.0856 0.482737,-0.12969 0.390399,-0.13432 0.858457,-0.21529 1.065241,-0.18427 l 0.190062,0.0285 -0.02121,0.18818 c -0.01167,0.1035 -0.04872,0.21108 -0.08233,0.23904 -0.03361,0.028 -0.09661,0.10829 -0.139986,0.17848 -0.265245,0.4292 -0.974366,1.04225 -1.205589,1.04225 -0.06777,0 -0.173743,0.0397 -0.235468,0.0883 l -0.112241,0.0883 -0.446995,-0.21352 -0.446995,-0.21352 -0.754638,0.20706 -0.754623,0.20707 -0.53176,-0.0287 c -0.292466,-0.0157 -0.818904,-0.0155 -1.169863,6.5e-4 -0.857845,0.0393 -1.527413,0.0506 -2.318501,0.0388 -0.711517,-0.0105 -0.869696,-0.049 -1.181857,-0.28706 l -0.144299,-0.11006 -0.597344,0.15982 c -0.554511,0.14836 -0.625175,0.15787 -0.985379,0.13259 -1.653982,-0.11606 -1.777786,-0.1187 -1.83615,-0.0392 -0.05302,0.0723 -0.07304,0.0711 -0.431078,-0.025 -0.448522,-0.12046 -0.441512,-0.12036 -0.737081,-0.0103 -0.190207,0.0708 -0.337404,0.0875 -0.787004,0.089 -0.362985,0.001 -0.624789,0.0236 -0.761858,0.0652 -0.245758,0.0745 -0.514733,0.0738 -0.982308,-0.003 z m 8.508193,-2.74104 c -1.174654,-0.26713 -2.286988,-0.97485 -3.13062,-1.99195 -0.736631,-0.88801 -1.033872,-1.845 -1.033116,-3.3263 7.07e-4,-1.39583 0.272464,-2.19116 1.150954,-3.36842 1.3679,-1.83309 3.396557,-3.64738 5.299915,-4.74022 0.559881,-0.32144 0.731148,-0.38685 0.819981,-0.31312 0.102963,0.0855 0.07229,0.22576 -0.145353,0.6648 -0.316101,0.63765 -0.406011,0.9457 -0.407812,1.39706 -0.0014,0.36548 0.0059,0.39626 0.161411,0.67767 0.256112,0.46342 0.501918,0.75697 1.302766,1.55588 0.904585,0.90238 1.298731,1.37679 1.839045,2.21351 0.505648,0.78306 0.663425,1.16738 0.712738,1.73614 0.04024,0.46402 -0.0034,1.06576 -0.106124,1.46207 -0.09926,0.38308 -0.424469,1.1378 -0.623953,1.44802 -0.218216,0.33933 -1.007343,1.12648 -1.495209,1.49148 -0.684585,0.51214 -1.559458,0.89312 -2.515301,1.09535 -0.507289,0.10732 -1.35203,0.10629 -1.829237,-0.002 z m 1.829237,-0.42711 c 0.5457,-0.12032 1.106305,-0.31483 1.52886,-0.53044 0.735248,-0.37518 1.750292,-1.25503 2.140836,-1.85577 0.204919,-0.3152 0.486885,-0.99773 0.590398,-1.42906 0.07175,-0.29899 0.09794,-1.20417 0.04376,-1.5122 -0.0522,-0.29679 -0.231239,-0.66152 -0.59736,-1.21683 -0.530763,-0.80508 -0.974912,-1.33682 -1.816856,-2.17508 -0.807006,-0.80358 -1.177806,-1.26376 -1.430847,-1.7757 -0.154664,-0.31295 -0.161041,-0.34308 -0.161041,-0.76155 0,-0.29197 -0.0123,-0.40497 -0.03728,-0.34254 -0.07053,0.1763 -0.04404,0.7171 0.04651,0.94946 0.11493,0.29495 0.488027,0.86044 1.001635,1.51821 0.686386,0.87902 0.914634,1.33276 1.029514,2.04677 0.121787,0.75683 0.08087,1.23503 -0.153958,1.79917 -0.184307,0.44272 -0.499459,0.77767 -0.731727,0.77767 -0.173438,0 -0.360349,-0.08 -0.455886,-0.1952 -0.04389,-0.0529 -0.06071,-0.19413 -0.06071,-0.5097 0,-0.40647 -0.0073,-0.44445 -0.106352,-0.55194 -0.162681,-0.17655 -0.357245,-0.23754 -0.870194,-0.27275 -0.377199,-0.0259 -0.511887,-0.0536 -0.682591,-0.14045 -0.263927,-0.13428 -0.492786,-0.36046 -0.693637,-0.68552 l -0.154348,-0.24979 -0.05419,0.20725 c -0.146457,0.56014 -0.193616,1.01006 -0.170833,1.62971 0.03285,0.89334 0.180351,1.3076 0.623342,1.75061 0.511341,0.51134 1.007118,0.7096 1.642085,0.6567 0.290423,-0.0242 0.353724,-0.0178 0.402345,0.0408 0.08968,0.10807 0.0073,0.28848 -0.148891,0.32627 -0.855096,0.20686 -1.734213,0.26423 -2.190035,0.14292 -1.130599,-0.30085 -1.900142,-1.44483 -2.132636,-3.16985 -0.08481,-0.62961 0.0031,-1.58778 0.217203,-2.36834 0.306052,-1.11555 1.692571,-2.92192 2.993954,-3.90078 0.451497,-0.33957 0.559319,-0.39043 0.695937,-0.32817 0.05938,0.0271 0.111604,0.0437 0.11606,0.037 0.04387,-0.0662 0.189773,-0.47692 0.174772,-0.49193 -0.03505,-0.0351 -0.879745,0.50999 -1.426651,0.92055 -2.058353,1.54526 -4.035189,3.77102 -4.470109,5.03333 -0.230291,0.66833 -0.269152,0.92551 -0.268831,1.77891 2.57e-4,0.65381 0.01643,0.86205 0.09555,1.23038 0.112436,0.5234 0.283992,0.98635 0.501694,1.3538 0.205369,0.34665 0.785621,0.96567 1.221249,1.30283 0.735022,0.56892 1.242762,0.8022 2.21769,1.01892 0.254183,0.0565 1.170489,0.0221 1.531465,-0.0575 z m -1.000268,-2.83478 c -0.364625,-0.24354 -0.768257,-0.67875 -0.920664,-0.99271 -0.219003,-0.45116 -0.289427,-0.85463 -0.289603,-1.65913 -1.28e-4,-0.57547 0.01781,-0.78621 0.09963,-1.16986 0.117821,-0.55252 0.298013,-1.12156 0.450323,-1.42213 0.09393,-0.18537 0.126839,-0.21569 0.234085,-0.21569 0.177554,0 0.210852,0.0926 0.183744,0.51093 -0.02581,0.39841 0.009,0.50776 0.279924,0.87943 0.213039,0.29225 0.454391,0.40512 0.947997,0.44336 0.568467,0.044 0.830256,0.12633 1.068232,0.3358 0.261659,0.23032 0.343643,0.45135 0.322516,0.86951 -0.01161,0.2298 -0.0018,0.32167 0.03449,0.32167 0.10373,0 0.305425,-0.26002 0.419131,-0.54032 0.165768,-0.40868 0.195642,-1.13469 0.06998,-1.70141 -0.141456,-0.63802 -0.312371,-0.9383 -1.082348,-1.90159 -0.408086,-0.51054 -0.824917,-1.19094 -0.924105,-1.50839 -0.04774,-0.15282 -0.08446,-0.39018 -0.08446,-0.54594 0,-0.1543 -0.01766,-0.26935 -0.04012,-0.2614 -0.08981,0.0317 -0.767212,0.65067 -1.024466,0.93603 -1.114955,1.23676 -1.589428,2.0196 -1.81348,2.99186 -0.106092,0.46039 -0.117567,0.58775 -0.116895,1.2975 7.08e-4,0.75184 0.0069,0.80982 0.138081,1.29749 0.07554,0.28076 0.221078,0.68315 0.323449,0.8942 0.316053,0.65165 0.850611,1.09495 1.487427,1.23352 0.460082,0.1001 0.501629,0.0838 0.237188,-0.0928 z"
       id="path4532"
       inkscape:connector-curvature="0"
       style="fill:#c2c2c2;stroke-width:0.04254017" />
    <path
       d="m 56.066517,162.98249 c -0.06641,-0.0494 -0.07226,-0.59886 -0.08258,-7.75299 l -0.01109,-7.69994 -0.117142,-0.42505 c -0.142844,-0.5183 -0.338916,-0.93791 -0.596492,-1.27659 -0.490985,-0.64556 -1.355873,-1.1159 -2.425101,-1.31883 -0.702802,-0.13338 -1.488922,-0.14862 -7.672119,-0.14872 -5.342522,-9e-5 -6.223456,-0.009 -6.266868,-0.061 -0.0368,-0.0443 -0.0469,-0.33673 -0.03712,-1.07415 0.01547,-1.1662 0.02622,-1.20633 0.417523,-1.55812 0.25391,-0.22828 0.539365,-0.34554 0.99575,-0.40902 0.224904,-0.0313 2.643285,-0.0454 7.632565,-0.0445 8.249011,0.001 8.016839,-0.007 9.037655,0.32005 0.483541,0.1548 0.768771,0.29011 1.15491,0.54787 0.816942,0.54535 1.31021,1.22891 1.629061,2.25757 l 0.118676,0.38286 0.01113,9.07849 c 0.01032,8.42234 0.006,9.08428 -0.05977,9.15696 -0.06672,0.0737 -0.176444,0.0783 -1.864127,0.0783 -1.368125,0 -1.810264,-0.0126 -1.86477,-0.0532 z m 3.416011,-9.07576 c 0,-8.61978 -8.04e-4,-8.70773 -0.08763,-9.13557 -0.353772,-1.74435 -1.537945,-2.76999 -3.541905,-3.06744 -0.388132,-0.0576 -1.388545,-0.0659 -7.938698,-0.0659 -6.651463,0 -7.527573,0.008 -7.787722,0.0667 -0.340813,0.0775 -0.584609,0.23694 -0.754477,0.49339 -0.116774,0.17629 -0.117922,0.18487 -0.131021,0.97878 l -0.01321,0.80091 6.330539,7.4e-4 c 3.845465,4.5e-4 6.489071,0.0172 6.734588,0.0426 2.033111,0.21066 3.325008,1.09646 3.851736,2.64103 0.240789,0.70604 0.232204,0.39231 0.232204,8.4881 v 7.46036 h 3.105538 z m -20.101184,8.99601 c -0.401477,-0.0656 -1.145343,-0.21389 -1.180346,-0.23531 -0.05172,-0.0316 0.08205,-0.25092 0.227992,-0.37372 0.07452,-0.0627 0.247494,-0.17055 0.384401,-0.23965 0.195948,-0.0989 0.24891,-0.14666 0.24891,-0.22441 0,-0.11908 0.934427,-1.01609 1.156469,-1.11014 0.169595,-0.0719 0.151294,-0.0802 -0.386235,-0.17608 l -0.399628,-0.0713 0.250743,-0.14319 c 0.137904,-0.0787 0.370317,-0.20548 0.516453,-0.28159 0.146148,-0.0761 0.265792,-0.14846 0.265872,-0.16074 8.5e-5,-0.0123 -0.220402,-0.15356 -0.489988,-0.31397 -0.269587,-0.16042 -0.497948,-0.30429 -0.507482,-0.31971 -0.03965,-0.0642 0.07177,-0.70711 0.148657,-0.85783 0.04605,-0.0903 0.08323,-0.2485 0.08323,-0.35427 0,-0.10512 0.02078,-0.23672 0.04617,-0.29245 0.05115,-0.11226 0.245099,-0.24301 0.360493,-0.24301 0.06946,0 0.06973,-0.005 0.0041,-0.0778 -0.03872,-0.0428 -0.0704,-0.10151 -0.0704,-0.13049 0,-0.0333 -0.03126,-0.0428 -0.08511,-0.0257 -0.05413,0.0172 -0.132911,-0.007 -0.216399,-0.0665 -0.111941,-0.0797 -0.127748,-0.11305 -0.107248,-0.22623 0.05768,-0.31841 0.06665,-1.45408 0.01291,-1.63324 -0.04583,-0.15279 -0.04405,-0.22569 0.01114,-0.45709 0.04773,-0.20014 0.08474,-0.27536 0.135554,-0.27552 0.115203,-3.2e-4 0.132634,-0.12573 0.02326,-0.16731 -0.196768,-0.0748 -0.217702,-0.14408 -0.158917,-0.52586 0.05207,-0.33819 0.04376,-0.78126 -0.01907,-1.01702 -0.02237,-0.0839 -0.0065,-0.14845 0.05903,-0.24055 0.04928,-0.0692 0.08961,-0.18363 0.08961,-0.25426 0,-0.0881 0.04332,-0.17174 0.138052,-0.26647 0.08738,-0.0874 0.11861,-0.14453 0.08508,-0.15571 -0.02913,-0.01 -0.05297,-0.0448 -0.05297,-0.0779 0,-0.0379 -0.04497,-0.0603 -0.121029,-0.0603 -0.251964,0 -0.262029,-0.0457 -0.280455,-1.2766 -0.01,-0.66777 -3.9e-5,-1.16294 0.02471,-1.22804 0.03209,-0.0844 0.02647,-0.12005 -0.02485,-0.15758 -0.05344,-0.0391 -0.06632,-0.14395 -0.06632,-0.54012 0,-0.34358 0.01532,-0.49672 0.05087,-0.50857 0.03505,-0.0117 0.02182,-0.064 -0.04254,-0.1681 -0.05138,-0.0831 -0.09341,-0.17458 -0.09341,-0.20322 0,-0.0286 -0.03829,-0.10075 -0.08508,-0.16024 -0.05907,-0.0751 -0.08565,-0.17471 -0.08693,-0.32576 -0.0025,-0.29895 -0.06209,-0.5822 -0.131641,-0.62627 -0.03187,-0.0202 -0.108828,-0.037 -0.171025,-0.0374 -0.100458,-5.8e-4 -0.122982,-0.03 -0.201768,-0.26329 -0.04878,-0.14444 -0.08404,-0.26653 -0.07835,-0.27129 0.128016,-0.10716 0.684778,-0.29973 0.988772,-0.34197 0.254231,-0.0353 0.523833,-0.12536 0.614724,-0.20527 0.03626,-0.0319 0.152068,-0.0781 0.257351,-0.10283 0.105287,-0.0247 0.325442,-0.0852 0.489216,-0.13456 0.218168,-0.0657 0.384788,-0.0862 0.623134,-0.0767 0.411011,0.0164 0.504185,0.0849 0.504185,0.37055 0,0.10767 0.0189,0.26166 0.042,0.3422 0.03613,0.12598 0.02902,0.16027 -0.05092,0.24536 -0.08948,0.0952 -0.09103,0.11194 -0.042,0.45104 0.028,0.19368 0.05092,0.41185 0.05092,0.48481 0,0.13173 -0.0019,0.13287 -0.273444,0.16195 -0.215515,0.0231 -0.294379,0.052 -0.372231,0.13667 l -0.09878,0.10739 0.201269,-0.0216 c 0.145367,-0.0156 0.215578,-0.004 0.2528,0.0405 0.02834,0.0341 0.134341,0.11907 0.235564,0.1887 l 0.184033,0.12662 -0.139044,0.19475 c -0.07647,0.10712 -0.208906,0.2512 -0.294298,0.32017 -0.127277,0.10281 -0.168888,0.17793 -0.230838,0.4168 -0.07269,0.28027 -0.08592,0.299 -0.346135,0.49006 l -0.270551,0.19864 0.07995,0.1355 c 0.04952,0.0839 0.09093,0.26433 0.108806,0.47407 0.07275,0.85349 0.06252,0.81551 0.226898,0.84219 0.23066,0.0374 0.519894,0.1959 0.584063,0.32 0.05121,0.099 0.04889,0.13133 -0.0188,0.26153 -0.06958,0.13384 -0.07077,0.15574 -0.01201,0.22126 0.07555,0.0842 0.120892,0.40336 0.0803,0.56511 -0.01582,0.063 -0.09008,0.14782 -0.171573,0.1959 l -0.143687,0.0848 0.09863,0.10643 c 0.05425,0.0585 0.131428,0.17554 0.171508,0.26002 0.06238,0.13146 0.06576,0.1848 0.02343,0.37022 -0.02792,0.12228 -0.05457,0.66001 -0.06121,1.23477 l -0.01175,1.01814 -0.158208,0.10013 c -0.173132,0.10957 -0.170286,0.134 0.0368,0.31581 l 0.134917,0.11846 0.0073,0.65024 c 0.004,0.35764 0.01857,0.73033 0.03241,0.82822 0.01747,0.12362 -0.0078,0.29899 -0.08277,0.5743 -0.05936,0.21798 -0.117594,0.50838 -0.129408,0.64532 -0.01182,0.13695 -0.04924,0.28052 -0.08318,0.31906 -0.03393,0.0385 -0.07492,0.13227 -0.09108,0.20831 -0.02566,0.12074 -0.01828,0.13826 0.05821,0.13826 0.05992,0 0.117352,0.0571 0.181782,0.1808 0.0886,0.17008 0.09346,0.22619 0.08209,0.94654 l -0.01209,0.76573 0.269731,0.0719 c 0.148355,0.0395 0.355879,0.0827 0.461176,0.0958 0.105288,0.0131 0.478589,0.0621 0.829548,0.10884 0.350959,0.0467 0.858263,0.0861 1.127335,0.0876 l 0.489217,0.003 0.148892,0.18627 c 0.08189,0.10244 0.170624,0.18742 0.197185,0.18885 0.02656,0.001 0.235002,-0.068 0.463202,-0.15429 l 0.414903,-0.15687 0.536503,0.0513 c 0.633343,0.0606 3.298639,0.0933 3.727128,0.0458 0.336134,-0.0373 1.090548,-0.10821 1.786629,-0.16796 0.257366,-0.0221 0.539687,-0.052 0.627362,-0.0664 0.223425,-0.0368 0.33361,6.4e-4 0.511855,0.17376 0.146252,0.14204 0.157319,0.1458 0.199115,0.0677 0.02434,-0.0455 0.04425,-0.15915 0.04425,-0.25262 v -0.16995 l 0.244617,-0.0477 c 0.134536,-0.0263 0.436045,-0.10662 0.670018,-0.17857 0.294732,-0.0906 0.548208,-0.13734 0.825206,-0.15205 l 0.399789,-0.0212 -0.02732,0.17088 c -0.04804,0.30045 -0.558273,0.95045 -0.96615,1.23083 -0.106635,0.0733 -0.219051,0.1636 -0.249825,0.20067 -0.03189,0.0384 -0.12109,0.0674 -0.207508,0.0674 -0.09441,0 -0.186702,0.033 -0.244697,0.0875 l -0.09312,0.0875 -0.443281,-0.22045 -0.443265,-0.22045 -0.797937,0.22046 -0.797938,0.22047 -0.306406,-0.0515 c -0.246095,-0.0414 -0.553337,-0.0389 -1.561178,0.0124 -0.783435,0.0399 -1.366645,0.0507 -1.55256,0.0287 -0.163774,-0.0194 -0.483203,-0.0237 -0.709828,-0.01 -0.40056,0.025 -0.419517,0.022 -0.680646,-0.1078 -0.147734,-0.0734 -0.318609,-0.16535 -0.379707,-0.20427 -0.106308,-0.0677 -0.137265,-0.0638 -0.717883,0.0916 l -0.606782,0.16234 -0.537066,-0.0488 c -0.295392,-0.0268 -0.671063,-0.0497 -0.834853,-0.051 -0.163775,-0.001 -0.393502,-0.0185 -0.510489,-0.0384 -0.188181,-0.032 -0.220579,-0.0262 -0.281001,0.0508 -0.06367,0.0811 -0.08389,0.0835 -0.297788,0.0349 -0.126214,-0.0286 -0.310345,-0.0815 -0.409195,-0.11743 -0.161635,-0.0588 -0.193728,-0.0588 -0.319059,-3e-5 -0.273959,0.12848 -0.514411,0.16435 -1.027713,0.15335 -0.326697,-0.007 -0.548257,0.007 -0.604998,0.0376 -0.130106,0.0707 -0.593838,0.0951 -0.888909,0.0469 z m 8.401755,-2.75841 c -1.200798,-0.25809 -2.241326,-0.90826 -3.167118,-1.97908 -0.287514,-0.33254 -0.3699,-0.45452 -0.547855,-0.81117 -0.629484,-1.26154 -0.691418,-3.23465 -0.1435,-4.57076 0.398712,-0.97218 1.543975,-2.41337 2.901182,-3.65076 1.266092,-1.15431 2.280557,-1.91043 3.371475,-2.51289 0.7188,-0.39701 0.829049,-0.2852 0.461996,0.46849 -0.453057,0.9303 -0.525843,1.55456 -0.240484,2.0627 0.207571,0.36967 0.623342,0.88321 1.046621,1.29273 1.021524,0.98832 1.627454,1.70608 2.154664,2.55244 0.597134,0.95852 0.650531,1.12808 0.649582,2.06318 -8.04e-4,0.81395 -0.0448,1.03244 -0.360638,1.79129 -0.231898,0.5572 -0.495761,0.94142 -0.976761,1.42238 -1.073907,1.07377 -2.024589,1.58381 -3.524862,1.89129 -0.422637,0.0866 -1.171471,0.0774 -1.624399,-0.0199 z m 1.765405,-0.42795 c 0.5457,-0.12033 1.106305,-0.31483 1.528861,-0.53045 0.735248,-0.37517 1.750292,-1.25503 2.140836,-1.85576 0.204918,-0.3152 0.486885,-0.99773 0.590397,-1.42906 0.07175,-0.299 0.09794,-1.20418 0.04376,-1.51221 -0.0522,-0.29679 -0.231239,-0.66151 -0.597359,-1.21682 -0.530764,-0.80508 -0.974913,-1.33683 -1.816857,-2.17509 -0.807006,-0.80358 -1.177805,-1.26376 -1.430847,-1.77569 -0.154664,-0.31295 -0.161041,-0.34308 -0.161041,-0.76156 0,-0.29196 -0.0123,-0.40496 -0.03727,-0.34253 -0.07053,0.1763 -0.04404,0.7171 0.04651,0.94946 0.114929,0.29494 0.488027,0.86044 1.001634,1.5182 0.686386,0.87902 0.914635,1.33277 1.029515,2.04678 0.121787,0.75682 0.08086,1.23503 -0.153959,1.79917 -0.184306,0.44272 -0.499459,0.77766 -0.731727,0.77766 -0.173437,0 -0.360348,-0.08 -0.455886,-0.19519 -0.04389,-0.0529 -0.06071,-0.19413 -0.06071,-0.5097 0,-0.40648 -0.0073,-0.44445 -0.106352,-0.55194 -0.162681,-0.17656 -0.357245,-0.23754 -0.870193,-0.27275 -0.377199,-0.0259 -0.511888,-0.0536 -0.682592,-0.14045 -0.263926,-0.13429 -0.492786,-0.36046 -0.693637,-0.68552 l -0.154347,-0.24979 -0.05419,0.20725 c -0.146456,0.56014 -0.193616,1.01006 -0.170833,1.6297 0.03285,0.89335 0.180351,1.30761 0.623343,1.75061 0.51134,0.51135 1.007117,0.70961 1.642084,0.65671 0.290424,-0.0242 0.353724,-0.0178 0.402345,0.0408 0.08968,0.10806 0.0073,0.28848 -0.14889,0.32626 -0.855096,0.20687 -1.734214,0.26423 -2.190036,0.14293 -1.130599,-0.30086 -1.900142,-1.44483 -2.132635,-3.16985 -0.08481,-0.62961 0.0031,-1.58779 0.217203,-2.36835 0.306051,-1.11554 1.69257,-2.92192 2.993954,-3.90077 0.451497,-0.33957 0.559318,-0.39043 0.695936,-0.32818 0.05938,0.0271 0.111605,0.0437 0.11606,0.037 0.04387,-0.0662 0.189773,-0.47692 0.174772,-0.49194 -0.03505,-0.035 -0.879744,0.50999 -1.42665,0.92055 -2.058354,1.54526 -4.03519,3.77103 -4.47011,5.03334 -0.23029,0.66833 -0.269152,0.9255 -0.26883,1.77891 2.57e-4,0.65381 0.01643,0.86204 0.09555,1.23038 0.112437,0.5234 0.283993,0.98635 0.501694,1.3538 0.205369,0.34665 0.785622,0.96567 1.221249,1.30283 0.735023,0.56892 1.242762,0.8022 2.21769,1.01892 0.254183,0.0565 1.17049,0.0221 1.531465,-0.0575 z m -0.787004,-2.6941 c 0,-0.008 -0.103527,-0.084 -0.230065,-0.168 -0.301068,-0.1999 -0.648715,-0.55948 -0.828969,-0.85744 -0.539671,-0.89205 -0.480631,-2.75503 0.133892,-4.22444 0.145505,-0.34793 0.268284,-0.43041 0.417926,-0.28076 0.07116,0.0712 0.0759,0.10962 0.04038,0.32786 -0.06474,0.39774 0.03895,0.71914 0.343708,1.06535 0.238796,0.27129 0.441448,0.35281 0.998177,0.40151 0.564207,0.0494 0.851238,0.15748 1.057379,0.39831 0.183293,0.21413 0.254601,0.47304 0.226544,0.82255 -0.0193,0.24041 -0.01281,0.2757 0.05064,0.2757 0.108122,0 0.236706,-0.15777 0.381379,-0.46795 0.183487,-0.39339 0.239343,-0.92437 0.155923,-1.48228 -0.11259,-0.75301 -0.305794,-1.16407 -0.883233,-1.87924 -0.430772,-0.53349 -0.872252,-1.16872 -1.033759,-1.48744 -0.14526,-0.28666 -0.234342,-0.64746 -0.234342,-0.94914 V 148.267 l -0.180802,0.14074 c -0.288639,0.2247 -1.133171,1.08881 -1.449337,1.48296 -1.036187,1.29173 -1.389653,2.22348 -1.390088,3.66442 -2.57e-4,0.80495 0.168084,1.55587 0.50409,2.24872 0.281628,0.58075 0.824306,1.0276 1.424881,1.17329 0.210321,0.051 0.495697,0.077 0.495697,0.0452 z"
       id="path4534"
       inkscape:connector-curvature="0"
       style="fill:#bcbc4a;stroke-width:0.04254017" />
    <path
       d="m 56.066517,162.98249 c -0.06641,-0.0494 -0.07226,-0.59886 -0.08258,-7.75299 l -0.01109,-7.69994 -0.117142,-0.42505 c -0.142844,-0.5183 -0.338916,-0.93791 -0.596492,-1.27659 -0.490985,-0.64556 -1.355873,-1.1159 -2.425101,-1.31883 -0.702802,-0.13338 -1.488922,-0.14862 -7.672119,-0.14872 -5.342522,-9e-5 -6.223456,-0.009 -6.266868,-0.061 -0.0368,-0.0443 -0.0469,-0.33673 -0.03712,-1.07415 0.01547,-1.1662 0.02622,-1.20633 0.417523,-1.55812 0.25391,-0.22828 0.539365,-0.34554 0.99575,-0.40902 0.224904,-0.0313 2.643285,-0.0454 7.632565,-0.0445 8.249011,0.001 8.016839,-0.007 9.037655,0.32005 0.483541,0.1548 0.768771,0.29011 1.15491,0.54787 0.816942,0.54535 1.31021,1.22891 1.629061,2.25757 l 0.118676,0.38286 0.01113,9.07849 c 0.01032,8.42234 0.006,9.08428 -0.05977,9.15696 -0.06672,0.0737 -0.176444,0.0783 -1.864127,0.0783 -1.368125,0 -1.810264,-0.0126 -1.86477,-0.0532 z m 3.404917,-9.25262 c -0.01217,-8.84343 -0.01259,-8.88154 -0.100436,-9.17818 -0.213087,-0.71935 -0.452864,-1.16554 -0.861303,-1.60276 -0.636462,-0.68131 -1.405957,-1.04916 -2.623187,-1.25402 -0.44148,-0.0743 -0.872059,-0.0785 -7.975035,-0.0785 -7.968925,0 -7.730322,-0.006 -8.12585,0.19292 -0.192474,0.0966 -0.369786,0.27513 -0.471659,0.47483 -0.07052,0.13823 -0.0808,0.25585 -0.0808,0.92429 v 0.7659 l 6.561907,0.0149 c 6.494216,0.0148 6.56673,0.0158 7.029787,0.10571 1.841134,0.35728 2.890248,1.20915 3.365525,2.73269 0.18741,0.60081 0.186332,0.55248 0.186509,8.36992 l 1.61e-4,7.41277 h 3.106664 z m -20.089929,9.17287 c -0.401477,-0.0656 -1.145343,-0.21389 -1.180346,-0.23531 -0.05172,-0.0316 0.08205,-0.25092 0.227991,-0.37372 0.07452,-0.0627 0.247495,-0.17055 0.384402,-0.23965 0.195947,-0.0989 0.24891,-0.14666 0.24891,-0.22441 0,-0.11908 0.934426,-1.01609 1.156469,-1.11014 0.169595,-0.0719 0.151294,-0.0802 -0.386235,-0.17608 l -0.399628,-0.0713 0.250742,-0.14319 c 0.137905,-0.0787 0.370318,-0.20548 0.516454,-0.28159 0.146147,-0.0761 0.265791,-0.14846 0.265872,-0.16074 8.5e-5,-0.0123 -0.220403,-0.15356 -0.489989,-0.31397 -0.269586,-0.16042 -0.497947,-0.30429 -0.507481,-0.31971 -0.03965,-0.0642 0.07177,-0.70711 0.148657,-0.85783 0.04605,-0.0903 0.08323,-0.2485 0.08323,-0.35427 0,-0.10512 0.02078,-0.23672 0.04617,-0.29245 0.05115,-0.11226 0.245099,-0.24301 0.360493,-0.24301 0.06946,0 0.06973,-0.005 0.0041,-0.0778 -0.03872,-0.0428 -0.0704,-0.10151 -0.0704,-0.13049 0,-0.0333 -0.03126,-0.0428 -0.08511,-0.0257 -0.05412,0.0172 -0.13291,-0.007 -0.216398,-0.0665 -0.111941,-0.0797 -0.127748,-0.11305 -0.107248,-0.22623 0.05768,-0.31841 0.06665,-1.45408 0.01291,-1.63324 -0.04583,-0.15279 -0.04405,-0.22569 0.01114,-0.45709 0.04773,-0.20014 0.08474,-0.27536 0.135554,-0.27552 0.115203,-3.2e-4 0.132634,-0.12573 0.02326,-0.16731 -0.196767,-0.0748 -0.217701,-0.14408 -0.158917,-0.52586 0.05207,-0.33819 0.04376,-0.78126 -0.01906,-1.01702 -0.02237,-0.0839 -0.0065,-0.14845 0.05904,-0.24055 0.04928,-0.0692 0.0896,-0.18363 0.0896,-0.25426 0,-0.0881 0.04332,-0.17174 0.138052,-0.26647 0.08738,-0.0874 0.118611,-0.14453 0.08508,-0.15571 -0.02913,-0.01 -0.05297,-0.0448 -0.05297,-0.0779 0,-0.0379 -0.04497,-0.0603 -0.121029,-0.0603 -0.251964,0 -0.262029,-0.0457 -0.280455,-1.2766 -0.01,-0.66777 -3.9e-5,-1.16294 0.02471,-1.22804 0.03209,-0.0844 0.02647,-0.12005 -0.02485,-0.15758 -0.05344,-0.0391 -0.06632,-0.14395 -0.06632,-0.54012 0,-0.34358 0.01532,-0.49672 0.05087,-0.50857 0.03505,-0.0117 0.02182,-0.064 -0.04254,-0.1681 -0.05138,-0.0831 -0.09341,-0.17458 -0.09341,-0.20322 0,-0.0286 -0.03829,-0.10075 -0.08508,-0.16024 -0.05907,-0.0751 -0.08565,-0.17471 -0.08694,-0.32576 -0.0025,-0.29895 -0.06208,-0.5822 -0.13164,-0.62627 -0.03187,-0.0202 -0.108828,-0.037 -0.171025,-0.0374 -0.100458,-5.8e-4 -0.122982,-0.03 -0.201768,-0.26329 -0.04878,-0.14444 -0.08404,-0.26653 -0.07835,-0.27129 0.128016,-0.10716 0.684778,-0.29973 0.988771,-0.34197 0.254232,-0.0353 0.523834,-0.12536 0.614725,-0.20527 0.03626,-0.0319 0.152068,-0.0781 0.25735,-0.10283 0.105288,-0.0247 0.325443,-0.0852 0.489217,-0.13456 0.218168,-0.0657 0.384788,-0.0862 0.623134,-0.0767 0.411011,0.0164 0.504185,0.0849 0.504185,0.37055 0,0.10767 0.0189,0.26166 0.042,0.3422 0.03613,0.12598 0.02902,0.16027 -0.05092,0.24536 -0.08948,0.0952 -0.09103,0.11194 -0.042,0.45104 0.028,0.19368 0.05091,0.41185 0.05091,0.48481 0,0.13173 -0.0019,0.13287 -0.273445,0.16195 -0.215514,0.0231 -0.294379,0.052 -0.37223,0.13667 l -0.09879,0.10739 0.201269,-0.0216 c 0.145368,-0.0156 0.215579,-0.004 0.252801,0.0405 0.02834,0.0341 0.134341,0.11907 0.235564,0.1887 l 0.184033,0.12662 -0.139044,0.19475 c -0.07647,0.10712 -0.208906,0.2512 -0.294299,0.32017 -0.127276,0.10281 -0.168887,0.17793 -0.230837,0.4168 -0.07269,0.28027 -0.08592,0.299 -0.346135,0.49006 l -0.270551,0.19864 0.07995,0.1355 c 0.04952,0.0839 0.09093,0.26433 0.108805,0.47407 0.07276,0.85349 0.06252,0.81551 0.226899,0.84219 0.23066,0.0374 0.519894,0.1959 0.584063,0.32 0.05121,0.099 0.04889,0.13133 -0.0188,0.26153 -0.06958,0.13384 -0.07077,0.15574 -0.01201,0.22126 0.07555,0.0842 0.120892,0.40336 0.0803,0.56511 -0.01582,0.063 -0.09008,0.14782 -0.171573,0.1959 l -0.143687,0.0848 0.09863,0.10643 c 0.05425,0.0585 0.131427,0.17554 0.171508,0.26002 0.06238,0.13146 0.06576,0.1848 0.02343,0.37022 -0.02792,0.12228 -0.05457,0.66001 -0.06121,1.23477 l -0.01175,1.01814 -0.158208,0.10013 c -0.173132,0.10957 -0.170286,0.134 0.0368,0.31581 l 0.134917,0.11846 0.0073,0.65024 c 0.004,0.35764 0.01857,0.73033 0.03241,0.82822 0.01747,0.12362 -0.0078,0.29899 -0.08277,0.5743 -0.05936,0.21798 -0.117594,0.50838 -0.129408,0.64532 -0.01181,0.13695 -0.04924,0.28052 -0.08318,0.31906 -0.03393,0.0385 -0.07492,0.13227 -0.09108,0.20831 -0.02566,0.12074 -0.01828,0.13826 0.05821,0.13826 0.05992,0 0.117353,0.0571 0.181782,0.1808 0.0886,0.17008 0.09346,0.22619 0.08209,0.94654 l -0.01209,0.76573 0.269731,0.0719 c 0.148355,0.0395 0.355879,0.0827 0.461176,0.0958 0.105288,0.0131 0.478589,0.0621 0.829548,0.10884 0.350958,0.0467 0.858263,0.0861 1.127335,0.0876 l 0.489217,0.003 0.148892,0.18627 c 0.08189,0.10244 0.170623,0.18742 0.197185,0.18885 0.02656,0.001 0.235001,-0.068 0.463202,-0.15429 l 0.414902,-0.15687 0.536504,0.0513 c 0.633343,0.0606 3.298639,0.0933 3.727128,0.0458 0.336134,-0.0373 1.090548,-0.10821 1.786629,-0.16796 0.257366,-0.0221 0.539686,-0.052 0.627362,-0.0664 0.223425,-0.0368 0.33361,6.4e-4 0.511855,0.17376 0.146252,0.14204 0.157319,0.1458 0.199114,0.0677 0.02434,-0.0455 0.04425,-0.15915 0.04425,-0.25262 v -0.16995 l 0.244617,-0.0477 c 0.134535,-0.0263 0.436045,-0.10662 0.670018,-0.17857 0.294732,-0.0906 0.548208,-0.13734 0.825206,-0.15205 l 0.399789,-0.0212 -0.02732,0.17088 c -0.04804,0.30045 -0.558274,0.95045 -0.96615,1.23083 -0.106635,0.0733 -0.219052,0.1636 -0.249826,0.20067 -0.03189,0.0384 -0.121089,0.0674 -0.207507,0.0674 -0.09441,0 -0.186702,0.033 -0.244697,0.0875 l -0.09312,0.0875 -0.443281,-0.22045 -0.443265,-0.22045 -0.797938,0.22046 -0.797937,0.22047 -0.306406,-0.0515 c -0.246095,-0.0414 -0.553337,-0.0389 -1.561178,0.0124 -0.783435,0.0399 -1.366646,0.0507 -1.55256,0.0287 -0.163774,-0.0194 -0.483203,-0.0237 -0.709828,-0.01 -0.400561,0.025 -0.419517,0.022 -0.680646,-0.1078 -0.147734,-0.0734 -0.318609,-0.16535 -0.379707,-0.20427 -0.106308,-0.0677 -0.137266,-0.0638 -0.717883,0.0916 l -0.606782,0.16234 -0.537066,-0.0488 c -0.295392,-0.0268 -0.671063,-0.0497 -0.834853,-0.051 -0.163775,-0.001 -0.393503,-0.0185 -0.510489,-0.0384 -0.188181,-0.032 -0.220579,-0.0262 -0.281002,0.0508 -0.06367,0.0811 -0.08389,0.0835 -0.297787,0.0349 -0.126214,-0.0286 -0.310345,-0.0815 -0.409195,-0.11743 -0.161636,-0.0588 -0.193728,-0.0588 -0.319059,-3e-5 -0.273959,0.12848 -0.514412,0.16435 -1.027714,0.15335 -0.326696,-0.007 -0.548256,0.007 -0.604997,0.0376 -0.130106,0.0707 -0.593839,0.0951 -0.888909,0.0469 z m 8.401755,-2.75841 c -1.200798,-0.25809 -2.241326,-0.90826 -3.167119,-1.97908 -0.287513,-0.33254 -0.369899,-0.45452 -0.547854,-0.81117 -0.629485,-1.26154 -0.691419,-3.23465 -0.1435,-4.57076 0.398712,-0.97218 1.543974,-2.41337 2.901182,-3.65076 1.266092,-1.15431 2.280557,-1.91043 3.371475,-2.51289 0.7188,-0.39701 0.829049,-0.2852 0.461996,0.46849 -0.453057,0.9303 -0.525844,1.55456 -0.240485,2.0627 0.207572,0.36967 0.623343,0.88321 1.046622,1.29273 1.021524,0.98832 1.627453,1.70608 2.154663,2.55244 0.597135,0.95852 0.650531,1.12808 0.649583,2.06318 -8.04e-4,0.81395 -0.0448,1.03244 -0.360638,1.79129 -0.231899,0.5572 -0.495761,0.94142 -0.976761,1.42238 -1.073907,1.07377 -2.024589,1.58381 -3.524863,1.89129 -0.422636,0.0866 -1.17147,0.0774 -1.624398,-0.0199 z m 1.893067,-0.44321 c 1.282589,-0.31663 2.226855,-0.87481 3.136731,-1.85432 0.372311,-0.40076 0.573065,-0.72867 0.798018,-1.30346 0.233393,-0.59636 0.314943,-1.0969 0.282014,-1.731 -0.03326,-0.6405 -0.137315,-0.90339 -0.681851,-1.7228 -0.538819,-0.81076 -0.799674,-1.12177 -1.791131,-2.13536 -0.877542,-0.89716 -1.056462,-1.11059 -1.316305,-1.57031 -0.221753,-0.39232 -0.294073,-0.6807 -0.267142,-1.06516 0.02171,-0.30998 0.02054,-0.31521 -0.03376,-0.15094 -0.175881,0.53206 0.04445,1.11632 0.786072,2.08456 0.664037,0.8669 0.777052,1.0239 0.916596,1.27342 0.204855,0.3663 0.30811,0.6864 0.382987,1.18723 0.106264,0.71068 0.07468,1.1014 -0.131955,1.6326 -0.278654,0.71623 -0.686257,1.01215 -1.071013,0.77756 -0.192265,-0.11722 -0.23751,-0.2568 -0.174514,-0.5383 0.03903,-0.1744 0.03924,-0.26415 9.64e-4,-0.3867 -0.114627,-0.36665 -0.32705,-0.48158 -0.96332,-0.52115 -0.547018,-0.034 -0.766809,-0.11396 -1.06233,-0.38636 -0.108117,-0.0997 -0.27002,-0.30382 -0.35977,-0.45369 l -0.163195,-0.27249 -0.06932,0.31164 c -0.126005,0.56653 -0.152867,0.81592 -0.153116,1.42154 -4.18e-4,0.98461 0.173936,1.4719 0.704908,1.97025 0.50433,0.47331 0.924362,0.63001 1.560342,0.5821 0.37059,-0.0279 0.372681,-0.0275 0.422427,0.0816 0.08435,0.18512 -0.0376,0.2527 -0.682607,0.37829 -1.305259,0.25413 -2.113985,0.0674 -2.764195,-0.63822 -0.658859,-0.71503 -1.040013,-1.84258 -1.041107,-3.07981 -0.0014,-1.53521 0.390962,-2.57784 1.480369,-3.93406 0.649389,-0.80843 1.80528,-1.87264 2.227819,-2.05127 0.127918,-0.0541 0.151233,-0.0527 0.223602,0.0128 0.04443,0.0402 0.08642,0.0653 0.0933,0.0556 0.04931,-0.0688 0.227975,-0.59176 0.202185,-0.59176 -0.06424,0 -1.30923,0.84332 -1.72537,1.16873 -1.785504,1.39607 -3.496404,3.29173 -4.06381,4.50275 -0.325104,0.69374 -0.488059,1.65656 -0.421189,2.48845 0.09495,1.18122 0.380929,1.99967 0.921114,2.63605 0.886562,1.04449 2.048385,1.73598 3.229664,1.92233 0.394434,0.0622 1.089824,0.0178 1.567818,-0.10022 z m -0.914618,-2.67882 c 0,-0.008 -0.103527,-0.084 -0.230065,-0.168 -0.301068,-0.19991 -0.648715,-0.55948 -0.828969,-0.85745 -0.539671,-0.89204 -0.480631,-2.75503 0.133892,-4.22443 0.145505,-0.34794 0.268284,-0.43042 0.417926,-0.28076 0.07116,0.0712 0.0759,0.10961 0.04038,0.32785 -0.06474,0.39775 0.03895,0.71914 0.343708,1.06536 0.238796,0.27129 0.441448,0.3528 0.998177,0.40151 0.564207,0.0494 0.851238,0.15748 1.057379,0.39831 0.183293,0.21413 0.254601,0.47304 0.226544,0.82255 -0.0193,0.2404 -0.01282,0.2757 0.05064,0.2757 0.108122,0 0.236706,-0.15777 0.381379,-0.46795 0.183487,-0.39339 0.239343,-0.92438 0.155923,-1.48228 -0.11259,-0.75302 -0.305794,-1.16408 -0.883233,-1.87924 -0.430772,-0.5335 -0.872252,-1.16872 -1.033759,-1.48744 -0.14526,-0.28667 -0.234342,-0.64746 -0.234342,-0.94914 v -0.24988 l -0.180802,0.14075 c -0.288639,0.22469 -1.133171,1.08881 -1.449337,1.48295 -1.036186,1.29174 -1.389653,2.22348 -1.390088,3.66443 -2.57e-4,0.80494 0.168084,1.55587 0.50409,2.24872 0.281628,0.58075 0.824306,1.0276 1.424881,1.17328 0.210322,0.051 0.495697,0.077 0.495697,0.0452 z"
       id="path4536"
       inkscape:connector-curvature="0"
       style="fill:#8f8f8f;stroke-width:0.04254017" />
    <path
       d="m 56.042399,162.93747 c -0.03378,-0.0407 -0.05017,-2.21689 -0.05839,-7.75299 l -0.01142,-7.6964 -0.113799,-0.41186 c -0.449616,-1.6273 -1.615234,-2.46209 -3.730023,-2.67126 -0.278943,-0.0276 -2.7777,-0.0436 -6.811925,-0.0436 -5.441565,0 -6.378613,-0.009 -6.421381,-0.0602 -0.03595,-0.0433 -0.04636,-0.33856 -0.03711,-1.05287 0.01222,-0.94437 0.01769,-1.00201 0.112276,-1.18413 0.201671,-0.38826 0.506902,-0.60987 1.037714,-0.75335 0.244697,-0.0661 0.866592,-0.0734 7.541079,-0.0875 7.552656,-0.016 7.95767,-0.009 8.771236,0.1602 1.807049,0.37494 2.92321,1.35684 3.409098,2.9991 l 0.113293,0.38286 0.01156,9.05615 c 0.0086,6.71288 -9.65e-4,9.07109 -0.03677,9.11435 -0.07042,0.0848 -3.705101,0.0864 -3.775524,0.002 z m 3.428714,-9.20664 c -0.01217,-8.84343 -0.01259,-8.88153 -0.100437,-9.17818 -0.213087,-0.71935 -0.452864,-1.16554 -0.861303,-1.60276 -0.636462,-0.6813 -1.405957,-1.04916 -2.623186,-1.25401 -0.44148,-0.0743 -0.872059,-0.0785 -7.975035,-0.0785 -7.968925,0 -7.730322,-0.006 -8.12585,0.19292 -0.192474,0.0966 -0.369787,0.27514 -0.471659,0.47483 -0.07052,0.13824 -0.0808,0.25586 -0.0808,0.9243 v 0.76589 l 6.561906,0.0149 c 6.494217,0.0148 6.56673,0.0159 7.029787,0.10572 1.841135,0.35728 2.890249,1.20914 3.365526,2.73268 0.187409,0.60082 0.186332,0.55249 0.186509,8.36992 l 1.61e-4,7.41277 h 3.106663 z m -20.281262,9.13187 c -0.351522,-0.0545 -0.907367,-0.17252 -0.969125,-0.2058 -0.04035,-0.0217 -0.02081,-0.0759 0.07525,-0.20849 0.09385,-0.12956 0.217235,-0.22239 0.445918,-0.33555 0.257045,-0.12719 0.318545,-0.17677 0.328883,-0.26513 0.0088,-0.075 0.174097,-0.26321 0.532516,-0.60637 0.40495,-0.38771 0.553691,-0.50404 0.673201,-0.52645 0.220949,-0.0414 0.139796,-0.0803 -0.341954,-0.16379 -0.233844,-0.0405 -0.431062,-0.0795 -0.438249,-0.0867 -0.0072,-0.007 0.117151,-0.0847 0.276291,-0.17234 0.159141,-0.0876 0.391187,-0.21642 0.515634,-0.28622 l 0.226287,-0.12692 -0.527435,-0.31083 -0.527435,-0.31082 0.03586,-0.31184 c 0.01972,-0.17151 0.08367,-0.42003 0.142113,-0.55226 0.07016,-0.15876 0.103744,-0.30675 0.09887,-0.43573 -0.0085,-0.22607 0.06828,-0.33684 0.288993,-0.41665 0.154968,-0.056 0.178775,-0.0967 0.07898,-0.13501 -0.0351,-0.0135 -0.06381,-0.0542 -0.06381,-0.0904 0,-0.0465 -0.02829,-0.0596 -0.09572,-0.0443 -0.06242,0.0141 -0.139068,-0.0142 -0.220322,-0.0813 -0.119308,-0.0986 -0.122475,-0.1101 -0.07447,-0.27033 0.02758,-0.092 0.03984,-0.2513 0.02725,-0.35391 -0.01259,-0.10262 -0.0065,-0.35887 0.01342,-0.56943 0.0281,-0.29633 0.02228,-0.43082 -0.02577,-0.59497 -0.0496,-0.16945 -0.05229,-0.2487 -0.0134,-0.39411 0.02677,-0.10011 0.04868,-0.2205 0.04868,-0.26755 0,-0.05 0.04048,-0.10091 0.09746,-0.12258 0.05361,-0.0204 0.122951,-0.0678 0.154102,-0.1053 0.04953,-0.0597 0.04264,-0.0682 -0.05492,-0.0682 -0.06136,0 -0.151722,-0.0402 -0.200803,-0.0892 -0.07233,-0.0723 -0.08365,-0.1187 -0.05969,-0.24461 0.05852,-0.3076 0.07088,-1.03542 0.01968,-1.15901 -0.04254,-0.10271 -0.03671,-0.1417 0.03969,-0.26531 0.04926,-0.0797 0.08956,-0.19463 0.08956,-0.25541 0,-0.064 0.05818,-0.17675 0.138255,-0.26794 0.09005,-0.10257 0.119716,-0.16365 0.08508,-0.17519 -0.02924,-0.01 -0.05317,-0.0448 -0.05317,-0.078 0,-0.0359 -0.04296,-0.0603 -0.106352,-0.0603 -0.05849,0 -0.143307,-0.0369 -0.188471,-0.0821 -0.07414,-0.0741 -0.0822,-0.14752 -0.08289,-0.75511 -4.19e-4,-0.37014 -0.0138,-0.84052 -0.02973,-1.04531 -0.01994,-0.25639 -0.01184,-0.43351 0.02602,-0.56873 0.04888,-0.17459 0.04714,-0.20077 -0.01577,-0.23597 -0.05951,-0.0333 -0.07076,-0.11646 -0.07076,-0.52315 0,-0.34188 0.01516,-0.48861 0.05174,-0.50081 0.03504,-0.0117 8.36e-4,-0.11592 -0.105925,-0.32287 -0.122954,-0.23833 -0.166684,-0.38497 -0.198616,-0.66597 -0.04742,-0.41738 -0.09638,-0.53221 -0.227284,-0.53313 -0.05182,-3.3e-4 -0.116434,-0.0148 -0.143588,-0.0321 -0.04416,-0.0281 -0.239182,-0.48235 -0.215498,-0.50193 0.0877,-0.0725 0.685357,-0.28376 0.851253,-0.30089 0.268622,-0.0277 0.622957,-0.13271 0.713623,-0.21144 0.10044,-0.0872 0.917448,-0.31393 1.234867,-0.34267 0.309927,-0.0281 0.56985,0.0334 0.62889,0.14873 0.02,0.0391 0.0486,0.22264 0.06355,0.40794 0.02243,0.27795 0.01507,0.3503 -0.04207,0.41342 -0.07101,0.0785 -0.07057,0.11202 0.0098,0.75374 0.03334,0.26632 0.01384,0.28745 -0.301855,0.32715 -0.129751,0.0163 -0.262978,0.0668 -0.340685,0.12919 l -0.127622,0.10239 0.244247,2.1e-4 c 0.200674,1.8e-4 0.253797,0.0158 0.297787,0.0877 0.02945,0.0481 0.115752,0.11731 0.191799,0.15374 0.07604,0.0364 0.138258,0.0862 0.138258,0.11053 0,0.0643 -0.201976,0.32377 -0.405079,0.5203 -0.138894,0.1344 -0.188052,0.22276 -0.233876,0.42046 -0.05377,0.23197 -0.07768,0.26576 -0.326374,0.4612 -0.147595,0.11598 -0.268349,0.21939 -0.268349,0.22977 0,0.0104 0.0311,0.0663 0.06912,0.12437 0.04533,0.0692 0.08896,0.30507 0.126773,0.68539 0.03171,0.31894 0.06283,0.58289 0.06914,0.5865 0.0063,0.004 0.121068,0.0399 0.255003,0.0807 0.258234,0.0786 0.500937,0.24949 0.500937,0.35283 0,0.0342 -0.02792,0.11613 -0.06204,0.18212 -0.0561,0.10849 -0.05406,0.13563 0.02127,0.2834 0.152895,0.29989 0.09155,0.59226 -0.151769,0.7233 l -0.139993,0.0754 0.09874,0.0777 c 0.05431,0.0427 0.140463,0.16385 0.191446,0.26918 0.08813,0.18207 0.08946,0.20105 0.02693,0.38457 -0.0519,0.15232 -0.06579,0.40133 -0.06584,1.18024 -3.4e-5,0.54297 -9.16e-4,1.00812 -0.0019,1.03368 -0.001,0.0256 -0.06889,0.0826 -0.150775,0.12666 -0.08189,0.0441 -0.148892,0.10316 -0.148892,0.13123 0,0.0281 0.06909,0.10799 0.153527,0.17758 l 0.153528,0.12655 0.02122,0.89608 c 0.01966,0.83012 0.01449,0.91824 -0.07021,1.1971 -0.05029,0.16556 -0.103103,0.42944 -0.117364,0.58638 -0.01634,0.17977 -0.05503,0.3229 -0.104584,0.38682 -0.104737,0.13509 -0.107508,0.34465 -0.0042,0.31817 0.05356,-0.0137 0.101329,0.0321 0.170286,0.16352 0.08918,0.16991 0.09583,0.23606 0.09572,0.95264 l -1.18e-4,0.77006 0.265872,0.0691 c 0.496162,0.12885 1.454385,0.24883 2.171706,0.2719 l 0.714651,0.023 0.169981,0.20159 0.169981,0.20159 0.455403,-0.16861 0.455404,-0.16862 0.489217,0.052 c 0.659937,0.0701 3.562968,0.0726 4.232793,0.004 0.280761,-0.0289 0.826348,-0.081 1.212406,-0.1157 0.386058,-0.0347 0.772067,-0.0738 0.857813,-0.0868 0.138635,-0.021 0.176879,-0.004 0.34546,0.15113 0.217251,0.20025 0.258155,0.18352 0.302628,-0.12374 l 0.02771,-0.19143 0.434968,-0.11273 c 0.23923,-0.062 0.58498,-0.15381 0.768321,-0.20401 0.217798,-0.0596 0.424244,-0.0869 0.595576,-0.0787 l 0.262222,0.0126 -0.01352,0.17015 c -0.0074,0.0936 -0.03756,0.18931 -0.06693,0.2127 -0.02938,0.0234 -0.104743,0.13053 -0.167489,0.23808 -0.110312,0.18908 -0.468266,0.55084 -0.82728,0.83609 -0.119535,0.095 -0.219454,0.13826 -0.319172,0.13826 -0.09113,0 -0.173824,0.0317 -0.222155,0.0851 -0.04235,0.0468 -0.104896,0.0851 -0.138995,0.0851 -0.0341,0 -0.251514,-0.0892 -0.483155,-0.1981 l -0.421157,-0.19811 -0.797117,0.21756 c -0.78231,0.21351 -0.802392,0.21664 -1.081174,0.16871 -0.2132,-0.0367 -0.600576,-0.0369 -1.552737,-8e-4 -0.69777,0.0264 -1.60369,0.0439 -2.013174,0.0389 -0.683974,-0.008 -0.761118,-0.0173 -0.94946,-0.10893 -0.112751,-0.0549 -0.257785,-0.14418 -0.322291,-0.19846 l -0.117284,-0.0987 -0.634758,0.17179 c -0.488927,0.13233 -0.678781,0.16598 -0.826316,0.14646 -0.105352,-0.0139 -0.52655,-0.0445 -0.936002,-0.068 -0.409452,-0.0234 -0.804819,-0.0539 -0.878603,-0.0678 -0.111743,-0.021 -0.138988,-0.01 -0.163212,0.0665 -0.03318,0.10456 -0.0966,0.0994 -0.575815,-0.0472 l -0.277593,-0.0849 -0.339253,0.11449 c -0.312998,0.10565 -0.376492,0.11271 -0.820673,0.0914 -0.362792,-0.0174 -0.51708,-0.008 -0.626108,0.0373 -0.159806,0.0668 -0.69867,0.0739 -1.083313,0.0142 z m 8.735059,-2.69393 c -0.664712,-0.12687 -1.451716,-0.45505 -2.034879,-0.84852 -0.442573,-0.29859 -1.285241,-1.11688 -1.539472,-1.49492 -0.463074,-0.68857 -0.686386,-1.41803 -0.776393,-2.5362 -0.0844,-1.04839 0.13086,-2.15804 0.57559,-2.96726 0.63016,-1.14652 2.259012,-2.92177 3.857845,-4.20482 1.030077,-0.82652 2.487968,-1.74064 2.720461,-1.70592 0.198423,0.0297 0.191445,0.13496 -0.03951,0.59662 -0.257479,0.51469 -0.383791,0.87341 -0.432219,1.22754 -0.09808,0.71718 0.142635,1.11914 1.501624,2.50758 0.936308,0.95657 1.343557,1.45042 1.841295,2.23265 0.545491,0.85749 0.646062,1.1346 0.679328,1.87184 0.06177,1.36916 -0.5152,2.70937 -1.56732,3.64079 -0.844999,0.74805 -1.427052,1.10468 -2.279592,1.39671 -0.878506,0.30094 -1.844029,0.41024 -2.50678,0.28374 z m 1.751257,-0.4668 c 1.282588,-0.31663 2.226855,-0.87481 3.13673,-1.85432 0.372311,-0.40075 0.573065,-0.72867 0.798018,-1.30346 0.233394,-0.59636 0.314943,-1.0969 0.282015,-1.731 -0.03327,-0.64049 -0.137316,-0.90339 -0.681852,-1.72279 -0.538819,-0.81077 -0.799674,-1.12178 -1.791131,-2.13537 -0.877542,-0.89716 -1.056462,-1.11058 -1.316305,-1.57031 -0.221752,-0.39231 -0.294073,-0.6807 -0.267142,-1.06516 0.02171,-0.30998 0.02054,-0.3152 -0.03376,-0.15094 -0.175882,0.53207 0.04445,1.11632 0.786071,2.08456 0.664037,0.8669 0.777052,1.0239 0.916596,1.27342 0.204855,0.3663 0.30811,0.68641 0.382987,1.18723 0.106264,0.71068 0.07468,1.1014 -0.131955,1.6326 -0.278654,0.71623 -0.686257,1.01215 -1.071013,0.77757 -0.192265,-0.11723 -0.237509,-0.25681 -0.174514,-0.53831 0.03903,-0.1744 0.03924,-0.26415 9.64e-4,-0.3867 -0.114627,-0.36665 -0.32705,-0.48158 -0.963319,-0.52115 -0.547019,-0.034 -0.76681,-0.11396 -1.062331,-0.38636 -0.108117,-0.0997 -0.27002,-0.30382 -0.359769,-0.45368 l -0.163196,-0.2725 -0.06932,0.31165 c -0.126005,0.56652 -0.152867,0.81591 -0.153116,1.42153 -4.18e-4,0.98461 0.173936,1.4719 0.704908,1.97025 0.50433,0.47331 0.924362,0.63001 1.560342,0.5821 0.370591,-0.0279 0.372681,-0.0275 0.422427,0.0816 0.08435,0.18513 -0.0376,0.2527 -0.682607,0.37829 -1.305259,0.25414 -2.113985,0.0674 -2.764194,-0.63821 -0.65886,-0.71504 -1.040014,-1.84259 -1.041107,-3.07982 -0.0014,-1.53521 0.390961,-2.57784 1.480368,-3.93405 0.649389,-0.80844 1.80528,-1.87265 2.227819,-2.05128 0.127918,-0.0541 0.151234,-0.0527 0.223602,0.0127 0.04443,0.0402 0.08642,0.0653 0.0933,0.0557 0.04931,-0.0688 0.227975,-0.59176 0.202185,-0.59176 -0.06423,0 -1.30923,0.84333 -1.72537,1.16874 -1.785504,1.39606 -3.496403,3.29172 -4.063809,4.50274 -0.325105,0.69374 -0.488059,1.65656 -0.421189,2.48845 0.09495,1.18122 0.380928,1.99967 0.921114,2.63605 0.886561,1.04449 2.048385,1.73599 3.229663,1.92233 0.394434,0.0622 1.089824,0.0178 1.567818,-0.10022 z m -1.154106,-2.87112 c -0.162456,-0.11408 -0.395448,-0.31693 -0.517756,-0.45075 -0.484924,-0.53059 -0.606106,-0.9087 -0.635385,-1.98247 -0.02339,-0.85781 0.04918,-1.36315 0.311133,-2.1664 0.227251,-0.69687 0.380076,-0.90654 0.554961,-0.7614 0.05326,0.0442 0.05969,0.11684 0.03576,0.40411 -0.02655,0.31875 -0.01953,0.37128 0.0781,0.58454 0.130812,0.28573 0.413101,0.60034 0.644742,0.71855 0.122272,0.0624 0.301357,0.0972 0.618761,0.1202 0.536889,0.0389 0.799191,0.12457 1.001618,0.32699 0.24989,0.24989 0.294765,0.37003 0.296903,0.7948 0.0011,0.22992 0.01984,0.38579 0.04735,0.39495 0.08142,0.0271 0.343241,-0.31096 0.439004,-0.56689 0.150018,-0.40096 0.1977,-0.88558 0.132552,-1.34726 -0.103185,-0.73126 -0.291662,-1.18245 -0.723543,-1.73212 -1.151453,-1.46543 -1.387371,-1.88599 -1.436973,-2.56177 l -0.02411,-0.32832 -0.114563,0.0816 c -0.222782,0.15864 -0.940424,0.86412 -1.270304,1.24881 -0.851752,0.99324 -1.28619,1.73791 -1.46831,2.51674 -0.13897,0.59436 -0.209983,1.30108 -0.174981,1.74129 0.06109,0.76844 0.338032,1.69418 0.651737,2.17862 0.383309,0.59185 1.024032,0.97853 1.639995,0.98975 l 0.208745,0.004 -0.29536,-0.20743 z"
       id="path4538"
       inkscape:connector-curvature="0"
       style="fill:#6d6d2b;stroke-width:0.04254017" />
    <path
       d="m 56.042399,162.93747 c -0.03378,-0.0407 -0.05017,-2.21689 -0.05839,-7.75299 l -0.01142,-7.6964 -0.113799,-0.41186 c -0.449616,-1.6273 -1.615234,-2.46209 -3.730023,-2.67126 -0.278943,-0.0276 -2.7777,-0.0436 -6.811925,-0.0436 -5.441565,0 -6.378613,-0.009 -6.421381,-0.0602 -0.03595,-0.0433 -0.04636,-0.33856 -0.03711,-1.05287 0.01222,-0.94437 0.01769,-1.00201 0.112276,-1.18413 0.201671,-0.38826 0.506902,-0.60987 1.037714,-0.75335 0.244697,-0.0661 0.866592,-0.0734 7.541079,-0.0875 7.552656,-0.016 7.95767,-0.009 8.771236,0.1602 1.807049,0.37494 2.92321,1.35684 3.409098,2.9991 l 0.113293,0.38286 0.01156,9.05615 c 0.0086,6.71288 -9.65e-4,9.07109 -0.03677,9.11435 -0.07042,0.0848 -3.705101,0.0864 -3.775524,0.002 z m 3.438361,-9.10036 c -0.0016,-9.63175 0.01463,-9.0026 -0.25071,-9.72967 -0.406799,-1.11465 -1.314826,-1.91268 -2.567234,-2.25628 -0.879343,-0.24124 -0.349191,-0.22601 -8.475233,-0.24355 -5.470346,-0.0118 -7.578864,-0.003 -7.827436,0.0325 -0.564785,0.0808 -0.916017,0.29975 -1.069967,0.6671 -0.04093,0.0977 -0.05736,0.35615 -0.05736,0.90198 v 0.76509 l 6.498075,0.0167 c 5.809439,0.0149 6.540683,0.0241 6.900035,0.0871 0.918654,0.16101 1.610732,0.41257 2.158683,0.78474 0.571136,0.38786 1.117109,1.13627 1.348734,1.84885 0.243636,0.74952 0.238282,0.55692 0.238282,8.57733 v 7.3647 h 3.105538 z m -20.290909,9.02559 c -0.351522,-0.0545 -0.907367,-0.17252 -0.969125,-0.2058 -0.04035,-0.0217 -0.02081,-0.0759 0.07525,-0.20849 0.09385,-0.12956 0.217235,-0.22239 0.445918,-0.33555 0.257045,-0.12719 0.318545,-0.17677 0.328883,-0.26513 0.0088,-0.075 0.174097,-0.26321 0.532516,-0.60637 0.40495,-0.38771 0.553691,-0.50404 0.673201,-0.52645 0.220949,-0.0414 0.139796,-0.0803 -0.341954,-0.16379 -0.233844,-0.0405 -0.431062,-0.0795 -0.438249,-0.0867 -0.0072,-0.007 0.117151,-0.0847 0.276291,-0.17234 0.159141,-0.0876 0.391187,-0.21642 0.515634,-0.28622 l 0.226287,-0.12692 -0.527435,-0.31083 -0.527435,-0.31082 0.03586,-0.31184 c 0.01972,-0.17151 0.08367,-0.42003 0.142113,-0.55226 0.07016,-0.15876 0.103744,-0.30675 0.09887,-0.43573 -0.0085,-0.22607 0.06828,-0.33684 0.288993,-0.41665 0.154968,-0.056 0.178775,-0.0967 0.07898,-0.13501 -0.0351,-0.0135 -0.06381,-0.0542 -0.06381,-0.0904 0,-0.0465 -0.02829,-0.0596 -0.09572,-0.0443 -0.06242,0.0141 -0.139068,-0.0142 -0.220322,-0.0813 -0.119308,-0.0986 -0.122475,-0.1101 -0.07447,-0.27033 0.02758,-0.092 0.03984,-0.2513 0.02725,-0.35391 -0.01259,-0.10262 -0.0065,-0.35887 0.01342,-0.56943 0.0281,-0.29633 0.02228,-0.43082 -0.02577,-0.59497 -0.0496,-0.16945 -0.05229,-0.2487 -0.0134,-0.39411 0.02677,-0.10011 0.04868,-0.2205 0.04868,-0.26755 0,-0.05 0.04048,-0.10091 0.09746,-0.12258 0.05361,-0.0204 0.122951,-0.0678 0.154102,-0.1053 0.04953,-0.0597 0.04264,-0.0682 -0.05492,-0.0682 -0.06136,0 -0.151722,-0.0402 -0.200803,-0.0892 -0.07233,-0.0723 -0.08365,-0.1187 -0.05969,-0.24461 0.05852,-0.3076 0.07088,-1.03542 0.01968,-1.15901 -0.04254,-0.10271 -0.03671,-0.1417 0.03969,-0.26531 0.04926,-0.0797 0.08956,-0.19463 0.08956,-0.25541 0,-0.064 0.05818,-0.17675 0.138255,-0.26794 0.09005,-0.10257 0.119716,-0.16365 0.08508,-0.17519 -0.02924,-0.01 -0.05317,-0.0448 -0.05317,-0.078 0,-0.0359 -0.04296,-0.0603 -0.106352,-0.0603 -0.05849,0 -0.143307,-0.0369 -0.188471,-0.0821 -0.07414,-0.0741 -0.0822,-0.14752 -0.08289,-0.75511 -4.19e-4,-0.37014 -0.0138,-0.84052 -0.02973,-1.04531 -0.01994,-0.25639 -0.01184,-0.43351 0.02602,-0.56873 0.04888,-0.17459 0.04714,-0.20077 -0.01577,-0.23597 -0.05951,-0.0333 -0.07076,-0.11646 -0.07076,-0.52315 0,-0.34188 0.01516,-0.48861 0.05174,-0.50081 0.03504,-0.0117 8.36e-4,-0.11592 -0.105925,-0.32287 -0.122954,-0.23833 -0.166684,-0.38497 -0.198616,-0.66597 -0.04742,-0.41738 -0.09638,-0.53221 -0.227284,-0.53313 -0.05182,-3.3e-4 -0.116434,-0.0148 -0.143588,-0.0321 -0.04416,-0.0281 -0.239182,-0.48235 -0.215498,-0.50193 0.0877,-0.0725 0.685357,-0.28376 0.851253,-0.30089 0.268622,-0.0277 0.622957,-0.13271 0.713623,-0.21144 0.10044,-0.0872 0.917448,-0.31393 1.234867,-0.34267 0.309927,-0.0281 0.56985,0.0334 0.62889,0.14873 0.02,0.0391 0.0486,0.22264 0.06355,0.40794 0.02243,0.27795 0.01507,0.3503 -0.04207,0.41342 -0.07101,0.0785 -0.07057,0.11202 0.0098,0.75374 0.03334,0.26632 0.01384,0.28745 -0.301855,0.32715 -0.129751,0.0163 -0.262978,0.0668 -0.340685,0.12919 l -0.127622,0.10239 0.244247,2.1e-4 c 0.200674,1.8e-4 0.253797,0.0158 0.297787,0.0877 0.02945,0.0481 0.115752,0.11731 0.191799,0.15374 0.07604,0.0364 0.138258,0.0862 0.138258,0.11053 0,0.0643 -0.201976,0.32377 -0.405079,0.5203 -0.138894,0.1344 -0.188052,0.22276 -0.233876,0.42046 -0.05377,0.23197 -0.07768,0.26576 -0.326374,0.4612 -0.147595,0.11598 -0.268349,0.21939 -0.268349,0.22977 0,0.0104 0.0311,0.0663 0.06912,0.12437 0.04533,0.0692 0.08896,0.30507 0.126773,0.68539 0.03171,0.31894 0.06283,0.58289 0.06914,0.5865 0.0063,0.004 0.121068,0.0399 0.255003,0.0807 0.258234,0.0786 0.500937,0.24949 0.500937,0.35283 0,0.0342 -0.02792,0.11613 -0.06204,0.18212 -0.0561,0.10849 -0.05406,0.13563 0.02127,0.2834 0.152895,0.29989 0.09155,0.59226 -0.151769,0.7233 l -0.139993,0.0754 0.09874,0.0777 c 0.05431,0.0427 0.140463,0.16385 0.191446,0.26918 0.08813,0.18207 0.08946,0.20105 0.02693,0.38457 -0.0519,0.15232 -0.06579,0.40133 -0.06584,1.18024 -3.4e-5,0.54297 -9.16e-4,1.00812 -0.0019,1.03368 -0.001,0.0256 -0.06889,0.0826 -0.150775,0.12666 -0.08189,0.0441 -0.148892,0.10316 -0.148892,0.13123 0,0.0281 0.06909,0.10799 0.153527,0.17758 l 0.153528,0.12655 0.02122,0.89608 c 0.01966,0.83012 0.01449,0.91824 -0.07021,1.1971 -0.05029,0.16556 -0.103103,0.42944 -0.117364,0.58638 -0.01634,0.17977 -0.05503,0.3229 -0.104584,0.38682 -0.104737,0.13509 -0.107508,0.34465 -0.0042,0.31817 0.05356,-0.0137 0.101329,0.0321 0.170286,0.16352 0.08918,0.16991 0.09583,0.23606 0.09572,0.95264 l -1.18e-4,0.77006 0.265872,0.0691 c 0.496162,0.12885 1.454385,0.24883 2.171706,0.2719 l 0.714651,0.023 0.169981,0.20159 0.169981,0.20159 0.455403,-0.16861 0.455404,-0.16862 0.489217,0.052 c 0.659937,0.0701 3.562968,0.0726 4.232793,0.004 0.280761,-0.0289 0.826348,-0.081 1.212406,-0.1157 0.386058,-0.0347 0.772067,-0.0738 0.857813,-0.0868 0.138635,-0.021 0.176879,-0.004 0.34546,0.15113 0.217251,0.20025 0.258155,0.18352 0.302628,-0.12374 l 0.02771,-0.19143 0.434968,-0.11273 c 0.23923,-0.062 0.58498,-0.15381 0.768321,-0.20401 0.217798,-0.0596 0.424244,-0.0869 0.595576,-0.0787 l 0.262222,0.0126 -0.01352,0.17015 c -0.0074,0.0936 -0.03756,0.18931 -0.06693,0.2127 -0.02938,0.0234 -0.104743,0.13053 -0.167489,0.23808 -0.110312,0.18908 -0.468266,0.55084 -0.82728,0.83609 -0.119535,0.095 -0.219454,0.13826 -0.319172,0.13826 -0.09113,0 -0.173824,0.0317 -0.222155,0.0851 -0.04235,0.0468 -0.104896,0.0851 -0.138995,0.0851 -0.0341,0 -0.251514,-0.0892 -0.483155,-0.1981 l -0.421157,-0.19811 -0.797117,0.21756 c -0.78231,0.21351 -0.802392,0.21664 -1.081174,0.16871 -0.2132,-0.0367 -0.600576,-0.0369 -1.552737,-8e-4 -0.69777,0.0264 -1.60369,0.0439 -2.013174,0.0389 -0.683974,-0.008 -0.761118,-0.0173 -0.94946,-0.10893 -0.112751,-0.0549 -0.257785,-0.14418 -0.322291,-0.19846 l -0.117284,-0.0987 -0.634758,0.17179 c -0.488927,0.13233 -0.678781,0.16598 -0.826316,0.14646 -0.105352,-0.0139 -0.52655,-0.0445 -0.936002,-0.068 -0.409452,-0.0234 -0.804819,-0.0539 -0.878603,-0.0678 -0.111743,-0.021 -0.138988,-0.01 -0.163212,0.0665 -0.03318,0.10456 -0.0966,0.0994 -0.575815,-0.0472 l -0.277593,-0.0849 -0.339253,0.11449 c -0.312998,0.10565 -0.376492,0.11271 -0.820673,0.0914 -0.362792,-0.0174 -0.51708,-0.008 -0.626108,0.0373 -0.159806,0.0668 -0.69867,0.0739 -1.083313,0.0142 z m 8.735059,-2.69393 c -0.664712,-0.12687 -1.451716,-0.45505 -2.034879,-0.84852 -0.442573,-0.29859 -1.285241,-1.11688 -1.539472,-1.49492 -0.463074,-0.68857 -0.686386,-1.41803 -0.776393,-2.5362 -0.0844,-1.04839 0.13086,-2.15804 0.57559,-2.96726 0.63016,-1.14652 2.259012,-2.92177 3.857845,-4.20482 1.030077,-0.82652 2.487968,-1.74064 2.720461,-1.70592 0.198423,0.0297 0.191445,0.13496 -0.03951,0.59662 -0.257479,0.51469 -0.383791,0.87341 -0.432219,1.22754 -0.09808,0.71718 0.142635,1.11914 1.501624,2.50758 0.936308,0.95657 1.343557,1.45042 1.841295,2.23265 0.545491,0.85749 0.646062,1.1346 0.679328,1.87184 0.06177,1.36916 -0.5152,2.70937 -1.56732,3.64079 -0.844999,0.74805 -1.427052,1.10468 -2.279592,1.39671 -0.878506,0.30094 -1.844029,0.41024 -2.50678,0.28374 z m 1.438098,-0.38843 c 0.448844,-0.0829 1.09177,-0.27882 1.465994,-0.44673 0.62159,-0.27888 1.100388,-0.61864 1.734214,-1.23063 0.515489,-0.49771 0.747242,-0.81603 0.967452,-1.32888 0.264007,-0.61481 0.33861,-0.92581 0.365204,-1.52248 0.04231,-0.94928 -0.04935,-1.23625 -0.708799,-2.21914 -0.509492,-0.75933 -0.793773,-1.09383 -1.783735,-2.09871 -1.35277,-1.37333 -1.644336,-1.91348 -1.527188,-2.82899 l 0.02994,-0.23397 -0.06858,0.14889 c -0.09254,0.20092 -0.119596,0.60056 -0.05899,0.87135 0.05548,0.24792 0.409468,0.85602 0.782744,1.34465 0.132418,0.17334 0.365494,0.47789 0.517949,0.67676 0.50232,0.65529 0.698991,1.11454 0.812151,1.89644 0.08761,0.60542 0.04169,1.07942 -0.149478,1.54303 -0.280857,0.68109 -0.633729,0.97293 -0.967613,0.80028 -0.222572,-0.11509 -0.247397,-0.17732 -0.247397,-0.62004 0,-0.35895 -0.01188,-0.42454 -0.09907,-0.54678 -0.150942,-0.21162 -0.30774,-0.26885 -0.896418,-0.32711 -0.6122,-0.0606 -0.796715,-0.13281 -1.090773,-0.42687 -0.101803,-0.1018 -0.246481,-0.29388 -0.321519,-0.42682 -0.09565,-0.16948 -0.146153,-0.22432 -0.168984,-0.18351 -0.05711,0.10205 -0.202105,0.9365 -0.231641,1.33305 -0.03425,0.45997 0.03634,1.15774 0.148043,1.46336 0.177714,0.48621 0.446915,0.81977 0.921902,1.14232 0.366925,0.24918 0.663265,0.32536 1.152096,0.2962 0.365687,-0.0218 0.399467,-0.017 0.456706,0.0647 0.04512,0.0644 0.05012,0.11008 0.01851,0.16916 -0.0525,0.0981 -0.0072,0.0846 -0.760925,0.22632 -0.501211,0.0942 -0.692962,0.11179 -1.022922,0.0937 -1.38586,-0.0759 -2.256439,-1.0512 -2.612254,-2.9261 -0.138734,-0.73134 -0.05468,-1.93905 0.190834,-2.74184 0.359175,-1.17437 1.807371,-2.98721 3.154256,-3.94821 0.294443,-0.21011 0.469714,-0.25081 0.539912,-0.12536 0.05149,0.092 0.05396,0.0888 0.170849,-0.22299 0.164691,-0.43921 0.172151,-0.42765 -0.149155,-0.23108 -1.970887,1.20579 -4.061879,3.17854 -5.197013,4.9031 -0.703187,1.06836 -0.929201,2.19985 -0.72798,3.64465 0.126808,0.91042 0.432138,1.62601 0.943784,2.21206 0.33718,0.38621 0.817489,0.80762 1.258664,1.10431 0.926677,0.62322 2.133279,0.89126 3.159079,0.70179 z m -0.840995,-2.94942 c -0.162456,-0.11409 -0.395448,-0.31694 -0.517756,-0.45076 -0.484924,-0.53059 -0.606107,-0.9087 -0.635385,-1.98246 -0.02339,-0.85782 0.04918,-1.36316 0.311132,-2.1664 0.227252,-0.69687 0.380077,-0.90655 0.554961,-0.76141 0.05326,0.0442 0.05969,0.11685 0.03576,0.40411 -0.02655,0.31876 -0.01953,0.37129 0.0781,0.58455 0.130812,0.28573 0.413102,0.60033 0.644743,0.71854 0.122271,0.0624 0.301357,0.0972 0.61876,0.12021 0.536889,0.0389 0.799192,0.12456 1.001619,0.32698 0.24989,0.24989 0.294765,0.37003 0.296903,0.7948 0.0011,0.22993 0.01984,0.38579 0.04735,0.39495 0.08142,0.0272 0.343241,-0.31095 0.439004,-0.56689 0.150018,-0.40096 0.1977,-0.88558 0.132552,-1.34725 -0.103185,-0.73126 -0.291662,-1.18245 -0.723543,-1.73213 -1.151453,-1.46543 -1.387371,-1.88599 -1.436973,-2.56176 l -0.02411,-0.32832 -0.114563,0.0816 c -0.222782,0.15864 -0.940425,0.86412 -1.270305,1.24881 -0.851751,0.99324 -1.286189,1.73791 -1.468309,2.51675 -0.13897,0.59435 -0.209983,1.30108 -0.174981,1.74129 0.06109,0.76843 0.338032,1.69417 0.651737,2.17862 0.383309,0.59184 1.024032,0.97853 1.639994,0.98975 l 0.208746,0.004 -0.29536,-0.20743 z"
       id="path4540"
       inkscape:connector-curvature="0"
       style="fill:#4d4d4d;stroke-width:0.04254017" />
    <path
       d="m 56.042399,162.93747 c -0.03378,-0.0407 -0.05053,-2.22975 -0.05965,-7.7956 l -0.01268,-7.73901 -0.09689,-0.34033 c -0.05329,-0.18718 -0.184243,-0.52126 -0.291003,-0.74238 -0.163967,-0.33963 -0.251128,-0.45856 -0.561232,-0.76574 -0.435981,-0.43189 -0.815382,-0.6589 -1.451909,-0.86877 -0.965764,-0.31842 -0.484667,-0.29884 -7.946094,-0.32355 -5.884203,-0.0195 -6.696161,-0.0299 -6.73298,-0.086 -0.02533,-0.0385 -0.03735,-0.4428 -0.03035,-1.02098 0.01158,-0.9557 0.01178,-0.95755 0.132894,-1.20419 0.158613,-0.32301 0.44349,-0.55025 0.850192,-0.67812 l 0.304733,-0.0958 h 7.806212 c 7.320163,0 7.829365,0.005 8.178427,0.0758 1.284742,0.2617 2.139067,0.71511 2.788954,1.48013 0.330218,0.38876 0.645949,1.01292 0.805865,1.59309 l 0.11698,0.42441 0.01122,9.00437 c 0.01018,8.17135 0.005,9.01064 -0.05622,9.07174 -0.05945,0.0594 -0.283059,0.0674 -1.888405,0.0674 -1.463518,0 -1.830201,-0.0111 -1.867985,-0.0566 z m 3.439004,-9.10036 c -8.04e-4,-9.53769 0.01196,-8.99714 -0.228795,-9.68481 -0.389547,-1.11262 -1.255738,-1.90046 -2.501796,-2.27573 -0.918847,-0.27666 -0.328336,-0.25927 -8.797282,-0.25927 -7.207293,0 -7.693503,0.005 -7.920369,0.0748 -0.297787,0.0921 -0.577647,0.3 -0.703798,0.52274 -0.08945,0.15792 -0.0953,0.21815 -0.09596,0.9871 l -7.07e-4,0.8189 h 6.421542 c 5.451694,0 6.494055,0.01 6.902285,0.0635 1.983268,0.26203 3.175479,1.19519 3.659117,2.86421 l 0.09468,0.32671 0.01212,7.6361 c 0.0067,4.19983 0.02099,7.66006 0.03185,7.68916 0.01529,0.0412 0.369433,0.0532 1.5738,0.0532 h 1.554071 z m -20.078675,9.0428 c -1.016041,-0.16675 -1.191134,-0.20664 -1.191134,-0.27134 0,-0.0983 0.35411,-0.41376 0.592359,-0.52764 0.202781,-0.0969 0.258444,-0.1441 0.258444,-0.21901 0,-0.0669 0.152166,-0.23887 0.508157,-0.57437 0.543063,-0.51177 0.645885,-0.58686 0.807054,-0.58922 0.210482,-0.003 0.02628,-0.0679 -0.429984,-0.15137 l -0.470549,-0.0861 0.493702,-0.26755 c 0.271532,-0.14715 0.502835,-0.28233 0.51401,-0.3004 0.01117,-0.0181 -0.209775,-0.16526 -0.491002,-0.32705 l -0.511308,-0.29419 0.02761,-0.33837 c 0.01878,-0.23015 0.06045,-0.40316 0.130281,-0.54097 0.07126,-0.14063 0.102672,-0.27367 0.102672,-0.43492 0,-0.19826 0.01588,-0.2448 0.108349,-0.31753 0.05959,-0.0469 0.166202,-0.0979 0.236915,-0.11347 0.118891,-0.0261 0.123546,-0.0338 0.06181,-0.10201 -0.03672,-0.0406 -0.06676,-0.0965 -0.06676,-0.12427 0,-0.0291 -0.05045,-0.0467 -0.119118,-0.0414 -0.166042,0.0127 -0.357358,-0.13093 -0.322066,-0.24171 0.01491,-0.0468 0.03251,-0.27652 0.03913,-0.51049 0.0066,-0.23397 0.02321,-0.5307 0.03689,-0.65937 0.01634,-0.1538 0.0028,-0.30628 -0.03961,-0.44496 -0.05831,-0.19083 -0.05776,-0.23857 0.0057,-0.49986 0.0509,-0.20942 0.08922,-0.28886 0.139306,-0.28886 0.038,0 0.09166,-0.0361 0.119239,-0.0803 0.04411,-0.0706 0.03533,-0.0832 -0.07292,-0.1049 -0.06768,-0.0135 -0.155045,-0.0734 -0.194146,-0.1331 -0.06203,-0.0947 -0.06418,-0.13312 -0.0169,-0.30198 0.03779,-0.13497 0.04681,-0.35922 0.02982,-0.74125 -0.01975,-0.44403 -0.01289,-0.55724 0.03624,-0.59801 0.03333,-0.0277 0.0606,-0.11429 0.0606,-0.1925 0,-0.0985 0.04071,-0.18856 0.132441,-0.29304 0.101165,-0.11522 0.121343,-0.16421 0.08545,-0.20746 -0.02584,-0.0311 -0.0344,-0.0692 -0.019,-0.0846 0.0154,-0.0154 -0.02048,-0.028 -0.07971,-0.028 -0.05924,0 -0.16072,-0.0417 -0.225516,-0.0927 -0.115304,-0.0907 -0.117269,-0.0997 -0.09242,-0.42183 0.01396,-0.18105 0.0073,-0.64479 -0.01475,-1.03055 -0.03235,-0.56528 -0.02868,-0.73946 0.0189,-0.89756 0.055,-0.18276 0.0535,-0.19914 -0.02207,-0.23958 -0.07248,-0.0388 -0.08111,-0.0948 -0.08111,-0.52658 0,-0.39995 0.01151,-0.4876 0.06683,-0.50882 0.05891,-0.0226 0.05705,-0.0395 -0.01569,-0.14281 -0.04539,-0.0644 -0.09687,-0.16503 -0.114406,-0.22352 -0.01753,-0.0585 -0.05584,-0.13507 -0.08513,-0.17016 -0.02929,-0.0351 -0.07237,-0.24069 -0.09574,-0.45686 -0.02337,-0.21619 -0.06483,-0.41997 -0.09213,-0.45287 -0.0273,-0.0329 -0.112193,-0.0715 -0.188663,-0.0859 -0.123896,-0.0232 -0.148799,-0.0532 -0.228844,-0.27573 l -0.08982,-0.24965 0.339141,-0.13275 c 0.186526,-0.073 0.419405,-0.14346 0.517515,-0.15655 0.306727,-0.0409 0.555604,-0.11296 0.710134,-0.20553 0.141007,-0.0845 0.340411,-0.1468 0.978433,-0.30582 0.349608,-0.0872 0.695084,-0.0593 0.829291,0.0667 0.07837,0.0736 0.09951,0.14917 0.116698,0.41691 0.01558,0.24281 0.0051,0.35128 -0.0408,0.4213 -0.06161,0.094 -0.05852,0.31546 0.01153,0.82738 l 0.02706,0.1977 -0.21873,0.0469 c -0.120303,0.0258 -0.237703,0.0469 -0.260904,0.0469 -0.0232,0 -0.09887,0.0419 -0.168164,0.0931 -0.149392,0.11046 -0.100954,0.16198 0.124222,0.13212 0.126064,-0.0167 0.172875,-3.4e-4 0.257238,0.0899 0.05672,0.0607 0.125543,0.11028 0.152934,0.11028 0.02739,0 0.08373,0.0375 0.12519,0.0833 0.07267,0.0803 0.07078,0.0891 -0.05269,0.24462 -0.07044,0.0887 -0.206688,0.23386 -0.302772,0.32255 -0.09608,0.0887 -0.174691,0.18146 -0.174691,0.20615 0,0.0247 -0.0296,0.14673 -0.06578,0.27118 -0.05668,0.19499 -0.09931,0.25123 -0.308416,0.40688 -0.133455,0.0993 -0.250855,0.18736 -0.260904,0.1956 -0.01004,0.008 0.01466,0.084 0.05489,0.16835 0.04231,0.0887 0.09156,0.35305 0.116814,0.62695 0.0629,0.68211 0.04308,0.63768 0.323899,0.72581 0.445596,0.13981 0.581426,0.29714 0.459697,0.53253 -0.05859,0.11329 -0.05938,0.14174 -0.0063,0.22547 0.08687,0.13697 0.123485,0.4203 0.07186,0.55608 -0.02428,0.0639 -0.10909,0.15444 -0.188454,0.20127 l -0.144307,0.0851 0.116869,0.12511 c 0.06428,0.0688 0.149907,0.19473 0.190288,0.27983 0.06801,0.14333 0.06842,0.1678 0.0055,0.33252 -0.05541,0.14509 -0.0679,0.36724 -0.0679,1.20745 v 1.02966 l -0.178116,0.11244 -0.178116,0.11244 0.17691,0.16503 0.17691,0.16503 0.02526,0.87252 c 0.02455,0.84801 0.0222,0.88319 -0.08388,1.25191 -0.06003,0.20867 -0.109143,0.46748 -0.109143,0.57516 0,0.12335 -0.02985,0.23843 -0.08068,0.31105 -0.04438,0.0634 -0.09176,0.17747 -0.105288,0.25353 -0.02168,0.12183 -0.01336,0.13832 0.07005,0.13878 0.06205,3.2e-4 0.12974,0.0547 0.196526,0.15768 0.100083,0.1544 0.101456,0.16993 0.07832,0.88595 -0.01295,0.40084 -0.0098,0.75097 0.0069,0.77807 0.04093,0.0662 0.401155,0.16998 0.756632,0.21792 1.326707,0.17897 1.658967,0.21441 2.010601,0.21446 l 0.401831,4e-5 0.172456,0.19048 0.172457,0.19048 0.446673,-0.1698 0.446674,-0.16981 0.446673,0.0508 c 0.361635,0.0411 1.10616,0.0711 1.871844,0.0752 1.514873,0.008 2.117361,-0.0237 3.977629,-0.21029 0.655066,-0.0657 0.679119,-0.0626 0.875211,0.11458 0.192988,0.17436 0.229792,0.15913 0.276081,-0.11424 0.04039,-0.2385 0.04621,-0.24526 0.238957,-0.27748 0.101069,-0.0169 0.395673,-0.0948 0.654696,-0.17313 0.509346,-0.15403 0.883378,-0.21448 1.057153,-0.17088 0.225997,0.0567 0.104503,0.36424 -0.364609,0.92287 -0.240694,0.28663 -0.766553,0.67706 -0.911886,0.67706 -0.06096,0 -0.168967,0.0414 -0.240018,0.092 l -0.129176,0.092 -0.432927,-0.2153 -0.432926,-0.21531 -0.816412,0.22746 c -0.708445,0.19738 -0.83421,0.22126 -0.951019,0.18053 -0.09571,-0.0334 -0.461466,-0.0361 -1.265578,-0.01 -0.62204,0.0206 -1.593801,0.0342 -2.159486,0.0303 -1.119939,-0.008 -1.161261,-0.0157 -1.533636,-0.29481 l -0.1373,-0.10293 -0.641945,0.17355 c -0.353065,0.0955 -0.67415,0.16375 -0.71351,0.15174 -0.03936,-0.012 -0.428762,-0.0417 -0.865322,-0.066 -0.43656,-0.0243 -0.879616,-0.056 -0.984559,-0.0704 -0.168164,-0.0231 -0.194163,-0.0156 -0.218972,0.0625 -0.03283,0.10345 -0.117518,0.0952 -0.591507,-0.0575 -0.283687,-0.0914 -0.295826,-0.0919 -0.447815,-0.0185 -0.252688,0.12209 -0.668298,0.17919 -1.075595,0.1478 -0.282465,-0.0218 -0.414565,-0.0128 -0.565155,0.0383 -0.181364,0.0616 -0.576876,0.0795 -0.83167,0.0377 z m 8.55868,-2.71612 c -1.175828,-0.20683 -2.348247,-0.88725 -3.205867,-1.86043 -0.793741,-0.90076 -1.119521,-1.80239 -1.171776,-3.24317 -0.0363,-1.00064 0.124654,-1.82634 0.50507,-2.59119 0.182425,-0.36676 0.210643,-0.4104 0.64418,-0.99652 1.35433,-1.83101 3.525023,-3.75205 5.457322,-4.82995 0.474023,-0.2644 0.592118,-0.28957 0.660001,-0.14058 0.03755,0.0824 0.02012,0.14402 -0.105307,0.37223 -0.364111,0.66251 -0.566586,1.35952 -0.515585,1.77505 0.06008,0.48949 0.443281,1.03011 1.423322,2.00803 0.894601,0.89269 1.336997,1.41364 1.815088,2.1373 0.691065,1.04611 0.799208,1.35034 0.797761,2.24438 -8.04e-4,0.48422 -0.02041,0.69459 -0.09128,0.97843 -0.121086,0.48499 -0.421253,1.19646 -0.646913,1.53335 -0.23796,0.35525 -1.023003,1.13467 -1.511464,1.50063 -1.126612,0.84408 -2.866614,1.32148 -4.054645,1.11249 z m 1.42382,-0.38157 c 1.299439,-0.24862 2.338439,-0.814 3.295424,-1.79322 0.494217,-0.50572 0.703493,-0.82042 0.924861,-1.39078 0.261595,-0.67404 0.317338,-0.99575 0.294861,-1.7019 -0.01763,-0.55387 -0.02959,-0.62648 -0.149854,-0.90999 -0.154306,-0.36377 -0.821428,-1.37927 -1.222889,-1.86155 -0.155831,-0.18719 -0.651512,-0.71362 -1.101513,-1.16986 -0.849758,-0.86156 -1.0946,-1.16469 -1.372499,-1.69933 l -0.164642,-0.31671 v -0.52658 c 0,-0.49408 -0.0037,-0.51785 -0.0608,-0.38521 -0.09797,0.2278 -0.109132,0.71517 -0.0224,0.97834 0.08084,0.24529 0.564528,1.01578 0.880613,1.40277 0.935922,1.14588 1.167595,1.6736 1.211039,2.75873 0.01809,0.45191 0.0081,0.6322 -0.04682,0.84603 -0.212717,0.82797 -0.693846,1.33674 -1.076849,1.13868 -0.222412,-0.11501 -0.246674,-0.17666 -0.246674,-0.62675 0,-0.35094 -0.01347,-0.43357 -0.08729,-0.5355 -0.156325,-0.21586 -0.420466,-0.31188 -0.960104,-0.34903 -0.372408,-0.0256 -0.526889,-0.0554 -0.669681,-0.12908 -0.238538,-0.12304 -0.518125,-0.41172 -0.690373,-0.71277 -0.162745,-0.28446 -0.168646,-0.27802 -0.300328,0.32831 -0.07774,0.35792 -0.09649,0.5765 -0.09653,1.12489 -8.6e-5,0.9981 0.143983,1.45567 0.605688,1.92394 0.547179,0.55489 1.142095,0.79522 1.712508,0.69177 0.289571,-0.0525 0.379723,-0.017 0.379723,0.14946 0,0.1322 -0.06902,0.17537 -0.33443,0.20913 -0.125441,0.016 -0.345589,0.0604 -0.489217,0.0987 -0.326391,0.0871 -1.238196,0.0966 -1.516094,0.0157 -0.73311,-0.21325 -1.249258,-0.69147 -1.647391,-1.52632 -0.523383,-1.09737 -0.619644,-2.51482 -0.265357,-3.90737 0.314187,-1.23477 1.859625,-3.20072 3.268251,-4.15771 0.265325,-0.18025 0.41696,-0.19934 0.470807,-0.0592 0.03595,0.0935 0.03789,0.0928 0.08491,-0.0319 0.02647,-0.0702 0.08837,-0.22881 0.137565,-0.35248 0.04919,-0.12368 0.08165,-0.23267 0.07212,-0.24219 -0.02556,-0.0256 -0.711018,0.40945 -1.225477,0.77774 -1.931174,1.38245 -4.007535,3.59239 -4.619318,4.91645 -0.25325,0.54811 -0.445097,1.44014 -0.445097,2.06944 0,0.38925 0.105168,1.17279 0.214003,1.59438 0.254746,0.98685 0.961037,1.90224 2.017675,2.61515 1.000718,0.6751 2.185694,0.94768 3.241561,0.74567 z m -0.908251,-2.99203 c -0.809932,-0.60053 -1.064533,-1.1456 -1.107591,-2.37124 -0.01711,-0.48704 -0.0055,-0.74262 0.04838,-1.06352 0.09376,-0.55861 0.249504,-1.12732 0.420658,-1.53619 0.135768,-0.3243 0.142916,-0.3326 0.286613,-0.3326 h 0.147371 l -0.01478,0.38973 c -0.01336,0.35239 -0.0041,0.41107 0.09711,0.61249 0.159514,0.31758 0.343579,0.53478 0.561409,0.66243 0.155142,0.0909 0.270712,0.11714 0.644727,0.1463 0.668201,0.0521 0.876946,0.13092 1.130197,0.42679 0.189596,0.22149 0.268493,0.5473 0.207395,0.85636 -0.03312,0.16754 -0.02966,0.21418 0.01724,0.23219 0.11386,0.0437 0.279233,-0.12349 0.424276,-0.42894 0.434229,-0.91436 0.232574,-2.24261 -0.480116,-3.16262 -0.710777,-0.91743 -0.915053,-1.19833 -1.113669,-1.53135 -0.263476,-0.44175 -0.358934,-0.73758 -0.363998,-1.12798 -0.002,-0.15787 -0.02122,-0.28709 -0.0426,-0.28714 -0.1262,-3.9e-4 -0.984849,0.84686 -1.573977,1.55303 -0.933977,1.11953 -1.287572,1.89435 -1.43239,3.13914 -0.119038,1.02303 0.144348,2.33667 0.613711,3.061 0.397024,0.61262 1.02937,1.00184 1.637583,1.00797 l 0.227027,0.002 -0.334559,-0.24806 z"
       id="path4542"
       inkscape:connector-curvature="0"
       style="fill:#010100;stroke-width:0.04254017" />
  </g>
</svg>
