<svg width="134.94mm" height="135.72mm" version="1.1" viewBox="0 0 134.93564 135.72325" xmlns="http://www.w3.org/2000/svg"><g transform="translate(-38.177 -27.311)" stroke-width=".26458"><path d="m149.18 162.45c-0.36906-0.5269-0.41188-5.5073-0.41188-47.901 0-51.629 0.0791-48.808-1.4914-53.162-2.8046-7.775-9.6207-12.465-20.116-13.841-2.5724-0.33722-9.0812-0.39793-43.427-0.40508-33.175-0.0069-40.484-0.07128-40.865-0.3599-0.41732-0.31679-0.46302-0.95107-0.46302-6.4267 0-6.8036 0.16497-7.7209 1.714-9.5307 1.0397-1.2147 3.3614-2.5072 5.4297-3.0229 1.2059-0.30067 9.6581-0.36282 49.345-0.36282 45.359 0 48.036 0.02578 50.668 0.48791 5.6267 0.9882 10.143 2.8379 13.971 5.7223 4.6598 3.5113 7.5482 8.0955 9.0515 14.366 0.51129 2.1327 0.52218 3.3447 0.524 58.283 1e-3 43.286-0.0707 56.177-0.31565 56.422-0.23715 0.23715-3.2128 0.3175-11.759 0.3175h-11.441zm-104.53-0.35207c-4.178-0.68381-6.4823-1.2419-6.4823-1.5699 0-0.70743 2.1024-2.6775 3.6433-3.414 1.2607-0.60256 1.6273-0.91593 1.7419-1.4888 0.16378-0.81889 6.04-6.53 7.2556-7.0517 0.8547-0.36683 0.69699-0.44042-1.9252-0.89835-3.1607-0.55196-3.1639-0.50631 0.16438-2.34 1.6558-0.9123 3.0936-1.7374 3.1951-1.8336s-1.2442-1.0084-2.9903-2.027l-3.1748-1.8521 0.17966-1.9844c0.11424-1.2618 0.40829-2.4388 0.8075-3.2324 0.43656-0.86778 0.62784-1.6977 0.62784-2.724 0-1.2076 0.11614-1.5922 0.63867-2.1147 0.35127-0.35127 0.94658-0.71595 1.3229-0.81041 0.65618-0.16469 0.96845-0.64353 0.41966-0.64353-0.14552 0-0.26458-0.22698-0.26458-0.5044 0-0.37071-0.13745-0.46845-0.51862-0.36878-0.76444 0.19991-2.4744-0.92708-2.2357-1.4735 0.10364-0.23729 0.28588-2.394 0.40497-4.7927 0.1699-3.4221 0.1387-4.6234-0.14491-5.5784-0.30681-1.0331-0.30558-1.4325 0.0081-2.6417 0.20325-0.78353 0.36954-1.6368 0.36954-1.8961 0-0.29034 0.19732-0.47151 0.51355-0.47151 0.70558 0 0.92933-0.45543 0.31893-0.64916-0.27396-0.087-0.69375-0.37427-0.93286-0.63848-0.38257-0.42273-0.40793-0.9058-0.21137-4.0252 0.14076-2.2339 0.12664-3.9259-0.03818-4.5753-0.20566-0.81022-0.17155-1.2066 0.15957-1.855 0.23162-0.45352 0.49834-1.2144 0.59273-1.6908 0.09439-0.47643 0.47298-1.2244 0.84133-1.6622l0.66972-0.79592-0.60033-0.52066c-0.33018-0.28636-0.74225-0.52066-0.91571-0.52066s-0.52676-0.23356-0.7851-0.51903c-0.41947-0.4635-0.48004-1.2695-0.56622-7.5338-0.05729-4.1645 0.0082-7.2901 0.16117-7.6925 0.20017-0.52649 0.16977-0.71146-0.13624-0.82889-0.31951-0.12261-0.39392-0.77052-0.39392-3.4301 0-1.8115 0.10857-3.279 0.2426-3.279 0.20717 0-0.30317-1.2462-1.0835-2.6458-0.59224-1.0622-0.72994-1.6091-0.8891-3.5306-0.18862-2.2773-0.66542-3.0839-1.8229-3.0839-0.53687 0-0.73254-0.24078-1.1906-1.4651-0.3015-0.80582-0.54818-1.5785-0.54818-1.7172 0-0.63935 3.9341-2.0123 7.1763-2.5044 0.52721-0.08002 1.5392-0.45185 2.249-0.82628 0.70971-0.37443 1.7071-0.77758 2.2164-0.89589s1.7591-0.46425 2.7773-0.76875c2.0392-0.60986 5.2508-0.74214 6.3092-0.25988 0.77169 0.3516 1.2519 1.2937 1.051 2.0619-0.08009 0.30628-0.01037 1.094 0.15495 1.7506 0.26396 1.0483 0.23877 1.2818-0.20682 1.9172-0.41457 0.5911-0.48225 1.026-0.36993 2.3771 0.07561 0.90951 0.24222 1.6536 0.37025 1.6536 0.12803 0 0.23278 0.58414 0.23278 1.2981v1.2981l-1.3891 0.18426c-1.5305 0.20302-3.1089 0.83658-3.1089 1.2479 0 0.15905 0.37362 0.19379 0.94051 0.08744 0.8058-0.15117 1.0724-0.06064 1.8613 0.63201 0.50643 0.44465 1.0059 0.81224 1.11 0.81687 0.10408 0.0046 0.41136 0.17665 0.68286 0.38228 0.47925 0.36297 0.4769 0.40092-0.08061 1.303-0.31583 0.51102-1.1421 1.4403-1.8362 2.0651-1.0725 0.96552-1.3341 1.4032-1.7431 2.9166-0.45435 1.6811-0.57396 1.851-2.1421 3.0427l-1.6609 1.2622 0.49277 0.80018c0.35458 0.57578 0.58254 1.7829 0.81289 4.3045 0.31468 3.4448 0.3318 3.5072 1.0075 3.6709 1.4514 0.35166 3.4395 1.3897 3.844 2.0071 0.38217 0.58327 0.3838 0.73745 0.01702 1.6153-0.36301 0.86881-0.36339 1.0518-0.0036 1.7476 0.22103 0.42743 0.40188 1.3952 0.40188 2.1506 0 1.2116-0.10251 1.4692-0.87009 2.1864l-0.87009 0.81293 0.89221 1.3258c0.78109 1.1607 0.86931 1.4585 0.7084 2.3908-0.1011 0.58576-0.25988 4.1597-0.35285 7.9422l-0.16904 6.8771-1.0152 0.65657-1.0152 0.65657 1.0384 0.96861 1.0384 0.96861 0.17432 5.405c0.1689 5.2371 0.15397 5.4744-0.48067 7.6373-0.36024 1.2277-0.65749 2.8794-0.66054 3.6704-4e-3 1.0263-0.14692 1.5946-0.49919 1.9844-0.2715 0.30042-0.56618 0.93317-0.65484 1.4061-0.13329 0.71099-0.07885 0.8599 0.31435 0.8599 0.2666 0 0.79476 0.48754 1.202 1.1096l0.72646 1.1096-0.18432 4.7774-0.18432 4.7774 1.4231 0.36237c0.7827 0.1993 2.1375 0.45807 3.0106 0.57505 0.87312 0.11697 3.433 0.45979 5.6885 0.76181 2.2556 0.30203 5.3448 0.54927 6.8648 0.54943l2.7638 2.7e-4 1.0726 1.2157 1.0726 1.2157 2.8121-1.0579 2.8121-1.0579 3.2733 0.38512c1.8003 0.21182 3.9281 0.3563 4.7285 0.32106 1.7786-0.0783 2.2922-0.0738 9.9219 0.0874 3.347 0.0707 6.8593 0.0319 7.8052-0.0863 0.94589-0.11819 3.8629-0.39453 6.4823-0.61409 2.6194-0.21957 5.4769-0.46522 6.35-0.54589 5.2509-0.48513 4.6423-0.5411 5.8996 0.54263 0.62542 0.53909 1.2082 0.90909 1.295 0.82224 0.0869-0.0869 0.21506-0.75254 0.28489-1.4793 0.13901-1.4467 0.0448-1.3773 2.5415-1.8727 0.85491-0.16964 2.206-0.5326 3.0024-0.8066 2.4281-0.83538 5.3392-1.339 6.6253-1.1461l1.1821 0.17727-0.13192 1.1704c-0.0726 0.64372-0.30298 1.3128-0.51205 1.4867-0.20906 0.17398-0.60085 0.67351-0.87065 1.1101-1.6497 2.6694-6.0601 6.4823-7.4982 6.4823-0.42153 0-1.0806 0.2471-1.4645 0.54912l-0.69809 0.54912-2.7801-1.328-2.7801-1.328-4.6935 1.2878-4.6934 1.2879-3.3073-0.17822c-1.819-0.098-5.0932-0.0963-7.276 4e-3 -5.3354 0.2447-9.4998 0.31445-14.42 0.24154-4.4253-0.0656-5.4091-0.30452-7.3506-1.7854l-0.89747-0.68454-3.7152 0.99402c-3.4488 0.92273-3.8883 0.98187-6.1286 0.82467-10.287-0.72183-11.057-0.73826-11.42-0.24365-0.32973 0.44947-0.45424 0.44224-2.6811-0.15581-2.7896-0.74916-2.746-0.74855-4.5843-0.0642-1.183 0.44045-2.0985 0.54393-4.8948 0.55328-2.2576 8e-3 -3.8859 0.14689-4.7384 0.40551-1.5285 0.46368-3.2014 0.45904-6.1095-0.0169zm52.917-17.048c-7.3058-1.6614-14.224-6.0631-19.471-12.389-4.5815-5.523-6.4302-11.475-6.4255-20.688 0.0044-8.6814 1.6946-13.628 7.1584-20.95 8.5077-11.401 21.125-22.685 32.963-29.482 3.4822-1.9992 4.5474-2.406 5.0999-1.9474 0.64038 0.53147 0.44959 1.4041-0.90403 4.1347-1.966 3.9659-2.5252 5.8818-2.5364 8.6891-9e-3 2.2731 0.0366 2.4645 1.0039 4.2148 1.5929 2.8822 3.1217 4.708 8.1026 9.6768 5.6261 5.6124 8.0775 8.563 11.438 13.767 3.1449 4.8703 4.1262 7.2606 4.4329 10.798 0.25028 2.886-0.0214 6.6285-0.66004 9.0934-0.61737 2.3826-2.64 7.0766-3.8807 9.006-1.3572 2.1105-6.2652 7.0062-9.2995 9.2763-4.2578 3.1853-9.6991 5.5548-15.644 6.8126-3.1551 0.66749-8.409 0.66108-11.377-0.0139zm5.1558-20.287c-2.2678-1.5147-4.7782-4.2215-5.7261-6.1742-1.3621-2.806-1.8001-5.3154-1.8012-10.319-7.94e-4 -3.5792 0.1108-4.8899 0.61963-7.276 0.73279-3.4364 1.8535-6.9756 2.8008-8.845 0.58421-1.1529 0.78888-1.3415 1.4559-1.3415 1.1043 0 1.3114 0.57577 1.1428 3.1778-0.16053 2.4779 0.0559 3.158 1.741 5.4696 1.325 1.8177 2.8261 2.5197 5.8961 2.7575 3.5356 0.27387 5.1638 0.78571 6.6439 2.0885 1.6274 1.4325 2.1373 2.8072 2.0059 5.408-0.0722 1.4292-0.0109 2.0006 0.21449 2.0006 0.64515 0 1.8996-1.6172 2.6068-3.3605 1.031-2.5418 1.2168-7.0573 0.43522-10.582-0.87979-3.9682-1.9428-5.8358-6.7317-11.827-2.5381-3.1753-5.1306-7.4071-5.7475-9.3815-0.29693-0.95044-0.52533-2.4267-0.52533-3.3955 0-0.95964-0.10981-1.6752-0.24952-1.6258-0.55855 0.19742-4.7717 4.0469-6.3717 5.8217-6.9345 7.6921-9.8855 12.561-11.279 18.608-0.65984 2.8634-0.73121 3.6555-0.72703 8.0698 0.0044 4.6761 0.0428 5.0367 0.8588 8.0698 0.46979 1.7462 1.375 4.2489 2.0117 5.5615 1.9657 4.053 5.2904 6.8101 9.2511 7.6719 2.8615 0.6226 3.1199 0.52152 1.4752-0.57696z" fill="#fdfd64"/><path d="m149.18 162.45c-0.36906-0.5269-0.41188-5.5073-0.41188-47.901 0-51.629 0.0791-48.808-1.4914-53.162-2.8046-7.775-9.6207-12.465-20.116-13.841-2.5724-0.33722-9.0812-0.39793-43.427-0.40508-33.175-0.0069-40.484-0.07128-40.865-0.3599-0.41732-0.31679-0.46302-0.95107-0.46302-6.4267 0-6.8036 0.16497-7.7209 1.714-9.5307 1.0397-1.2147 3.3614-2.5072 5.4297-3.0229 1.2059-0.30067 9.6581-0.36282 49.345-0.36282 45.359 0 48.036 0.02578 50.668 0.48791 5.6267 0.9882 10.143 2.8379 13.971 5.7223 4.6598 3.5113 7.5482 8.0955 9.0515 14.366 0.51129 2.1327 0.52218 3.3447 0.524 58.283 1e-3 43.286-0.0707 56.177-0.31565 56.422-0.23715 0.23715-3.2128 0.3175-11.759 0.3175h-11.441zm21.549-56.19c0-53.611-5e-3 -54.158-0.54502-56.819-2.2003-10.849-9.5653-17.228-22.029-19.078-2.414-0.35844-8.6361-0.41013-49.375-0.41013-41.369 0-46.818 0.04665-48.436 0.41463-2.1197 0.48211-3.636 1.4737-4.6925 3.0687-0.72628 1.0964-0.73342 1.1498-0.81489 6.0875l-0.08218 4.9813 39.373 0.0046c23.917 0.0028 40.359 0.10682 41.886 0.26502 12.645 1.3102 20.68 6.8195 23.956 16.426 1.4976 4.3912 1.4442 2.44 1.4442 52.792v46.4h19.315zm-126.07 55.838c-4.178-0.68381-6.4823-1.2419-6.4823-1.5699 0-0.70743 2.1024-2.6775 3.6433-3.414 1.2607-0.60256 1.6273-0.91593 1.7419-1.4888 0.16378-0.81889 6.04-6.53 7.2556-7.0517 0.8547-0.36683 0.69699-0.44042-1.9252-0.89835-3.1607-0.55196-3.1639-0.50631 0.16438-2.34 1.6558-0.9123 3.0936-1.7374 3.1951-1.8336s-1.2442-1.0084-2.9903-2.027l-3.1748-1.8521 0.17966-1.9844c0.11424-1.2618 0.40829-2.4388 0.8075-3.2324 0.43656-0.86778 0.62784-1.6977 0.62784-2.724 0-1.2076 0.11614-1.5922 0.63867-2.1147 0.35127-0.35127 0.94658-0.71595 1.3229-0.81041 0.65618-0.16469 0.96845-0.64353 0.41966-0.64353-0.14552 0-0.26458-0.22698-0.26458-0.5044 0-0.37071-0.13745-0.46845-0.51862-0.36878-0.76444 0.19991-2.4744-0.92708-2.2357-1.4735 0.10364-0.23729 0.28588-2.394 0.40497-4.7927 0.1699-3.4221 0.1387-4.6234-0.14491-5.5784-0.30681-1.0331-0.30558-1.4325 0.0081-2.6417 0.20325-0.78353 0.36954-1.6368 0.36954-1.8961 0-0.29034 0.19732-0.47151 0.51355-0.47151 0.70558 0 0.92933-0.45543 0.31893-0.64916-0.27396-0.087-0.69375-0.37427-0.93286-0.63848-0.38257-0.42273-0.40793-0.9058-0.21137-4.0252 0.14076-2.2339 0.12664-3.9259-0.03818-4.5753-0.20566-0.81022-0.17155-1.2066 0.15957-1.855 0.23162-0.45352 0.49834-1.2144 0.59273-1.6908 0.09439-0.47643 0.47298-1.2244 0.84133-1.6622l0.66972-0.79592-0.60033-0.52066c-0.33018-0.28636-0.74225-0.52066-0.91571-0.52066s-0.52676-0.23356-0.7851-0.51903c-0.41947-0.4635-0.48004-1.2695-0.56622-7.5338-0.05729-4.1645 0.0082-7.2901 0.16117-7.6925 0.20017-0.52649 0.16977-0.71146-0.13624-0.82889-0.31951-0.12261-0.39392-0.77052-0.39392-3.4301 0-1.8115 0.10857-3.279 0.2426-3.279 0.20717 0-0.30317-1.2462-1.0835-2.6458-0.59224-1.0622-0.72994-1.6091-0.8891-3.5306-0.18862-2.2773-0.66542-3.0839-1.8229-3.0839-0.53687 0-0.73254-0.24078-1.1906-1.4651-0.3015-0.80582-0.54818-1.5785-0.54818-1.7172 0-0.63935 3.9341-2.0123 7.1763-2.5044 0.52721-0.08002 1.5392-0.45185 2.249-0.82628 0.70971-0.37443 1.7071-0.77758 2.2164-0.89589s1.7591-0.46425 2.7773-0.76875c2.0392-0.60986 5.2508-0.74214 6.3092-0.25988 0.77169 0.3516 1.2519 1.2937 1.051 2.0619-0.08009 0.30628-0.01037 1.094 0.15495 1.7506 0.26396 1.0483 0.23877 1.2818-0.20682 1.9172-0.41457 0.5911-0.48225 1.026-0.36993 2.3771 0.07561 0.90951 0.24222 1.6536 0.37025 1.6536 0.12803 0 0.23278 0.58414 0.23278 1.2981v1.2981l-1.3891 0.18426c-1.5305 0.20302-3.1089 0.83658-3.1089 1.2479 0 0.15905 0.37362 0.19379 0.94051 0.08744 0.8058-0.15117 1.0724-0.06064 1.8613 0.63201 0.50643 0.44465 1.0059 0.81224 1.11 0.81687 0.10408 0.0046 0.41136 0.17665 0.68286 0.38228 0.47925 0.36297 0.4769 0.40092-0.08061 1.303-0.31583 0.51102-1.1421 1.4403-1.8362 2.0651-1.0725 0.96552-1.3341 1.4032-1.7431 2.9166-0.45435 1.6811-0.57396 1.851-2.1421 3.0427l-1.6609 1.2622 0.49277 0.80018c0.35458 0.57578 0.58254 1.7829 0.81289 4.3045 0.31468 3.4448 0.3318 3.5072 1.0075 3.6709 1.4514 0.35166 3.4395 1.3897 3.844 2.0071 0.38217 0.58327 0.3838 0.73745 0.01702 1.6153-0.36301 0.86881-0.36339 1.0518-0.0036 1.7476 0.22103 0.42743 0.40188 1.3952 0.40188 2.1506 0 1.2116-0.10251 1.4692-0.87009 2.1864l-0.87009 0.81293 0.89221 1.3258c0.78109 1.1607 0.86931 1.4585 0.7084 2.3908-0.1011 0.58576-0.25988 4.1597-0.35285 7.9422l-0.16904 6.8771-1.0152 0.65657-1.0152 0.65657 1.0384 0.96861 1.0384 0.96861 0.17432 5.405c0.1689 5.2371 0.15397 5.4744-0.48067 7.6373-0.36024 1.2277-0.65749 2.8794-0.66054 3.6704-4e-3 1.0263-0.14692 1.5946-0.49919 1.9844-0.2715 0.30042-0.56618 0.93317-0.65484 1.4061-0.13329 0.71099-0.07885 0.8599 0.31435 0.8599 0.2666 0 0.79476 0.48754 1.202 1.1096l0.72646 1.1096-0.18432 4.7774-0.18432 4.7774 1.4231 0.36237c0.7827 0.1993 2.1375 0.45807 3.0106 0.57505 0.87312 0.11697 3.433 0.45979 5.6885 0.76181 2.2556 0.30203 5.3448 0.54927 6.8648 0.54943l2.7638 2.7e-4 1.0726 1.2157 1.0726 1.2157 2.8121-1.0579 2.8121-1.0579 3.2733 0.38512c1.8003 0.21182 3.9281 0.3563 4.7285 0.32106 1.7786-0.0783 2.2922-0.0738 9.9219 0.0874 3.347 0.0707 6.8593 0.0319 7.8052-0.0863 0.94589-0.11819 3.8629-0.39453 6.4823-0.61409 2.6194-0.21957 5.4769-0.46522 6.35-0.54589 5.2509-0.48513 4.6423-0.5411 5.8996 0.54263 0.62542 0.53909 1.2082 0.90909 1.295 0.82224 0.0869-0.0869 0.21506-0.75254 0.28489-1.4793 0.13901-1.4467 0.0448-1.3773 2.5415-1.8727 0.85491-0.16964 2.206-0.5326 3.0024-0.8066 2.4281-0.83538 5.3392-1.339 6.6253-1.1461l1.1821 0.17727-0.13192 1.1704c-0.0726 0.64372-0.30298 1.3128-0.51205 1.4867-0.20906 0.17398-0.60085 0.67351-0.87065 1.1101-1.6497 2.6694-6.0601 6.4823-7.4982 6.4823-0.42153 0-1.0806 0.2471-1.4645 0.54912l-0.69809 0.54912-2.7801-1.328-2.7801-1.328-4.6935 1.2878-4.6934 1.2879-3.3073-0.17822c-1.819-0.098-5.0932-0.0963-7.276 4e-3 -5.3354 0.2447-9.4998 0.31445-14.42 0.24154-4.4253-0.0656-5.4091-0.30452-7.3506-1.7854l-0.89747-0.68454-3.7152 0.99402c-3.4488 0.92273-3.8883 0.98187-6.1286 0.82467-10.287-0.72183-11.057-0.73826-11.42-0.24365-0.32973 0.44947-0.45424 0.44224-2.6811-0.15581-2.7896-0.74916-2.746-0.74855-4.5843-0.0642-1.183 0.44045-2.0985 0.54393-4.8948 0.55328-2.2576 8e-3 -3.8859 0.14689-4.7384 0.40551-1.5285 0.46368-3.2014 0.45904-6.1095-0.0169zm52.917-17.048c-7.3058-1.6614-14.224-6.0631-19.471-12.389-4.5815-5.523-6.4302-11.475-6.4255-20.688 0.0044-8.6814 1.6946-13.628 7.1584-20.95 8.5077-11.401 21.125-22.685 32.963-29.482 3.4822-1.9992 4.5474-2.406 5.0999-1.9474 0.64038 0.53147 0.44959 1.4041-0.90403 4.1347-1.966 3.9659-2.5252 5.8818-2.5364 8.6891-9e-3 2.2731 0.0366 2.4645 1.0039 4.2148 1.5929 2.8822 3.1217 4.708 8.1026 9.6768 5.6261 5.6124 8.0775 8.563 11.438 13.767 3.1449 4.8703 4.1262 7.2606 4.4329 10.798 0.25028 2.886-0.0214 6.6285-0.66004 9.0934-0.61737 2.3826-2.64 7.0766-3.8807 9.006-1.3572 2.1105-6.2652 7.0062-9.2995 9.2763-4.2578 3.1853-9.6991 5.5548-15.644 6.8126-3.1551 0.66749-8.409 0.66108-11.377-0.0139zm11.377-2.6564c3.394-0.74836 6.8807-1.9581 9.5088-3.2991 4.5729-2.3334 10.886-7.8057 13.315-11.542 1.2745-1.9604 3.0282-6.2054 3.672-8.8881 0.44624-1.8596 0.60915-7.4894 0.27216-9.4052-0.32468-1.8459-1.4382-4.1143-3.7153-7.5681-3.3011-5.0072-6.0635-8.3144-11.3-13.528-5.0192-4.9979-7.3254-7.86-8.8992-11.044-0.96194-1.9464-1.0016-2.1338-1.0016-4.7365 0-1.8159-0.0765-2.5187-0.23183-2.1304-0.43864 1.0965-0.27389 4.46 0.28925 5.9052 0.71481 1.8344 3.0353 5.3515 6.2297 9.4425 4.269 5.4671 5.6886 8.2892 6.4031 12.73 0.75746 4.7071 0.50294 7.6813-0.95755 11.19-1.1463 2.7535-3.1064 4.8367-4.551 4.8367-1.0787 0-2.2412-0.49774-2.8354-1.214-0.27298-0.32907-0.37761-1.2074-0.37761-3.1701 0-2.5281-0.0455-2.7643-0.66146-3.4328-1.0118-1.0981-2.2219-1.4774-5.4122-1.6964-2.346-0.16101-3.1837-0.33338-4.2454-0.87353-1.6415-0.83518-3.0649-2.2419-4.3141-4.2636l-0.95997-1.5536-0.33704 1.289c-0.91089 3.4838-1.2042 6.2821-1.0625 10.136 0.20432 5.5562 1.1217 8.1327 3.8769 10.888 3.1803 3.1803 6.2638 4.4134 10.213 4.0844 1.8063-0.15047 2.2-0.11054 2.5024 0.25382 0.55779 0.6721 0.0457 1.7942-0.92603 2.0292-5.3183 1.2866-10.786 1.6434-13.621 0.88895-7.0318-1.8712-11.818-8.9862-13.264-19.715-0.52746-3.9159 0.0191-9.8753 1.3509-14.73 1.9035-6.9382 10.527-18.173 18.621-24.261 2.8081-2.112 3.4787-2.4283 4.3284-2.0411 0.3693 0.16826 0.69413 0.27171 0.72184 0.22988 0.27286-0.41185 1.1803-2.9662 1.087-3.0596-0.21801-0.21801-5.4716 3.1719-8.8731 5.7254-12.802 9.6108-25.097 23.454-27.802 31.305-1.4323 4.1567-1.674 5.7562-1.672 11.064 0.0016 4.0664 0.10218 5.3615 0.5943 7.6524 0.6993 3.2553 1.7663 6.1346 3.1203 8.42 1.2773 2.156 4.8862 6.006 7.5956 8.103 4.5715 3.5384 7.7294 4.9893 13.793 6.3372 1.5809 0.35145 7.2799 0.13756 9.525-0.35748zm-6.2212-17.631c-2.2678-1.5147-4.7782-4.2215-5.7261-6.1742-1.3621-2.806-1.8001-5.3154-1.8012-10.319-7.94e-4 -3.5792 0.1108-4.8899 0.61963-7.276 0.73279-3.4364 1.8535-6.9756 2.8008-8.845 0.58421-1.1529 0.78888-1.3415 1.4559-1.3415 1.1043 0 1.3114 0.57577 1.1428 3.1778-0.16053 2.4779 0.0559 3.158 1.741 5.4696 1.325 1.8177 2.8261 2.5197 5.8961 2.7575 3.5356 0.27387 5.1638 0.78571 6.6439 2.0885 1.6274 1.4325 2.1373 2.8072 2.0059 5.408-0.0722 1.4292-0.0109 2.0006 0.21449 2.0006 0.64515 0 1.8996-1.6172 2.6068-3.3605 1.031-2.5418 1.2168-7.0573 0.43522-10.582-0.87979-3.9682-1.9428-5.8358-6.7317-11.827-2.5381-3.1753-5.1306-7.4071-5.7475-9.3815-0.29693-0.95044-0.52533-2.4267-0.52533-3.3955 0-0.95964-0.10981-1.6752-0.24952-1.6258-0.55855 0.19742-4.7717 4.0469-6.3717 5.8217-6.9345 7.6921-9.8855 12.561-11.279 18.608-0.65984 2.8634-0.73121 3.6555-0.72703 8.0698 0.0044 4.6761 0.0428 5.0367 0.8588 8.0698 0.46979 1.7462 1.375 4.2489 2.0117 5.5615 1.9657 4.053 5.2904 6.8101 9.2511 7.6719 2.8615 0.6226 3.1199 0.52152 1.4752-0.57696z" fill="#c2c2c2"/><path d="m149.49 162.7c-0.41305-0.3073-0.44945-3.7246-0.51359-48.22l-0.069-47.89-0.72857-2.6436c-0.88842-3.2236-2.1079-5.8334-3.7099-7.9398-3.0537-4.0151-8.4329-6.9404-15.083-8.2025-4.3711-0.82957-9.2604-0.92435-47.717-0.92499-33.228-5.53e-4 -38.707-0.05391-38.977-0.37953-0.22885-0.27575-0.29168-2.0943-0.23084-6.6807 0.09623-7.2532 0.16311-7.5028 2.5968-9.6908 1.5792-1.4198 3.3546-2.1491 6.1931-2.5439 1.3988-0.19456 16.44-0.28218 47.471-0.27654 51.305 0.0093 49.861-0.0418 56.21 1.9906 3.0074 0.96277 4.7814 1.8043 7.183 3.4075 5.081 3.3918 8.1489 7.6432 10.132 14.041l0.73811 2.3812 0.0692 56.464c0.0642 52.383 0.0373 56.5-0.37173 56.952-0.41494 0.4585-1.0974 0.48718-11.594 0.48718-8.5091 0-11.259-0.0784-11.598-0.33073zm21.246-56.447c0-53.611-5e-3 -54.158-0.54502-56.819-2.2003-10.849-9.5653-17.228-22.029-19.078-2.414-0.35844-8.6361-0.41013-49.375-0.41013-41.369 0-46.818 0.04665-48.436 0.41463-2.1197 0.48211-3.636 1.4737-4.6925 3.0687-0.72628 1.0964-0.73342 1.1498-0.81489 6.0875l-0.08218 4.9813 39.373 0.0046c23.917 0.0028 40.359 0.10682 41.886 0.26502 12.645 1.3102 20.68 6.8195 23.956 16.426 1.4976 4.3912 1.4442 2.44 1.4442 52.792v46.4h19.315zm-125.02 55.951c-2.497-0.40793-7.1235-1.3303-7.3412-1.4635-0.32165-0.19689 0.51029-1.5606 1.418-2.3244 0.46347-0.38999 1.5393-1.0607 2.3908-1.4905 1.2187-0.6152 1.5481-0.91215 1.5481-1.3957 0-0.74066 5.8117-6.3196 7.1927-6.9046 1.0548-0.44685 0.94098-0.49875-2.4022-1.0951l-2.4855-0.44334 1.5595-0.89056c0.8577-0.4898 2.3032-1.278 3.2121-1.7514 0.90897-0.47349 1.6531-0.92334 1.6536-0.99967 5.29e-4 -0.0763-1.3708-0.95509-3.0475-1.9528s-3.097-1.8925-3.1563-1.9884c-0.24662-0.39904 0.44636-4.3979 0.92458-5.3353 0.28643-0.56144 0.51764-1.5456 0.51764-2.2034 0-0.65379 0.12921-1.4723 0.28713-1.8189 0.31813-0.69821 1.5244-1.5114 2.2421-1.5114 0.43199 0 0.43369-0.0326 0.02532-0.48385-0.24084-0.26612-0.43788-0.63133-0.43788-0.81158 0-0.20736-0.19442-0.26602-0.52935-0.15972-0.33663 0.10684-0.82664-0.0437-1.3459-0.41343-0.69622-0.49576-0.79453-0.7031-0.66703-1.407 0.35872-1.9804 0.41454-9.0437 0.08027-10.158-0.28501-0.95032-0.27396-1.4037 0.06928-2.8429 0.29688-1.2448 0.52704-1.7126 0.84308-1.7136 0.71651-2e-3 0.82492-0.78199 0.14467-1.0406-1.2238-0.46529-1.354-0.89612-0.98839-3.2706 0.32386-2.1034 0.27219-4.8591-0.11858-6.3254-0.13914-0.52208-0.04067-0.92329 0.36717-1.4961 0.30651-0.43046 0.5573-1.1421 0.5573-1.5814 0-0.54808 0.26943-1.0681 0.85862-1.6573 0.54348-0.54347 0.7377-0.89893 0.52917-0.96844-0.1812-0.0604-0.32946-0.27849-0.32946-0.48464 0-0.23555-0.27971-0.37483-0.75274-0.37483-1.5671 0-1.6297-0.28457-1.7443-7.9399-0.06222-4.1532-2.45e-4 -7.2329 0.15369-7.6378 0.19959-0.52496 0.16463-0.74669-0.15454-0.98007-0.3324-0.24306-0.41248-0.8953-0.41248-3.3593 0-2.1369 0.09527-3.0894 0.31637-3.1631 0.218-0.07267 0.13573-0.39775-0.26458-1.0455-0.31953-0.517-0.58096-1.0858-0.58096-1.2639s-0.23812-0.62664-0.52917-0.99664c-0.36736-0.46702-0.53269-1.0866-0.54069-2.0261-0.01583-1.8593-0.38614-3.621-0.81874-3.8951-0.1982-0.12558-0.67686-0.23014-1.0637-0.23237-0.6248-0.0036-0.76489-0.1864-1.2549-1.6375-0.30339-0.89839-0.52268-1.6577-0.48731-1.6873 0.7962-0.66652 4.259-1.8642 6.1497-2.1269 1.5812-0.21976 3.258-0.7797 3.8233-1.2767 0.2255-0.19825 0.94579-0.48604 1.6006-0.63952 0.65484-0.15348 2.0241-0.5301 3.0427-0.83692 1.3569-0.40869 2.3932-0.5363 3.8756-0.47725 2.5563 0.10182 3.1358 0.52776 3.1358 2.3047 0 0.66963 0.11755 1.6274 0.26122 2.1283 0.22472 0.78354 0.18047 0.99678-0.31667 1.526-0.55649 0.59236-0.56616 0.69623-0.26122 2.8053 0.17417 1.2046 0.31667 2.5615 0.31667 3.0153 0 0.81928-0.01199 0.82639-1.7007 1.0072-1.3404 0.14354-1.8309 0.32363-2.3151 0.85006l-0.6144 0.66793 1.2518-0.13448c0.90412-0.09713 1.3408-0.02723 1.5723 0.25166 0.17626 0.21238 0.83554 0.74052 1.4651 1.1736l1.1446 0.7875-0.86479 1.2113c-0.47563 0.6662-1.2993 1.5623-1.8304 1.9913-0.7916 0.6394-1.0504 1.1066-1.4357 2.5923-0.45209 1.7431-0.53439 1.8596-2.1528 3.0479l-1.6827 1.2355 0.49722 0.84272c0.30801 0.52203 0.56552 1.644 0.67672 2.9485 0.4525 5.3083 0.38886 5.0721 1.4112 5.238 1.4346 0.23281 3.2335 1.2184 3.6326 1.9903 0.31851 0.61594 0.30407 0.81676-0.11695 1.6266-0.43278 0.8324-0.44018 0.96862-0.07472 1.3761 0.46988 0.52396 0.75189 2.5087 0.4994 3.5147-0.09839 0.39202-0.56026 0.91938-1.0671 1.2184l-0.89367 0.52728 0.61342 0.6619c0.33738 0.36404 0.81742 1.0918 1.0667 1.6172 0.38801 0.81767 0.40901 1.1494 0.14574 2.3026-0.17363 0.76056-0.33942 4.105-0.38068 7.6797l-0.0731 6.3324-0.98398 0.62275c-1.0768 0.68147-1.0591 0.83341 0.22888 1.9642l0.83912 0.73676 0.04511 4.0442c0.02481 2.2243 0.11551 4.5423 0.20155 5.1511 0.10867 0.7689-0.04853 1.8596-0.51482 3.5719-0.36919 1.3557-0.73138 3.1619-0.80486 4.0136-0.07348 0.85176-0.30627 1.7447-0.51732 1.9844-0.21105 0.23964-0.46597 0.82267-0.56649 1.2956-0.1596 0.75091-0.11371 0.8599 0.36205 0.8599 0.37268 0 0.72988 0.35527 1.1306 1.1245 0.55104 1.0578 0.5813 1.4068 0.51055 5.887l-0.07521 4.7625 1.6776 0.44723c0.9227 0.24597 2.2134 0.51416 2.8683 0.59598 0.65484 0.0818 2.9766 0.38646 5.1594 0.67696 2.1828 0.29051 5.338 0.53557 7.0115 0.54457l3.0427 0.0164 0.92604 1.1585c0.50932 0.63716 1.0612 1.1657 1.2264 1.1746 0.16522 9e-3 1.4616-0.42298 2.8809-0.95961l2.5805-0.97569 3.3368 0.31913c3.9391 0.37671 20.516 0.58028 23.181 0.28466 2.0906-0.23193 6.7827-0.67298 11.112-1.0446 1.6007-0.13737 3.3566-0.32317 3.9019-0.41288 1.3896-0.22862 2.0749 4e-3 3.1835 1.0807 0.90962 0.88342 0.97845 0.90683 1.2384 0.4212 0.15136-0.28281 0.2752-0.98984 0.2752-1.5712v-1.057l1.5214-0.29698c0.83675-0.16335 2.712-0.66313 4.1672-1.1106 1.8331-0.5637 3.4096-0.85419 5.1324-0.94567l2.4865-0.13203-0.16995 1.0628c-0.29881 1.8687-3.4722 5.9114-6.009 7.6552-0.66322 0.45589-1.3624 1.0175-1.5538 1.2481-0.19837 0.23902-0.75312 0.41921-1.2906 0.41921-0.58721 0-1.1612 0.20518-1.5219 0.54409l-0.57916 0.5441-2.757-1.3711-2.7569-1.3711-4.9628 1.3712-4.9628 1.3712-1.9057-0.32021c-1.5306-0.2572-3.4415-0.24199-9.7098 0.0773-4.8726 0.24817-8.4999 0.31515-9.6562 0.17829-1.0186-0.12056-3.0053-0.14727-4.4148-0.0594-2.4913 0.15538-2.6092 0.1367-4.2333-0.67046-0.91884-0.45666-1.9816-1.0284-2.3616-1.2705-0.66119-0.4212-0.85373-0.39664-4.4649 0.56954l-3.7739 1.0097-3.3403-0.30321c-1.8372-0.16677-4.1737-0.30945-5.1924-0.31708-1.0186-8e-3 -2.4474-0.11517-3.175-0.23899-1.1704-0.19918-1.3719-0.16276-1.7477 0.3159-0.39598 0.5043-0.52174 0.51906-1.8521 0.21731-0.78499-0.17805-1.9302-0.50672-2.545-0.73037-1.0053-0.36573-1.2049-0.36575-1.9844-2e-4 -1.7039 0.79908-3.1994 1.0222-6.3919 0.95376-2.0319-0.0436-3.4099 0.042-3.7628 0.23361-0.8092 0.43944-3.6934 0.59171-5.5286 0.29188zm52.255-17.156c-7.4684-1.6052-13.94-5.649-19.698-12.309-1.7882-2.0682-2.3006-2.8269-3.4074-5.0451-3.9151-7.8462-4.3003-20.118-0.8925-28.428 2.4798-6.0465 9.6028-15.01 18.044-22.706 7.8745-7.1793 14.184-11.882 20.969-15.629 4.4706-2.4692 5.1563-1.7738 2.8734 2.9138-2.8178 5.786-3.2705 9.6686-1.4957 12.829 1.291 2.2992 3.8769 5.4932 6.5095 8.0402 6.3534 6.1469 10.122 10.611 13.401 15.875 3.7139 5.9615 4.046 7.0161 4.0401 12.832-5e-3 5.0624-0.27865 6.4213-2.243 11.141-1.4423 3.4655-3.0834 5.8552-6.075 8.8465-6.6792 6.6784-12.592 9.8506-21.923 11.763-2.6286 0.5386-7.286 0.48144-10.103-0.12401zm10.98-2.6617c3.394-0.74836 6.8807-1.9581 9.5088-3.2991 4.5729-2.3334 10.886-7.8057 13.315-11.542 1.2745-1.9604 3.0282-6.2054 3.672-8.8881 0.44624-1.8596 0.60915-7.4894 0.27216-9.4052-0.32468-1.8459-1.4382-4.1143-3.7153-7.5681-3.3011-5.0072-6.0635-8.3144-11.3-13.528-5.0192-4.9979-7.3254-7.86-8.8992-11.044-0.96194-1.9464-1.0016-2.1338-1.0016-4.7365 0-1.8159-0.0765-2.5187-0.23183-2.1304-0.43864 1.0965-0.27389 4.46 0.28925 5.9052 0.71481 1.8344 3.0353 5.3515 6.2297 9.4425 4.269 5.4671 5.6886 8.2892 6.4031 12.73 0.75746 4.7071 0.50294 7.6813-0.95755 11.19-1.1463 2.7535-3.1064 4.8367-4.551 4.8367-1.0787 0-2.2412-0.49774-2.8354-1.214-0.27298-0.32907-0.37761-1.2074-0.37761-3.1701 0-2.5281-0.0455-2.7643-0.66146-3.4328-1.0118-1.0981-2.2219-1.4774-5.4122-1.6964-2.346-0.16101-3.1837-0.33338-4.2454-0.87353-1.6415-0.83518-3.0649-2.2419-4.3141-4.2636l-0.95997-1.5536-0.33704 1.289c-0.91089 3.4838-1.2042 6.2821-1.0625 10.136 0.20432 5.5562 1.1217 8.1327 3.8769 10.888 3.1803 3.1803 6.2638 4.4134 10.213 4.0844 1.8063-0.15047 2.2-0.11054 2.5024 0.25382 0.55779 0.6721 0.0457 1.7942-0.92603 2.0292-5.3183 1.2866-10.786 1.6434-13.621 0.88895-7.0318-1.8712-11.818-8.9862-13.264-19.715-0.52746-3.9159 0.0191-9.8753 1.3509-14.73 1.9035-6.9382 10.527-18.173 18.621-24.261 2.8081-2.112 3.4787-2.4283 4.3284-2.0411 0.3693 0.16826 0.69413 0.27171 0.72184 0.22988 0.27286-0.41185 1.1803-2.9662 1.087-3.0596-0.21801-0.21801-5.4716 3.1719-8.8731 5.7254-12.802 9.6108-25.097 23.454-27.802 31.305-1.4323 4.1567-1.674 5.7562-1.672 11.064 0.0016 4.0664 0.10218 5.3615 0.5943 7.6524 0.6993 3.2553 1.7663 6.1346 3.1203 8.42 1.2773 2.156 4.8862 6.006 7.5956 8.103 4.5715 3.5384 7.7294 4.9893 13.793 6.3372 1.5809 0.35145 7.2799 0.13756 9.525-0.35748zm-4.8948-16.756c0-0.0521-0.64389-0.52235-1.4309-1.0449-1.8725-1.2433-4.0347-3.4797-5.1558-5.3329-3.3565-5.5481-2.9893-17.135 0.83275-26.274 0.90497-2.164 1.6686-2.677 2.5993-1.7462 0.44259 0.44259 0.47204 0.68174 0.25113 2.0391-0.40263 2.4738 0.24223 4.4727 2.1377 6.626 1.4852 1.6873 2.7456 2.1943 6.2082 2.4972 3.5091 0.30699 5.2943 0.97948 6.5764 2.4773 1.14 1.3318 1.5835 2.9421 1.409 5.1159-0.12002 1.4952-0.0797 1.7147 0.31494 1.7147 0.67247 0 1.4722-0.98125 2.372-2.9104 1.1412-2.4467 1.4886-5.7492 0.96977-9.2191-0.70026-4.6834-1.9019-7.24-5.4933-11.688-2.6792-3.3181-5.425-7.2689-6.4295-9.2512-0.90345-1.7829-1.4575-4.0269-1.4575-5.9032v-1.5541l-1.1245 0.87536c-1.7952 1.3975-7.0478 6.7719-9.0142 9.2233-6.4446 8.034-8.643 13.829-8.6457 22.791-0.0016 5.0064 1.0454 9.6768 3.1352 13.986 1.7516 3.612 5.1268 6.3912 8.8621 7.2973 1.3081 0.3173 3.083 0.47897 3.083 0.28082z" fill="#bcbc4a"/><path d="m149.49 162.7c-0.41305-0.3073-0.44945-3.7246-0.51359-48.22l-0.069-47.89-0.72857-2.6436c-0.88842-3.2236-2.1079-5.8334-3.7099-7.9398-3.0537-4.0151-8.4329-6.9404-15.083-8.2025-4.3711-0.82957-9.2604-0.92435-47.717-0.92499-33.228-5.53e-4 -38.707-0.05391-38.977-0.37953-0.22885-0.27575-0.29168-2.0943-0.23084-6.6807 0.09623-7.2532 0.16311-7.5028 2.5968-9.6908 1.5792-1.4198 3.3546-2.1491 6.1931-2.5439 1.3988-0.19456 16.44-0.28218 47.471-0.27654 51.305 0.0093 49.861-0.0418 56.21 1.9906 3.0074 0.96277 4.7814 1.8043 7.183 3.4075 5.081 3.3918 8.1489 7.6432 10.132 14.041l0.73811 2.3812 0.0692 56.464c0.0642 52.383 0.0373 56.5-0.37173 56.952-0.41494 0.4585-1.0974 0.48718-11.594 0.48718-8.5091 0-11.259-0.0784-11.598-0.33073zm21.177-57.547c-0.0757-55.002-0.0783-55.239-0.62467-57.084-1.3253-4.474-2.8166-7.2491-5.3569-9.9684-3.9585-4.2374-8.7444-6.5253-16.315-7.7994-2.7458-0.4621-5.4238-0.48847-49.601-0.48847-49.563 0-48.079-0.03525-50.539 1.1999-1.1971 0.60098-2.2999 1.7112-2.9335 2.9532-0.43861 0.85976-0.50257 1.5913-0.50257 5.7487v4.7635l40.812 0.09274c40.391 0.09178 40.842 0.09856 43.722 0.65751 11.451 2.2221 17.976 7.5203 20.932 16.996 1.1656 3.7368 1.1589 3.4362 1.16 52.057l1e-3 46.104h19.322zm-124.95 57.051c-2.497-0.40793-7.1235-1.3303-7.3412-1.4635-0.32165-0.19689 0.51029-1.5606 1.418-2.3244 0.46347-0.38999 1.5393-1.0607 2.3908-1.4905 1.2187-0.6152 1.5481-0.91215 1.5481-1.3957 0-0.74066 5.8117-6.3196 7.1927-6.9046 1.0548-0.44685 0.94098-0.49875-2.4022-1.0951l-2.4855-0.44334 1.5595-0.89056c0.8577-0.4898 2.3032-1.278 3.2121-1.7514 0.90897-0.47349 1.6531-0.92334 1.6536-0.99967 5.29e-4 -0.0763-1.3708-0.95509-3.0475-1.9528s-3.097-1.8925-3.1563-1.9884c-0.24662-0.39904 0.44636-4.3979 0.92458-5.3353 0.28643-0.56144 0.51764-1.5456 0.51764-2.2034 0-0.65379 0.12921-1.4723 0.28713-1.8189 0.31813-0.69821 1.5244-1.5114 2.2421-1.5114 0.43199 0 0.43369-0.0326 0.02532-0.48385-0.24084-0.26612-0.43788-0.63133-0.43788-0.81158 0-0.20736-0.19442-0.26602-0.52935-0.15972-0.33663 0.10684-0.82664-0.0437-1.3459-0.41343-0.69622-0.49576-0.79453-0.7031-0.66703-1.407 0.35872-1.9804 0.41454-9.0437 0.08027-10.158-0.28501-0.95032-0.27396-1.4037 0.06928-2.8429 0.29688-1.2448 0.52704-1.7126 0.84308-1.7136 0.71651-2e-3 0.82492-0.78199 0.14467-1.0406-1.2238-0.46529-1.354-0.89612-0.98839-3.2706 0.32386-2.1034 0.27219-4.8591-0.11858-6.3254-0.13914-0.52208-0.04067-0.92329 0.36717-1.4961 0.30651-0.43046 0.5573-1.1421 0.5573-1.5814 0-0.54808 0.26943-1.0681 0.85862-1.6573 0.54348-0.54347 0.7377-0.89893 0.52917-0.96844-0.1812-0.0604-0.32946-0.27849-0.32946-0.48464 0-0.23555-0.27971-0.37483-0.75274-0.37483-1.5671 0-1.6297-0.28457-1.7443-7.9399-0.06222-4.1532-2.45e-4 -7.2329 0.15369-7.6378 0.19959-0.52496 0.16463-0.74669-0.15454-0.98007-0.3324-0.24306-0.41248-0.8953-0.41248-3.3593 0-2.1369 0.09527-3.0894 0.31637-3.1631 0.218-0.07267 0.13573-0.39775-0.26458-1.0455-0.31953-0.517-0.58096-1.0858-0.58096-1.2639s-0.23812-0.62664-0.52917-0.99664c-0.36736-0.46702-0.53269-1.0866-0.54069-2.0261-0.01583-1.8593-0.38614-3.621-0.81874-3.8951-0.1982-0.12558-0.67686-0.23014-1.0637-0.23237-0.6248-0.0036-0.76489-0.1864-1.2549-1.6375-0.30339-0.89839-0.52268-1.6577-0.48731-1.6873 0.7962-0.66652 4.259-1.8642 6.1497-2.1269 1.5812-0.21976 3.258-0.7797 3.8233-1.2767 0.2255-0.19825 0.94579-0.48604 1.6006-0.63952 0.65484-0.15348 2.0241-0.5301 3.0427-0.83692 1.3569-0.40869 2.3932-0.5363 3.8756-0.47725 2.5563 0.10182 3.1358 0.52776 3.1358 2.3047 0 0.66963 0.11755 1.6274 0.26122 2.1283 0.22472 0.78354 0.18047 0.99678-0.31667 1.526-0.55649 0.59236-0.56616 0.69623-0.26122 2.8053 0.17417 1.2046 0.31667 2.5615 0.31667 3.0153 0 0.81928-0.01199 0.82639-1.7007 1.0072-1.3404 0.14354-1.8309 0.32363-2.3151 0.85006l-0.6144 0.66793 1.2518-0.13448c0.90412-0.09713 1.3408-0.02723 1.5723 0.25166 0.17626 0.21238 0.83554 0.74052 1.4651 1.1736l1.1446 0.7875-0.86479 1.2113c-0.47563 0.6662-1.2993 1.5623-1.8304 1.9913-0.7916 0.6394-1.0504 1.1066-1.4357 2.5923-0.45209 1.7431-0.53439 1.8596-2.1528 3.0479l-1.6827 1.2355 0.49722 0.84272c0.30801 0.52203 0.56552 1.644 0.67672 2.9485 0.4525 5.3083 0.38886 5.0721 1.4112 5.238 1.4346 0.23281 3.2335 1.2184 3.6326 1.9903 0.31851 0.61594 0.30407 0.81676-0.11695 1.6266-0.43278 0.8324-0.44018 0.96862-0.07472 1.3761 0.46988 0.52396 0.75189 2.5087 0.4994 3.5147-0.09839 0.39202-0.56026 0.91938-1.0671 1.2184l-0.89367 0.52728 0.61342 0.6619c0.33738 0.36404 0.81742 1.0918 1.0667 1.6172 0.38801 0.81767 0.40901 1.1494 0.14574 2.3026-0.17363 0.76056-0.33942 4.105-0.38068 7.6797l-0.0731 6.3324-0.98398 0.62275c-1.0768 0.68147-1.0591 0.83341 0.22888 1.9642l0.83912 0.73676 0.04511 4.0442c0.02481 2.2243 0.11551 4.5423 0.20155 5.1511 0.10867 0.7689-0.04853 1.8596-0.51482 3.5719-0.36919 1.3557-0.73138 3.1619-0.80486 4.0136-0.07348 0.85176-0.30627 1.7447-0.51732 1.9844-0.21105 0.23964-0.46597 0.82267-0.56649 1.2956-0.1596 0.75091-0.11371 0.8599 0.36205 0.8599 0.37268 0 0.72988 0.35527 1.1306 1.1245 0.55104 1.0578 0.5813 1.4068 0.51055 5.887l-0.07521 4.7625 1.6776 0.44723c0.9227 0.24597 2.2134 0.51416 2.8683 0.59598 0.65484 0.0818 2.9766 0.38646 5.1594 0.67696 2.1828 0.29051 5.338 0.53557 7.0115 0.54457l3.0427 0.0164 0.92604 1.1585c0.50932 0.63716 1.0612 1.1657 1.2264 1.1746 0.16522 9e-3 1.4616-0.42298 2.8809-0.95961l2.5805-0.97569 3.3368 0.31913c3.9391 0.37671 20.516 0.58028 23.181 0.28466 2.0906-0.23193 6.7827-0.67298 11.112-1.0446 1.6007-0.13737 3.3566-0.32317 3.9019-0.41288 1.3896-0.22862 2.0749 4e-3 3.1835 1.0807 0.90962 0.88342 0.97845 0.90683 1.2384 0.4212 0.15136-0.28281 0.2752-0.98984 0.2752-1.5712v-1.057l1.5214-0.29698c0.83675-0.16335 2.712-0.66313 4.1672-1.1106 1.8331-0.5637 3.4096-0.85419 5.1324-0.94567l2.4865-0.13203-0.16995 1.0628c-0.29881 1.8687-3.4722 5.9114-6.009 7.6552-0.66322 0.45589-1.3624 1.0175-1.5538 1.2481-0.19837 0.23902-0.75312 0.41921-1.2906 0.41921-0.58721 0-1.1612 0.20518-1.5219 0.54409l-0.57916 0.5441-2.757-1.3711-2.7569-1.3711-4.9628 1.3712-4.9628 1.3712-1.9057-0.32021c-1.5306-0.2572-3.4415-0.24199-9.7098 0.0773-4.8726 0.24817-8.4999 0.31515-9.6562 0.17829-1.0186-0.12056-3.0053-0.14727-4.4148-0.0594-2.4913 0.15538-2.6092 0.1367-4.2333-0.67046-0.91884-0.45666-1.9816-1.0284-2.3616-1.2705-0.66119-0.4212-0.85373-0.39664-4.4649 0.56954l-3.7739 1.0097-3.3403-0.30321c-1.8372-0.16677-4.1737-0.30945-5.1924-0.31708-1.0186-8e-3 -2.4474-0.11517-3.175-0.23899-1.1704-0.19918-1.3719-0.16276-1.7477 0.3159-0.39598 0.5043-0.52174 0.51906-1.8521 0.21731-0.78499-0.17805-1.9302-0.50672-2.545-0.73037-1.0053-0.36573-1.2049-0.36575-1.9844-2e-4 -1.7039 0.79908-3.1994 1.0222-6.3919 0.95376-2.0319-0.0436-3.4099 0.042-3.7628 0.23361-0.8092 0.43944-3.6934 0.59171-5.5286 0.29188zm52.255-17.156c-7.4684-1.6052-13.94-5.649-19.698-12.309-1.7882-2.0682-2.3006-2.8269-3.4074-5.0451-3.9151-7.8462-4.3003-20.118-0.8925-28.428 2.4798-6.0465 9.6028-15.01 18.044-22.706 7.8745-7.1793 14.184-11.882 20.969-15.629 4.4706-2.4692 5.1563-1.7738 2.8734 2.9138-2.8178 5.786-3.2705 9.6686-1.4957 12.829 1.291 2.2992 3.8769 5.4932 6.5095 8.0402 6.3534 6.1469 10.122 10.611 13.401 15.875 3.7139 5.9615 4.046 7.0161 4.0401 12.832-5e-3 5.0624-0.27865 6.4213-2.243 11.141-1.4423 3.4655-3.0834 5.8552-6.075 8.8465-6.6792 6.6784-12.592 9.8506-21.923 11.763-2.6286 0.5386-7.286 0.48144-10.103-0.12401zm11.774-2.7566c7.9771-1.9693 13.85-5.4409 19.509-11.533 2.3156-2.4925 3.5642-4.532 4.9633-8.1069 1.4516-3.7091 1.9588-6.8222 1.754-10.766-0.20689-3.9836-0.85404-5.6187-4.2408-10.715-3.3512-5.0426-4.9736-6.9769-11.14-13.281-5.4579-5.5799-6.5707-6.9073-8.1868-9.7666-1.3792-2.44-1.829-4.2336-1.6615-6.6248 0.13505-1.9279 0.12777-1.9604-0.20995-0.93876-1.0939 3.3092 0.27644 6.943 4.889 12.965 4.13 5.3917 4.8329 6.3682 5.7008 7.9201 1.2741 2.2782 1.9163 4.2691 2.382 7.384 0.66091 4.4201 0.46449 6.8502-0.8207 10.154-1.7331 4.4546-4.2682 6.2951-6.6612 4.8361-1.1958-0.72908-1.4772-1.5972-1.0854-3.348 0.24274-1.0847 0.24408-1.6429 6e-3 -2.4051-0.71293-2.2804-2.0341-2.9952-5.9914-3.2413-3.4022-0.21161-4.7692-0.7088-6.6072-2.403-0.67244-0.61983-1.6794-1.8896-2.2376-2.8217l-1.015-1.6948-0.43112 1.9383c-0.78369 3.5235-0.95076 5.0746-0.95231 8.8413-0.0026 6.1238 1.0818 9.1545 4.3842 12.254 3.1367 2.9438 5.7491 3.9184 9.7046 3.6204 2.3049-0.17366 2.3179-0.17114 2.6273 0.50776 0.52462 1.1514-0.23384 1.5717-4.2455 2.3528-8.1181 1.5806-13.148 0.41915-17.192-3.9694-4.0978-4.4472-6.4684-11.46-6.4752-19.155-0.0084-9.5483 2.4316-16.033 9.2072-24.468 4.0389-5.0281 11.228-11.647 13.856-12.758 0.79559-0.33625 0.9406-0.32798 1.3907 0.07934 0.27636 0.2501 0.53748 0.40585 0.58026 0.34611 0.30667-0.42821 1.4179-3.6805 1.2575-3.6805-0.39951 0-8.1428 5.2451-10.731 7.269-11.105 8.6829-21.746 20.473-25.275 28.005-2.022 4.3147-3.0355 10.303-2.6196 15.477 0.59056 7.3466 2.3692 12.437 5.7289 16.395 5.514 6.4962 12.74 10.797 20.087 11.956 2.4532 0.38707 6.7782 0.11059 9.7511-0.62335zm-5.6885-16.661c0-0.0521-0.64389-0.52235-1.4309-1.0449-1.8725-1.2433-4.0347-3.4797-5.1558-5.3329-3.3565-5.5481-2.9893-17.135 0.83275-26.274 0.90497-2.164 1.6686-2.677 2.5993-1.7462 0.44259 0.44259 0.47204 0.68174 0.25113 2.0391-0.40263 2.4738 0.24223 4.4727 2.1377 6.626 1.4852 1.6873 2.7456 2.1943 6.2082 2.4972 3.5091 0.30699 5.2943 0.97948 6.5764 2.4773 1.14 1.3318 1.5835 2.9421 1.409 5.1159-0.12002 1.4952-0.0797 1.7147 0.31494 1.7147 0.67247 0 1.4722-0.98125 2.372-2.9104 1.1412-2.4467 1.4886-5.7492 0.96977-9.2191-0.70026-4.6834-1.9019-7.24-5.4933-11.688-2.6792-3.3181-5.425-7.2689-6.4295-9.2512-0.90345-1.7829-1.4575-4.0269-1.4575-5.9032v-1.5541l-1.1245 0.87536c-1.7952 1.3975-7.0478 6.7719-9.0142 9.2233-6.4446 8.034-8.643 13.829-8.6457 22.791-0.0016 5.0064 1.0454 9.6768 3.1352 13.986 1.7516 3.612 5.1268 6.3912 8.8621 7.2973 1.3081 0.3173 3.083 0.47897 3.083 0.28082z" fill="#8f8f8f"/><path d="m149.34 162.42c-0.2101-0.25315-0.31202-13.788-0.36313-48.22l-0.071-47.868-0.70778-2.5616c-2.7964-10.121-10.046-15.313-23.199-16.614-1.7349-0.17164-17.276-0.27107-42.367-0.27107-33.844 0-39.672-0.05464-39.938-0.3744-0.2236-0.26942-0.28832-2.1057-0.23083-6.5484 0.076-5.8735 0.11-6.232 0.6983-7.3647 1.2543-2.4148 3.1527-3.7931 6.4541-4.6855 1.5219-0.41141 5.3898-0.45628 46.902-0.5442 46.974-0.09948 49.493-0.05347 54.553 0.99638 11.239 2.3319 18.181 8.4389 21.203 18.653l0.70463 2.3812 0.0719 56.325c0.0533 41.751-6e-3 56.418-0.22869 56.687-0.43797 0.52772-23.044 0.53757-23.482 0.0102zm21.325-57.261c-0.0757-55.002-0.0783-55.239-0.62467-57.084-1.3253-4.474-2.8166-7.2491-5.3569-9.9684-3.9585-4.2374-8.7444-6.5253-16.315-7.7994-2.7458-0.4621-5.4238-0.48847-49.601-0.48847-49.563 0-48.079-0.03525-50.539 1.1999-1.1971 0.60098-2.2999 1.7112-2.9335 2.9532-0.43861 0.85976-0.50257 1.5913-0.50257 5.7487v4.7635l40.812 0.09274c40.391 0.09178 40.842 0.09856 43.722 0.65751 11.451 2.2221 17.976 7.5203 20.932 16.996 1.1656 3.7368 1.1589 3.4362 1.16 52.057l1e-3 46.104h19.322zm-126.14 56.796c-2.1863-0.33884-5.6434-1.073-6.0275-1.28-0.25096-0.13524-0.12946-0.47185 0.46805-1.2967 0.58372-0.8058 1.3511-1.3832 2.7734-2.087 1.5987-0.79104 1.9812-1.0994 2.0455-1.649 0.05451-0.4661 1.0828-1.637 3.312-3.7713 2.5186-2.4114 3.4437-3.1349 4.187-3.2743 1.3742-0.2578 0.86946-0.49956-2.1268-1.0187-1.4544-0.252-2.681-0.49473-2.7257-0.5394-0.04467-0.0447 0.72862-0.52704 1.7184-1.0719s2.433-1.346 3.207-1.7801l1.4074-0.7894-3.2804-1.9332-3.2804-1.9332 0.22304-1.9395c0.12267-1.0667 0.52042-2.6124 0.88388-3.4348 0.43638-0.98738 0.64524-1.9078 0.6149-2.71-0.05318-1.4061 0.42466-2.095 1.7974-2.5914 0.96383-0.34852 1.1119-0.60155 0.49125-0.83969-0.21828-0.0838-0.39688-0.3369-0.39688-0.56252 0-0.28896-0.17598-0.37038-0.59531-0.27544-0.3882 0.0879-0.86494-0.0881-1.3703-0.50571-0.74204-0.61325-0.76174-0.68476-0.46316-1.6813 0.17151-0.57245 0.24778-1.563 0.16949-2.2012-0.07829-0.63822-0.04073-2.232 0.08348-3.5416 0.17478-1.843 0.13855-2.6795-0.16028-3.7004-0.30847-1.0539-0.32523-1.5468-0.08335-2.4512 0.16653-0.62262 0.30277-1.3714 0.30277-1.664 0-0.31099 0.25177-0.62764 0.60619-0.76239 0.3334-0.12676 0.7647-0.42147 0.95844-0.65491 0.30805-0.37118 0.26518-0.42444-0.3416-0.42444-0.38162 0-0.94364-0.24979-1.2489-0.55508-0.44985-0.44986-0.52024-0.73828-0.37125-1.5214 0.36398-1.9131 0.44085-6.4398 0.12242-7.2085-0.26459-0.63878-0.22831-0.88128 0.24687-1.6501 0.30638-0.49572 0.55704-1.2105 0.55704-1.5885 0-0.39798 0.36187-1.0993 0.85988-1.6665 0.56008-0.6379 0.74458-1.0178 0.52917-1.0896-0.18189-0.06063-0.33071-0.27891-0.33071-0.48506 0-0.22343-0.26718-0.37483-0.66146-0.37483-0.3638 0-0.8913-0.22984-1.1722-0.51076-0.46113-0.46113-0.51122-0.9175-0.51551-4.6964-0.0026-2.3021-0.08581-5.2277-0.18488-6.5014-0.12403-1.5946-0.07363-2.6962 0.16183-3.5372 0.30404-1.0859 0.29316-1.2487-0.09811-1.4676-0.37012-0.20713-0.44007-0.72435-0.44007-3.2538 0-2.1263 0.09429-3.0389 0.32181-3.1148 0.21791-0.07264 0.0052-0.72096-0.6588-2.0081-0.76472-1.4823-1.0367-2.3943-1.2353-4.142-0.29496-2.5959-0.59947-3.3101-1.4136-3.3158-0.3223-0.0021-0.72417-0.09197-0.89305-0.19942-0.27464-0.17474-1.4876-3-1.3403-3.1218 0.54545-0.45099 4.2626-1.7648 5.2944-1.8714 1.6707-0.17245 3.8745-0.82539 4.4384-1.315 0.62469-0.54241 5.7061-1.9525 7.6803-2.1313 1.9276-0.17458 3.5442 0.20773 3.9114 0.92505 0.1244 0.24301 0.30227 1.3847 0.39526 2.5372 0.13949 1.7287 0.0937 2.1787-0.26167 2.5713-0.44164 0.48801-0.43894 0.69667 0.06066 4.6879 0.20734 1.6564 0.08608 1.7878-1.8774 2.0347-0.80699 0.10149-1.6356 0.41569-2.1189 0.8035l-0.79375 0.63683 1.5191 0.0013c1.2481 0.0011 1.5785 0.09843 1.8521 0.54563 0.18313 0.29937 0.71992 0.72966 1.1929 0.95619 0.47294 0.22653 0.8599 0.5359 0.8599 0.68748 0 0.40016-1.2562 2.0137-2.5194 3.236-0.86386 0.83591-1.1696 1.3855-1.4546 2.6151-0.33442 1.4427-0.48313 1.6529-2.0299 2.8684-0.91797 0.72139-1.669 1.3645-1.669 1.4291 0 0.0646 0.19344 0.41267 0.42986 0.7735 0.28192 0.43026 0.55328 1.8974 0.78847 4.2628 0.19724 1.9837 0.39076 3.6253 0.43004 3.6478 0.03928 0.02257 0.75299 0.24834 1.586 0.50173 1.6061 0.48857 3.1156 1.5517 3.1156 2.1944 0 0.21257-0.17365 0.72229-0.38589 1.1327-0.34892 0.67474-0.33625 0.84358 0.13229 1.7626 0.95094 1.8652 0.56938 3.6836-0.94393 4.4986l-0.87069 0.4689 0.61413 0.48307c0.33777 0.26569 0.87361 1.0191 1.1907 1.6742 0.54816 1.1324 0.55643 1.2504 0.1675 2.3918-0.3228 0.94737-0.4092 2.4961-0.40951 7.3406-2.16e-4 3.377-0.0057 6.27-0.0121 6.429s-0.42843 0.51348-0.93775 0.78777-0.92604 0.64156-0.92604 0.81615c0 0.1746 0.42969 0.67164 0.95487 1.1045l0.95487 0.78709 0.13198 5.5732c0.12226 5.1629 0.09011 5.711-0.4367 7.4454-0.31277 1.0297-0.64125 2.6709-0.72995 3.647-0.1016 1.1181-0.34229 2.0083-0.65046 2.4058-0.65142 0.84025-0.66865 2.1436-0.02617 1.9789 0.33314-0.0854 0.63022 0.19989 1.0591 1.017 0.55466 1.0568 0.596 1.4682 0.59531 5.925l-7.35e-4 4.7894 1.6536 0.42944c3.0859 0.80141 9.0456 1.5476 13.507 1.6911l4.4448 0.143 1.0572 1.2538 1.0572 1.2538 2.8324-1.0487 2.8324-1.0487 3.0427 0.32321c4.1045 0.43599 22.16 0.45156 26.326 0.0227 1.7462-0.17976 5.1395-0.50358 7.5406-0.71959 2.4011-0.21602 4.8019-0.45886 5.3352-0.53965 0.86224-0.13063 1.1001-0.0266 2.1486 0.93992 1.3512 1.2455 1.6056 1.1414 1.8822-0.76962l0.17237-1.1906 2.7053-0.70114c1.4879-0.38563 3.6383-0.95659 4.7786-1.2688 1.3546-0.3709 2.6386-0.54057 3.7042-0.48948l1.6309 0.0782-0.0841 1.0583c-0.0463 0.58208-0.23359 1.1774-0.4163 1.3229-0.1827 0.14553-0.65145 0.81182-1.0417 1.4807-0.68609 1.176-2.9124 3.426-5.1453 5.2001-0.74345 0.59069-1.3649 0.8599-1.9851 0.8599-0.56681 0-1.0811 0.19695-1.3817 0.52917-0.26339 0.29104-0.6524 0.52916-0.86448 0.52916s-1.5643-0.55443-3.005-1.2321l-2.6194-1.2321-4.9577 1.3531c-4.8656 1.3279-4.9905 1.3474-6.7244 1.0493-1.326-0.22797-3.7353-0.22926-9.6573-5e-3 -4.3398 0.16423-9.9742 0.27299-12.521 0.24168-4.254-0.0523-4.7338-0.10734-5.9052-0.67747-0.70126-0.3413-1.6033-0.89675-2.0045-1.2343l-0.72945-0.61379-3.9479 1.0685c-3.0409 0.82302-4.2217 1.0323-5.1393 0.91089-0.65524-0.0867-3.2749-0.27693-5.8215-0.42273-2.5466-0.14581-5.0056-0.33552-5.4645-0.42158-0.69499-0.13036-0.86444-0.0614-1.0151 0.41331-0.20639 0.65027-0.60079 0.61797-3.5813-0.29337l-1.7265-0.5279-2.11 0.71213c-1.9467 0.65704-2.3416 0.701-5.1042 0.56814-2.2564-0.10852-3.216-0.0513-3.8941 0.23199-0.99392 0.41527-4.3454 0.45934-6.7377 0.0886zm54.328-16.755c-4.1342-0.78912-9.029-2.8302-12.656-5.2774-2.7526-1.8571-7.9936-6.9465-9.5748-9.2977-2.8801-4.2826-4.269-8.8195-4.8288-15.774-0.52496-6.5205 0.81389-13.422 3.5799-18.455 3.9193-7.1308 14.05-18.172 23.994-26.152 6.4066-5.1406 15.474-10.826 16.92-10.61 1.2341 0.18447 1.1907 0.83935-0.24571 3.7107-1.6014 3.2011-2.387 5.4322-2.6882 7.6347-0.61 4.4605 0.88712 6.9605 9.3394 15.596 5.8234 5.9494 8.3563 9.0209 11.452 13.886 3.3927 5.3332 4.0182 7.0567 4.2251 11.642 0.38421 8.5155-3.2043 16.851-9.748 22.644-5.2555 4.6525-8.8756 6.8706-14.178 8.6869-5.4639 1.8717-11.469 2.5515-15.591 1.7647zm10.892-2.9033c7.9771-1.9693 13.85-5.4409 19.509-11.533 2.3156-2.4925 3.5642-4.532 4.9633-8.1069 1.4516-3.7091 1.9588-6.8222 1.754-10.766-0.20689-3.9836-0.85404-5.6187-4.2408-10.715-3.3512-5.0426-4.9736-6.9769-11.14-13.281-5.4579-5.5799-6.5707-6.9073-8.1868-9.7666-1.3792-2.44-1.829-4.2336-1.6615-6.6248 0.13505-1.9279 0.12777-1.9604-0.20995-0.93876-1.0939 3.3092 0.27644 6.943 4.889 12.965 4.13 5.3917 4.8329 6.3682 5.7008 7.9201 1.2741 2.2782 1.9163 4.2691 2.382 7.384 0.66091 4.4201 0.46449 6.8502-0.8207 10.154-1.7331 4.4546-4.2682 6.2951-6.6612 4.8361-1.1958-0.72908-1.4772-1.5972-1.0854-3.348 0.24274-1.0847 0.24408-1.6429 6e-3 -2.4051-0.71293-2.2804-2.0341-2.9952-5.9914-3.2413-3.4022-0.21161-4.7692-0.7088-6.6072-2.403-0.67244-0.61983-1.6794-1.8896-2.2376-2.8217l-1.015-1.6948-0.43112 1.9383c-0.78369 3.5235-0.95076 5.0746-0.95231 8.8413-0.0026 6.1238 1.0818 9.1545 4.3842 12.254 3.1367 2.9438 5.7491 3.9184 9.7046 3.6204 2.3049-0.17366 2.3179-0.17114 2.6273 0.50776 0.52462 1.1514-0.23384 1.5717-4.2455 2.3528-8.1181 1.5806-13.148 0.41915-17.192-3.9694-4.0978-4.4472-6.4684-11.46-6.4752-19.155-0.0084-9.5483 2.4316-16.033 9.2072-24.468 4.0389-5.0281 11.228-11.647 13.856-12.758 0.79559-0.33625 0.9406-0.32798 1.3907 0.07934 0.27636 0.2501 0.53748 0.40585 0.58026 0.34611 0.30667-0.42821 1.4179-3.6805 1.2575-3.6805-0.39951 0-8.1428 5.2451-10.731 7.269-11.105 8.6829-21.746 20.473-25.275 28.005-2.022 4.3147-3.0355 10.303-2.6196 15.477 0.59056 7.3466 2.3692 12.437 5.7289 16.395 5.514 6.4962 12.74 10.797 20.087 11.956 2.4532 0.38707 6.7782 0.11059 9.7511-0.62335zm-7.178-17.857c-1.0104-0.70956-2.4595-1.9712-3.2202-2.8035-3.016-3.3-3.7697-5.6517-3.9518-12.33-0.1455-5.3352 0.30588-8.4782 1.9351-13.474 1.4134-4.3342 2.3639-5.6383 3.4516-4.7356 0.33126 0.27492 0.37124 0.72673 0.22241 2.5134-0.16514 1.9825-0.12149 2.3092 0.48577 3.6356 0.81359 1.7771 2.5693 3.7338 4.01 4.469 0.76047 0.38809 1.8743 0.60447 3.8484 0.74762 3.3392 0.24212 4.9706 0.77473 6.2296 2.0337 1.5542 1.5542 1.8333 2.3014 1.8466 4.9433 7e-3 1.43 0.12341 2.3994 0.29452 2.4564 0.50641 0.16881 2.1348-1.934 2.7304-3.5258 0.93304-2.4938 1.2296-5.5079 0.82441-8.3793-0.64176-4.5481-1.814-7.3543-4.5001-10.773-7.1615-9.1143-8.6288-11.73-8.9373-15.933l-0.14993-2.042-0.71253 0.50737c-1.3856 0.98665-5.849 5.3744-7.9007 7.767-5.2975 6.1775-7.9995 10.809-9.1322 15.653-0.86433 3.6966-1.306 8.0921-1.0883 10.83 0.37997 4.7793 2.1024 10.537 4.0535 13.55 2.384 3.681 6.369 6.086 10.2 6.1558l1.2983 0.0237-1.837-1.2901z" fill="#6d6d2b"/><path d="m149.34 162.42c-0.2101-0.25315-0.31202-13.788-0.36313-48.22l-0.071-47.868-0.70778-2.5616c-2.7964-10.121-10.046-15.313-23.199-16.614-1.7349-0.17164-17.276-0.27107-42.367-0.27107-33.844 0-39.672-0.05464-39.938-0.3744-0.2236-0.26942-0.28832-2.1057-0.23083-6.5484 0.076-5.8735 0.11-6.232 0.6983-7.3647 1.2543-2.4148 3.1527-3.7931 6.4541-4.6855 1.5219-0.41141 5.3898-0.45628 46.902-0.5442 46.974-0.09948 49.493-0.05347 54.553 0.99638 11.239 2.3319 18.181 8.4389 21.203 18.653l0.70463 2.3812 0.0719 56.325c0.0533 41.751-6e-3 56.418-0.22869 56.687-0.43797 0.52772-23.044 0.53757-23.482 0.0102zm21.385-56.6c-0.01-59.905 0.091-55.992-1.5593-60.514-2.5301-6.9326-8.1776-11.896-15.967-14.033-5.4691-1.5004-2.1718-1.4057-52.712-1.5148-34.023-0.07346-47.137-0.01902-48.683 0.20211-3.5127 0.50228-5.6972 1.8643-6.6547 4.149-0.25453 0.6074-0.35678 2.2151-0.35678 5.6099v4.7585l40.415 0.1037c36.132 0.09271 40.68 0.15013 42.915 0.54185 5.7136 1.0014 10.018 2.566 13.426 4.8807 3.5522 2.4123 6.9479 7.0671 8.3885 11.499 1.5153 4.6617 1.482 3.4638 1.482 53.347v45.805h19.315zm-126.2 56.135c-2.1863-0.33884-5.6434-1.073-6.0275-1.28-0.25096-0.13524-0.12946-0.47185 0.46805-1.2967 0.58372-0.8058 1.3511-1.3832 2.7734-2.087 1.5987-0.79104 1.9812-1.0994 2.0455-1.649 0.05451-0.4661 1.0828-1.637 3.312-3.7713 2.5186-2.4114 3.4437-3.1349 4.187-3.2743 1.3742-0.2578 0.86946-0.49956-2.1268-1.0187-1.4544-0.252-2.681-0.49473-2.7257-0.5394-0.04467-0.0447 0.72862-0.52704 1.7184-1.0719s2.433-1.346 3.207-1.7801l1.4074-0.7894-3.2804-1.9332-3.2804-1.9332 0.22304-1.9395c0.12267-1.0667 0.52042-2.6124 0.88388-3.4348 0.43638-0.98738 0.64524-1.9078 0.6149-2.71-0.05318-1.4061 0.42466-2.095 1.7974-2.5914 0.96383-0.34852 1.1119-0.60155 0.49125-0.83969-0.21828-0.0838-0.39688-0.3369-0.39688-0.56252 0-0.28896-0.17598-0.37038-0.59531-0.27544-0.3882 0.0879-0.86494-0.0881-1.3703-0.50571-0.74204-0.61325-0.76174-0.68476-0.46316-1.6813 0.17151-0.57245 0.24778-1.563 0.16949-2.2012-0.07829-0.63822-0.04073-2.232 0.08348-3.5416 0.17478-1.843 0.13855-2.6795-0.16028-3.7004-0.30847-1.0539-0.32523-1.5468-0.08335-2.4512 0.16653-0.62262 0.30277-1.3714 0.30277-1.664 0-0.31099 0.25177-0.62764 0.60619-0.76239 0.3334-0.12676 0.7647-0.42147 0.95844-0.65491 0.30805-0.37118 0.26518-0.42444-0.3416-0.42444-0.38162 0-0.94364-0.24979-1.2489-0.55508-0.44985-0.44986-0.52024-0.73828-0.37125-1.5214 0.36398-1.9131 0.44085-6.4398 0.12242-7.2085-0.26459-0.63878-0.22831-0.88128 0.24687-1.6501 0.30638-0.49572 0.55704-1.2105 0.55704-1.5885 0-0.39798 0.36187-1.0993 0.85988-1.6665 0.56008-0.6379 0.74458-1.0178 0.52917-1.0896-0.18189-0.06063-0.33071-0.27891-0.33071-0.48506 0-0.22343-0.26718-0.37483-0.66146-0.37483-0.3638 0-0.8913-0.22984-1.1722-0.51076-0.46113-0.46113-0.51122-0.9175-0.51551-4.6964-0.0026-2.3021-0.08581-5.2277-0.18488-6.5014-0.12403-1.5946-0.07363-2.6962 0.16183-3.5372 0.30404-1.0859 0.29316-1.2487-0.09811-1.4676-0.37012-0.20713-0.44007-0.72435-0.44007-3.2538 0-2.1263 0.09429-3.0389 0.32181-3.1148 0.21791-0.07264 0.0052-0.72096-0.6588-2.0081-0.76472-1.4823-1.0367-2.3943-1.2353-4.142-0.29496-2.5959-0.59947-3.3101-1.4136-3.3158-0.3223-0.0021-0.72417-0.09197-0.89305-0.19942-0.27464-0.17474-1.4876-3-1.3403-3.1218 0.54545-0.45099 4.2626-1.7648 5.2944-1.8714 1.6707-0.17245 3.8745-0.82539 4.4384-1.315 0.62469-0.54241 5.7061-1.9525 7.6803-2.1313 1.9276-0.17458 3.5442 0.20773 3.9114 0.92505 0.1244 0.24301 0.30227 1.3847 0.39526 2.5372 0.13949 1.7287 0.0937 2.1787-0.26167 2.5713-0.44164 0.48801-0.43894 0.69667 0.06066 4.6879 0.20734 1.6564 0.08608 1.7878-1.8774 2.0347-0.80699 0.10149-1.6356 0.41569-2.1189 0.8035l-0.79375 0.63683 1.5191 0.0013c1.2481 0.0011 1.5785 0.09843 1.8521 0.54563 0.18313 0.29937 0.71992 0.72966 1.1929 0.95619 0.47294 0.22653 0.8599 0.5359 0.8599 0.68748 0 0.40016-1.2562 2.0137-2.5194 3.236-0.86386 0.83591-1.1696 1.3855-1.4546 2.6151-0.33442 1.4427-0.48313 1.6529-2.0299 2.8684-0.91797 0.72139-1.669 1.3645-1.669 1.4291 0 0.0646 0.19344 0.41267 0.42986 0.7735 0.28192 0.43026 0.55328 1.8974 0.78847 4.2628 0.19724 1.9837 0.39076 3.6253 0.43004 3.6478 0.03928 0.02257 0.75299 0.24834 1.586 0.50173 1.6061 0.48857 3.1156 1.5517 3.1156 2.1944 0 0.21257-0.17365 0.72229-0.38589 1.1327-0.34892 0.67474-0.33625 0.84358 0.13229 1.7626 0.95094 1.8652 0.56938 3.6836-0.94393 4.4986l-0.87069 0.4689 0.61413 0.48307c0.33777 0.26569 0.87361 1.0191 1.1907 1.6742 0.54816 1.1324 0.55643 1.2504 0.1675 2.3918-0.3228 0.94737-0.4092 2.4961-0.40951 7.3406-2.16e-4 3.377-0.0057 6.27-0.0121 6.429s-0.42843 0.51348-0.93775 0.78777-0.92604 0.64156-0.92604 0.81615c0 0.1746 0.42969 0.67164 0.95487 1.1045l0.95487 0.78709 0.13198 5.5732c0.12226 5.1629 0.09011 5.711-0.4367 7.4454-0.31277 1.0297-0.64125 2.6709-0.72995 3.647-0.1016 1.1181-0.34229 2.0083-0.65046 2.4058-0.65142 0.84025-0.66865 2.1436-0.02617 1.9789 0.33314-0.0854 0.63022 0.19989 1.0591 1.017 0.55466 1.0568 0.596 1.4682 0.59531 5.925l-7.35e-4 4.7894 1.6536 0.42944c3.0859 0.80141 9.0456 1.5476 13.507 1.6911l4.4448 0.143 1.0572 1.2538 1.0572 1.2538 2.8324-1.0487 2.8324-1.0487 3.0427 0.32321c4.1045 0.43599 22.16 0.45156 26.326 0.0227 1.7462-0.17976 5.1395-0.50358 7.5406-0.71959 2.4011-0.21602 4.8019-0.45886 5.3352-0.53965 0.86224-0.13063 1.1001-0.0266 2.1486 0.93992 1.3512 1.2455 1.6056 1.1414 1.8822-0.76962l0.17237-1.1906 2.7053-0.70114c1.4879-0.38563 3.6383-0.95659 4.7786-1.2688 1.3546-0.3709 2.6386-0.54057 3.7042-0.48948l1.6309 0.0782-0.0841 1.0583c-0.0463 0.58208-0.23359 1.1774-0.4163 1.3229-0.1827 0.14553-0.65145 0.81182-1.0417 1.4807-0.68609 1.176-2.9124 3.426-5.1453 5.2001-0.74345 0.59069-1.3649 0.8599-1.9851 0.8599-0.56681 0-1.0811 0.19695-1.3817 0.52917-0.26339 0.29104-0.6524 0.52916-0.86448 0.52916s-1.5643-0.55443-3.005-1.2321l-2.6194-1.2321-4.9577 1.3531c-4.8656 1.3279-4.9905 1.3474-6.7244 1.0493-1.326-0.22797-3.7353-0.22926-9.6573-5e-3 -4.3398 0.16423-9.9742 0.27299-12.521 0.24168-4.254-0.0523-4.7338-0.10734-5.9052-0.67747-0.70126-0.3413-1.6033-0.89675-2.0045-1.2343l-0.72945-0.61379-3.9479 1.0685c-3.0409 0.82302-4.2217 1.0323-5.1393 0.91089-0.65524-0.0867-3.2749-0.27693-5.8215-0.42273-2.5466-0.14581-5.0056-0.33552-5.4645-0.42158-0.69499-0.13036-0.86444-0.0614-1.0151 0.41331-0.20639 0.65027-0.60079 0.61797-3.5813-0.29337l-1.7265-0.5279-2.11 0.71213c-1.9467 0.65704-2.3416 0.701-5.1042 0.56814-2.2564-0.10852-3.216-0.0513-3.8941 0.23199-0.99392 0.41527-4.3454 0.45934-6.7377 0.0886zm54.328-16.755c-4.1342-0.78912-9.029-2.8302-12.656-5.2774-2.7526-1.8571-7.9936-6.9465-9.5748-9.2977-2.8801-4.2826-4.269-8.8195-4.8288-15.774-0.52496-6.5205 0.81389-13.422 3.5799-18.455 3.9193-7.1308 14.05-18.172 23.994-26.152 6.4066-5.1406 15.474-10.826 16.92-10.61 1.2341 0.18447 1.1907 0.83935-0.24571 3.7107-1.6014 3.2011-2.387 5.4322-2.6882 7.6347-0.61 4.4605 0.88712 6.9605 9.3394 15.596 5.8234 5.9494 8.3563 9.0209 11.452 13.886 3.3927 5.3332 4.0182 7.0567 4.2251 11.642 0.38421 8.5155-3.2043 16.851-9.748 22.644-5.2555 4.6525-8.8756 6.8706-14.178 8.6869-5.4639 1.8717-11.469 2.5515-15.591 1.7647zm8.9443-2.4159c2.7916-0.51563 6.7903-1.7341 9.1178-2.7784 3.866-1.7345 6.8439-3.8477 10.786-7.654 3.2061-3.0955 4.6475-5.0753 6.0171-8.265 1.642-3.8238 2.106-5.7581 2.2714-9.4691 0.26316-5.9041-0.30694-7.6889-4.4084-13.802-3.1688-4.7227-4.9369-6.8031-11.094-13.053-8.4136-8.5415-10.227-11.901-9.4984-17.595l0.1862-1.4552-0.42651 0.92604c-0.57555 1.2496-0.74383 3.7352-0.36691 5.4194 0.34506 1.5419 2.5467 5.324 4.8683 8.3631 0.82358 1.0781 2.2732 2.9722 3.2214 4.2091 3.1242 4.0756 4.3474 6.9319 5.0512 11.795 0.54491 3.7654 0.25932 6.7135-0.92968 9.5969-1.7468 4.2361-3.9415 6.0512-6.0181 4.9774-1.3843-0.71584-1.5387-1.1029-1.5387-3.8564 0-2.2325-0.0739-2.6404-0.61618-3.4007-0.93879-1.3162-1.914-1.6721-5.5753-2.0345-3.8076-0.3769-4.9552-0.82601-6.7841-2.6549-0.63317-0.63317-1.533-1.8278-1.9997-2.6546-0.59487-1.0541-0.909-1.3952-1.051-1.1414-0.3552 0.6347-1.257 5.8246-1.4407 8.291-0.21304 2.8608 0.226 7.2006 0.92076 9.1014 1.1053 3.024 2.7796 5.0986 5.7338 7.1047 2.2821 1.5498 4.1252 2.0236 7.1655 1.8422 2.2744-0.13569 2.4845-0.10593 2.8405 0.40233 0.28065 0.40069 0.31173 0.6847 0.11513 1.0521-0.32653 0.61012-0.0446 0.52627-4.7326 1.4076-3.1173 0.58604-4.3099 0.6953-6.3621 0.58289-8.6194-0.47213-14.034-6.538-16.247-18.199-0.86286-4.5486-0.34006-12.06 1.1869-17.053 2.2339-7.304 11.241-18.579 19.618-24.556 1.8313-1.3068 2.9214-1.5599 3.358-0.77966 0.32024 0.57224 0.33558 0.55223 1.0626-1.3869 1.0243-2.7317 1.0707-2.6598-0.92767-1.4372-12.258 7.4994-25.263 19.769-32.323 30.495-4.3735 6.6447-5.7792 13.682-4.5277 22.668 0.78869 5.6624 2.6877 10.113 5.8699 13.758 2.0971 2.402 5.0844 5.023 7.8283 6.8683 5.7635 3.8761 13.268 5.5432 19.648 4.3648zm-5.2306-18.344c-1.0104-0.70956-2.4595-1.9712-3.2202-2.8035-3.016-3.3-3.7697-5.6517-3.9518-12.33-0.1455-5.3352 0.30588-8.4782 1.9351-13.474 1.4134-4.3342 2.3639-5.6383 3.4516-4.7356 0.33126 0.27492 0.37124 0.72673 0.22241 2.5134-0.16514 1.9825-0.12149 2.3092 0.48577 3.6356 0.81359 1.7771 2.5693 3.7338 4.01 4.469 0.76047 0.38809 1.8743 0.60447 3.8484 0.74762 3.3392 0.24212 4.9706 0.77473 6.2296 2.0337 1.5542 1.5542 1.8333 2.3014 1.8466 4.9433 7e-3 1.43 0.12341 2.3994 0.29452 2.4564 0.50641 0.16881 2.1348-1.934 2.7304-3.5258 0.93304-2.4938 1.2296-5.5079 0.82441-8.3793-0.64176-4.5481-1.814-7.3543-4.5001-10.773-7.1615-9.1143-8.6288-11.73-8.9373-15.933l-0.14993-2.042-0.71253 0.50737c-1.3856 0.98665-5.849 5.3744-7.9007 7.767-5.2975 6.1775-7.9995 10.809-9.1322 15.653-0.86433 3.6966-1.306 8.0921-1.0883 10.83 0.37997 4.7793 2.1024 10.537 4.0535 13.55 2.384 3.681 6.369 6.086 10.2 6.1558l1.2983 0.0237-1.837-1.2901z" fill="#4d4d4d"/><path d="m149.34 162.42c-0.21009-0.25314-0.31426-13.868-0.371-48.485l-0.0789-48.133-0.60263-2.1167c-0.33145-1.1642-1.1459-3.242-1.8099-4.6173-1.0198-2.1123-1.5619-2.852-3.4906-4.7625-2.7116-2.6862-5.0713-4.0981-9.0302-5.4034-6.0066-1.9804-3.0144-1.8586-49.421-2.0123-36.597-0.12121-41.647-0.18569-41.876-0.53471-0.15757-0.23973-0.2323-2.754-0.18874-6.35 0.072-5.944 0.07327-5.9555 0.82654-7.4895 0.9865-2.009 2.7583-3.4223 5.2878-4.2176l1.8953-0.59596h48.551c45.528 0 48.695 0.02935 50.866 0.47147 7.9905 1.6276 13.304 4.4476 17.346 9.2057 2.0538 2.4179 4.0175 6.2999 5.0121 9.9083l0.72756 2.6396 0.0698 56.003c0.0633 50.822 0.0309 56.042-0.34963 56.422-0.36972 0.36972-1.7605 0.41938-11.745 0.41938-9.1024 0-11.383-0.0691-11.618-0.35197zm21.389-56.6c-5e-3 -59.32 0.0744-55.958-1.423-60.235-2.4228-6.92-7.8101-11.82-15.56-14.154-5.7148-1.7207-2.0421-1.6125-54.715-1.6125-44.826 0-47.85 0.02856-49.261 0.4653-1.8521 0.57309-3.5927 1.8659-4.3773 3.2512-0.55633 0.98221-0.59274 1.3568-0.59683 6.1393l-0.0044 5.0932h39.939c33.907 0 40.39 0.05966 42.929 0.39503 12.335 1.6297 19.75 7.4335 22.758 17.814l0.58885 2.032 0.0754 47.493c0.0414 26.121 0.13058 47.642 0.19807 47.823 0.0951 0.2563 2.2977 0.33073 9.7883 0.33073h9.6656zm-124.88 56.242c-6.3193-1.0371-7.4083-1.2852-7.4083-1.6876 0-0.61165 2.2024-2.5734 3.6842-3.2817 1.2612-0.60278 1.6074-0.89619 1.6074-1.3621 0-0.41601 0.9464-1.4857 3.1605-3.5723 3.3776-3.183 4.0171-3.65 5.0195-3.6647 1.3091-0.0192 0.16346-0.42249-2.6743-0.94145l-2.9266-0.5352 3.0706-1.664c1.6888-0.91522 3.1274-1.756 3.1969-1.8684 0.06949-0.11244-1.3047-1.0278-3.0538-2.0341l-3.1801-1.8297 0.17172-2.1045c0.1168-1.4314 0.37596-2.5075 0.81029-3.3646 0.44323-0.87467 0.63857-1.7021 0.63857-2.705 0-1.2331 0.09875-1.5225 0.67388-1.9749 0.37064-0.29154 1.0337-0.60911 1.4735-0.70571 0.73945-0.16241 0.7684-0.21018 0.38445-0.63444-0.22837-0.25234-0.41521-0.60015-0.41521-0.77291 0-0.18106-0.31378-0.29018-0.74086-0.25764-1.0327 0.0787-2.2226-0.81427-2.0031-1.5033 0.09271-0.29104 0.20221-1.7198 0.24335-3.175 0.04114-1.4552 0.14437-3.3007 0.22942-4.101 0.10164-0.95654 0.01723-1.9049-0.24633-2.7674-0.36265-1.1869-0.35924-1.4838 0.03572-3.1089 0.31657-1.3025 0.55488-1.7966 0.86642-1.7966 0.23636 0 0.57009-0.22472 0.74161-0.49937 0.27431-0.43925 0.21971-0.5178-0.45352-0.65244-0.42096-0.0842-0.96431-0.4567-1.2075-0.82778-0.38579-0.58879-0.39918-0.82796-0.10511-1.8782 0.23502-0.83942 0.29113-2.2342 0.18546-4.6102-0.12282-2.7617-0.08016-3.4658 0.2254-3.7194 0.2073-0.17204 0.3769-0.7108 0.3769-1.1972 0-0.61258 0.2532-1.1728 0.82372-1.8226 0.6292-0.71662 0.7547-1.0213 0.53146-1.2903-0.16074-0.19368-0.21392-0.43049-0.11817-0.52625 0.09575-0.09575-0.12735-0.17409-0.49578-0.17409-0.36843 0-0.9996-0.25936-1.4026-0.57636-0.71714-0.5641-0.72936-0.61988-0.57484-2.6236 0.08683-1.126 0.04554-4.0103-0.09175-6.4095-0.20118-3.5158-0.17837-4.5991 0.11757-5.5824 0.3421-1.1367 0.33272-1.2386-0.13725-1.4901-0.45076-0.24124-0.50445-0.58984-0.50445-3.2751 0-2.4875 0.07159-3.0326 0.41567-3.1646 0.36638-0.14059 0.35481-0.24592-0.09758-0.8882-0.28229-0.40078-0.60248-1.0264-0.71155-1.3902-0.10906-0.3638-0.34733-0.84005-0.52949-1.0583-0.18216-0.21828-0.45012-1.497-0.59548-2.8415-0.14536-1.3446-0.4032-2.612-0.57298-2.8166-0.16978-0.20457-0.69779-0.44495-1.1734-0.53416-0.77057-0.14456-0.92546-0.33118-1.4233-1.7149l-0.55865-1.5527 2.1093-0.82564c1.1601-0.4541 2.6085-0.89226 3.2187-0.97367 1.9077-0.25454 3.4556-0.70254 4.4167-1.2783 0.877-0.52538 2.1172-0.91302 6.0854-1.9021 2.1744-0.54199 4.3231-0.36907 5.1578 0.41509 0.48741 0.4579 0.61894 0.92781 0.72581 2.593 0.09692 1.5102 0.03159 2.1848-0.25378 2.6203-0.38318 0.58481-0.36399 1.962 0.07171 5.1459l0.16827 1.2296-1.3604 0.29176c-0.74823 0.16047-1.4784 0.29176-1.6227 0.29176s-0.6149 0.2607-1.0459 0.57934c-0.92915 0.68695-0.62789 1.0074 0.7726 0.8217 0.78406-0.10394 1.0752-0.0021 1.5999 0.55886 0.35279 0.37726 0.78082 0.68592 0.95118 0.68592s0.52074 0.23315 0.77862 0.5181c0.452 0.49946 0.44021 0.55421-0.32768 1.5214-0.43811 0.55178-1.2855 1.4545-1.8831 2.0061-0.59758 0.55157-1.0865 1.1286-1.0865 1.2822 0 0.15364-0.18409 0.91259-0.40909 1.6866-0.35254 1.2127-0.61768 1.5625-1.9182 2.5306-0.83003 0.61786-1.5602 1.1653-1.6227 1.2165-0.06246 0.05123 0.09116 0.52244 0.34137 1.0471 0.26313 0.55179 0.56944 2.1958 0.72653 3.8993 0.39122 4.2424 0.26793 3.9661 2.0145 4.5142 2.7714 0.86958 3.6162 1.8481 2.8591 3.3121-0.36437 0.70461-0.3693 0.88158-0.03906 1.4023 0.5403 0.85191 0.76802 2.6141 0.44694 3.4586-0.15103 0.39724-0.67849 0.96055-1.1721 1.2518l-0.89752 0.52955 0.72687 0.77812c0.39978 0.42797 0.93235 1.2111 1.1835 1.7404 0.42301 0.89144 0.42554 1.0436 0.03429 2.0681-0.34462 0.90238-0.42233 2.2841-0.42233 7.5098v6.404l-1.1078 0.69932-1.1078 0.69933 1.1003 1.0264 1.1003 1.0264 0.15713 5.4267c0.15271 5.2742 0.13806 5.493-0.5217 7.7863-0.37335 1.2978-0.67882 2.9075-0.67882 3.5772 0 0.76721-0.18565 1.4829-0.50182 1.9346-0.276 0.39429-0.57068 1.1038-0.65484 1.5768-0.13484 0.75775-0.08309 0.86029 0.43568 0.86318 0.38594 2e-3 0.80692 0.33992 1.2223 0.9807 0.62247 0.9603 0.63101 1.0569 0.48712 5.5102-0.08056 2.493-0.06124 4.6707 0.04293 4.8392 0.25454 0.41186 2.495 1.0572 4.7059 1.3554 8.2515 1.1131 10.318 1.3335 12.505 1.3338l2.4992 2.6e-4 1.0726 1.1847 1.0726 1.1847 2.7781-1.0561 2.7781-1.0561 2.7781 0.31616c2.2492 0.25596 6.8798 0.44203 11.642 0.4678 9.4218 0.051 13.169-0.14716 24.739-1.3079 4.0742-0.40878 4.2238-0.3892 5.4434 0.71264 1.2003 1.0844 1.4292 0.98968 1.7171-0.71051 0.25117-1.4834 0.28738-1.5254 1.4862-1.7258 0.6286-0.10508 2.4609-0.58964 4.0719-1.0768 3.1679-0.95802 5.4942-1.334 6.575-1.0628 1.4056 0.35279 0.64996 2.2654-2.2677 5.7398-1.497 1.7827-4.7676 4.211-5.6715 4.211-0.37913 0-1.0509 0.25744-1.4928 0.57209l-0.80342 0.57209-2.6926-1.3391-2.6926-1.3391-5.0777 1.4147c-4.4062 1.2276-5.1884 1.3761-5.9149 1.1228-0.59524-0.2075-2.8701-0.22458-7.8713-0.0591-3.8688 0.12801-9.9127 0.21289-13.431 0.18862-6.9655-0.0481-7.2225-0.0975-9.5385-1.8336l-0.85394-0.64016-3.9926 1.0794c-2.1959 0.59367-4.1929 1.0184-4.4377 0.94373-0.24482-0.0746-2.6667-0.25947-5.3819-0.41077-2.7152-0.15131-5.4708-0.3483-6.1235-0.43776-1.0459-0.14336-1.2076-0.0972-1.3619 0.38905-0.2042 0.64339-0.73091 0.59219-3.6789-0.3576-1.7644-0.56846-1.8399-0.57158-2.7852-0.11486-1.5716 0.75934-4.1565 1.1145-6.6897 0.91925-1.7568-0.13542-2.5784-0.0797-3.515 0.23825-1.128 0.38298-3.5879 0.49444-5.1726 0.23437zm53.231-16.893c-7.3131-1.2864-14.605-5.5183-19.939-11.571-4.9367-5.6023-6.9629-11.21-7.2879-20.171-0.22574-6.2235 0.77529-11.359 3.1413-16.116 1.1346-2.2811 1.3101-2.5525 4.0065-6.1979 8.4233-11.388 21.924-23.336 33.942-30.04 2.9482-1.6445 3.6827-1.801 4.1049-0.87437 0.23354 0.51257 0.12514 0.89574-0.65496 2.3151-2.2646 4.1205-3.5239 8.4556-3.2067 11.04 0.37367 3.0444 2.757 6.4068 8.8524 12.489 5.564 5.5521 8.3155 8.7922 11.289 13.293 4.2981 6.5063 4.9707 8.3985 4.9617 13.959-5e-3 3.0116-0.12694 4.32-0.56771 6.0854-0.7531 3.0164-2.62 7.4414-4.0235 9.5367-1.48 2.2095-6.3626 7.0571-9.4006 9.3332-7.007 5.2498-17.829 8.219-25.218 6.9192zm8.8555-2.3732c8.0819-1.5463 14.544-5.0627 20.496-11.153 3.0738-3.1453 4.3754-5.1026 5.7522-8.65 1.627-4.1922 1.9737-6.1931 1.8339-10.585-0.10968-3.4448-0.18405-3.8964-0.93202-5.6597-0.95971-2.2625-5.1089-8.5784-7.6058-11.578-0.9692-1.1642-4.0521-4.4384-6.8509-7.276-5.2851-5.3585-6.8079-7.2438-8.5363-10.569l-1.024-1.9698v-3.2751c0-3.0729-0.0233-3.2208-0.37816-2.3958-0.60935 1.4168-0.67875 4.448-0.13931 6.0848 0.5028 1.5256 3.5111 6.3177 5.477 8.7246 5.821 7.1268 7.2619 10.409 7.5321 17.158 0.11251 2.8107 0.0504 3.932-0.29121 5.2619-1.323 5.1496-4.3154 8.3139-6.6975 7.0821-1.3833-0.71534-1.5342-1.0988-1.5342-3.8981 0-2.1827-0.0838-2.6966-0.54292-3.3306-0.97227-1.3425-2.6151-1.9397-5.9714-2.1708-2.3162-0.15946-3.277-0.34465-4.1651-0.80278-1.4836-0.7653-3.2225-2.5607-4.2938-4.4331-1.0122-1.7692-1.0489-1.7292-1.8679 2.0419-0.48348 2.2261-0.60015 3.5856-0.6004 6.9963-5.29e-4 6.2077 0.89551 9.0536 3.7671 11.966 3.4032 3.4512 7.1033 4.9459 10.651 4.3025 1.801-0.32658 2.3617-0.10588 2.3617 0.92959 0 0.82223-0.42926 1.0907-2.08 1.3007-0.78018 0.0993-2.1494 0.37557-3.0427 0.61398-2.03 0.54176-7.701 0.60055-9.4294 0.0978-4.5596-1.3263-7.7698-4.3006-10.246-9.493-3.2552-6.8251-3.8539-15.641-1.6504-24.302 1.9541-7.6797 11.566-19.907 20.327-25.859 1.6502-1.1211 2.5933-1.2398 2.9282-0.36853 0.22358 0.5817 0.23565 0.57717 0.52809-0.19844 0.16461-0.43656 0.54963-1.4231 0.85559-2.1923 0.30596-0.76921 0.50781-1.4471 0.44854-1.5063-0.159-0.159-4.4222 2.5466-7.6219 4.8372-12.011 8.5982-24.925 22.343-28.73 30.578-1.5751 3.409-2.7683 8.957-2.7683 12.871 0 2.4209 0.6541 7.2942 1.331 9.9163 1.5844 6.1377 5.9772 11.831 12.549 16.265 6.224 4.1988 13.594 5.8941 20.161 4.6377zm-5.6489-18.609c-5.0374-3.735-6.6209-7.1251-6.8887-14.748-0.10641-3.0292-0.0341-4.6188 0.30091-6.6146 0.58318-3.4743 1.5518-7.0114 2.6163-9.5544 0.84441-2.017 0.88887-2.0686 1.7826-2.0686h0.91658l-0.0919 2.4239c-0.0831 2.1917-0.0252 2.5567 0.60401 3.8094 0.9921 1.9752 2.1369 3.3261 3.4917 4.12 0.96491 0.56547 1.6837 0.72859 4.0099 0.90995 4.1559 0.324 5.4542 0.81428 7.0293 2.6544 1.1792 1.3776 1.6699 3.404 1.2899 5.3262-0.20602 1.042-0.18447 1.3321 0.10723 1.4441 0.70816 0.27175 1.7367-0.76804 2.6388-2.6678 2.7007-5.6869 1.4465-13.948-2.9861-19.67-4.4207-5.706-5.6912-7.4531-6.9265-9.5243-1.6387-2.7475-2.2324-4.5874-2.2639-7.0155-0.0127-0.98188-0.13196-1.7856-0.26494-1.7859-0.7849-0.0024-6.1253 5.2671-9.7894 9.6591-5.8089 6.963-8.0081 11.782-8.9088 19.524-0.74036 6.3628 0.89778 14.533 3.817 19.038 2.4693 3.8102 6.4022 6.231 10.185 6.2691l1.412 0.0142-2.0808-1.5428z" fill="#010100"/></g></svg>
