<svg width="44.686mm" height="44.696mm" version="1.1" viewBox="0 0 44.285757 44.695714" xmlns="http://www.w3.org/2000/svg" xmlns:xlink="http://www.w3.org/1999/xlink"><g transform="translate(-773.74 -439.22)"><path d="m802.16 473.55-6.3071-6.3071-6.2246 6.2229-6.2246 6.2229-3.1301-3.1335-3.1301-3.1335 6.2218-6.2235 6.2218-6.2235-5.5883-5.5863-5.5882-5.5863 3.1327-3.1327 3.1327-3.1327 5.5882 5.5863 5.5882 5.5863 5.6316-5.6298 5.6316-5.6298 3.13 3.1334 3.13 3.1334-5.5443 5.5462c-3.0494 3.0504-5.5443 5.6224-5.5443 5.7155 0 0.0931 2.8192 2.9877 6.2649 6.4324l6.2649 6.2632-3.0882 3.0916c-1.6985 1.7004-3.1272 3.0916-3.1749 3.0916-0.0477 0-2.9249-2.8382-6.3938-6.3071z" fill="#d8d8d8" stroke-width=".16933"/></g></svg>
